<?xml version="1.0" encoding="utf-8"?>
<!-- Generator: Adobe Illustrator 24.2.0, SVG Export Plug-In . SVG Version: 6.00 Build 0)  -->
<svg version="1.1" id="Layer_1" xmlns="http://www.w3.org/2000/svg" xmlns:xlink="http://www.w3.org/1999/xlink" x="0px" y="0px"
	 viewBox="0 0 1138 1138" style="enable-background:new 0 0 1138 1138;" xml:space="preserve">
<style type="text/css">
	.st0{fill:#FFFFFF;}
	.st1{fill:#1A4090;}
	.st2{fill:#D0041F;}
	.st3{fill:#F8F400;}
</style>
<g>
	<path class="st0" d="M505.36,33.44c4.79-5.57,12.7-6.62,19.64-6.51c5.43-0.07,11.16,2.34,13.82,7.29c3.8,7.2,3.72,15.6,4.45,23.51
		c-5.74,0.5-11.47,0.99-17.21,1.52c-0.77-6.04-0.48-12.29-2.03-18.19c-1.76-3.53-6.31-0.2-5.45,2.92c1.57,19.39,3.26,38.79,5,58.17
		c0.07,2.16,1.73,5.43,4.31,3.95c1.49-1.22,1.92-3.22,1.74-5.06c-0.37-5.84-1.04-11.67-1.46-17.51c5.76-0.46,11.52-1.08,17.3-1.45
		c0.34,9.24,2.91,18.95-0.54,27.89c-2.25,5.57-8.31,8.25-13.91,9.04c-6.51,0.96-14.21,1.12-19.32-3.7
		c-4.38-4.56-5.28-11.19-5.91-17.2c-1.38-16.04-2.78-32.09-4.13-48.14C501.16,44.31,501.36,37.91,505.36,33.44z"/>
	<path class="st0" d="M591.25,27.65c5.9,0.55,11.81,1.03,17.71,1.58c1.19,11.91,2.42,23.81,3.43,35.73
		c3.75-11.35,6.37-23.02,9.18-34.62c5.5,0.49,11.01,1,16.52,1.48c-6.35,17.91-13.08,35.71-19.26,53.68
		c-1.33,11.19-1.96,22.47-3.05,33.69c-6.15-0.54-12.3-1.05-18.44-1.65c0.88-10.19,1.73-20.39,2.66-30.58
		c0.19-1.95,0.11-3.91-0.19-5.85C596.92,63.3,594.09,45.47,591.25,27.65z"/>
	<g>
		<path class="st0" d="M451.5,36.57c5.97-1.29,13.14-1.37,17.81,3.19c4.56,4.61,6.09,11.17,7.61,17.26
			c3.49,14.36,7.05,28.7,10.55,43.06c1.34,6,2.34,12.9-1.11,18.39c-3.35,5-9.32,7.27-14.91,8.74c-5.9,1.44-12.8,2.11-18.07-1.54
			c-4.95-3.69-7.03-9.87-8.5-15.63c-3.73-15.18-7.47-30.37-11.19-45.55c-1.39-6.09-2.4-13.11,1.1-18.7
			C438.49,40.23,445.29,37.98,451.5,36.57z M451.21,49.99c-1.81,1.49-0.89,4-0.56,5.92c4.47,18.04,8.86,36.09,13.31,54.12
			c0.46,2.09,1.59,4.6,4.08,4.66c2.66-0.89,3.1-4.26,2.32-6.61c-4.53-18.4-9-36.83-13.59-55.22
			C456.51,50.25,453.54,48.22,451.21,49.99z"/>
	</g>
	<g>
		<path class="st0" d="M686.8,53.77c1.4-4.32,2.39-8.77,4.1-12.98c6.53,1.7,12.92,3.96,19.39,5.89c5.67,1.83,12.03,4.72,14.17,10.76
			c2.05,6.48,0,13.27-1.9,19.52c-4.15,13.63-8.18,27.3-12.36,40.93c-1.92,5.81-4.94,12.31-11.11,14.54
			c-6.36,2.07-13-0.17-19.11-2.06c-4.94-1.54-9.89-3.07-14.83-4.61C672.33,101.75,679.59,77.77,686.8,53.77z M685.29,119.22
			c1.95-0.14,4.56,0.87,6-1.01c1.53-2.44,2.01-5.35,2.9-8.06c4.65-15.75,9.62-31.43,14.1-47.23c1.32-3.19-1.95-4.86-4.39-5.75
			C697.73,77.86,691.36,98.5,685.29,119.22z"/>
	</g>
	<path class="st0" d="M395.57,54.22c5.55-1.85,11.05-3.83,16.58-5.75c9.52,28.04,19,56.1,28.56,84.12
		c-5.52,2.03-11.09,3.91-16.64,5.85c-4.53-13.51-9.2-26.98-13.68-40.5c-1.77,0.55-3.53,1.11-5.28,1.67
		c4.6,13.55,9.18,27.1,13.79,40.65c-5.48,1.9-10.93,3.89-16.44,5.69c-9.44-28.05-18.99-56.07-28.5-84.1
		c5.44-1.96,10.92-3.84,16.39-5.75c3.52,10.4,7.06,20.8,10.58,31.21c1.71-0.57,3.43-1.12,5.15-1.69
		C402.75,75.09,398.96,64.72,395.57,54.22z"/>
	<path class="st0" d="M720.61,119.59c8.67-20.69,17.28-41.41,25.98-62.09c5.3,2.36,10.69,4.53,15.94,6.99
		c-8.79,20.66-17.32,41.43-26.04,62.11c-1,2.43-2.2,4.8-2.71,7.39c-0.42,1.79,1.14,4.19,3.18,3.4c2.09-0.68,2.92-2.86,3.75-4.69
		c9.14-21.94,18.33-43.87,27.5-65.81c5.14,2.2,10.35,4.28,15.42,6.66c0.08,0.67,0.22,2.02,0.29,2.69c1.78-1.71,2.88-3.9,3.73-6.18
		c-2.56-1.05-5.07-2.16-7.55-3.35c1.18-2.73,2.35-5.46,3.53-8.19c4.33,1.92,8.71,3.77,13.06,5.67c-2.46,5.43-4.09,11.6-8.63,15.75
		c-2,2.01-4.89,2.35-7.56,2.57c-7.67,18.31-15.28,36.65-23,54.94c-2.56,5.63-5.97,11.92-12.28,13.88c-5.91,1.6-12.03-0.54-17.3-3.15
		c-4.63-2.33-9.16-6.02-10.37-11.3C716.37,130.95,718.42,125.03,720.61,119.59z"/>
	<path class="st0" d="M313.62,90.93c5.15-2.82,10.33-5.58,15.49-8.38c13.74,26.17,27.47,52.36,41.15,78.57
		c-5.12,2.85-10.31,5.58-15.44,8.4C341.04,143.35,327.37,117.12,313.62,90.93z"/>
	<g>
		<path class="st0" d="M802.7,87.74c4.43-2.41,9.82-1.63,14.32,0.19c7.48,3.02,14.91,7.99,17.71,15.93c2.97-0.9,5.43-2.79,7.23-5.31
			c-2.38-1.61-4.87-3.04-7.38-4.4c1.43-2.63,2.87-5.25,4.31-7.87c4.16,2.31,8.29,4.66,12.45,6.97c-3.73,6.74-7.42,16.32-16.57,16.32
			c-0.94,4.38-2.64,8.53-4.82,12.43c-7.41,13.56-14.8,27.13-22.22,40.69c-2.9,5.09-6.52,10.49-12.29,12.54
			c-5.9,1.81-11.99-0.59-17.16-3.39c-5.38-2.96-10.85-7.1-12.61-13.27c-1.42-5.96,1.06-11.94,3.74-17.16
			c7.01-12.98,14.13-25.89,21.17-38.85C793.62,96.96,796.91,90.92,802.7,87.74z M813.34,101.32c-1.3,0.67-1.95,2.09-2.7,3.26
			c-8.25,15.13-16.49,30.26-24.77,45.37c-1.22,2.31-2.75,4.53-3.25,7.13c-0.23,1.38,0.65,3.62,2.38,3.31
			c2.88,0.08,4.36-2.7,5.53-4.89c8.82-16.47,18.04-32.75,26.75-49.28C818.92,103.68,816.19,100.12,813.34,101.32z"/>
	</g>
	<g>
		<path class="st0" d="M267.85,117.83c5.03-3.28,10.04-6.58,15.05-9.89c20.06,22.18,40.34,44.17,60.25,66.48
			c-4.8,3.05-9.52,6.24-14.27,9.36c-4.89-6.18-9.78-12.35-14.68-18.53c-3.27,2.15-6.54,4.3-9.78,6.48
			c3.51,7.07,6.98,14.15,10.49,21.22c-4.7,3.03-9.22,6.35-14.06,9.14c-11.82-26.95-23.07-54.18-34.64-81.25
			C264.93,119.29,266.88,118.58,267.85,117.83z M280.51,123.94c6.02,11.93,12.08,23.86,18.23,35.73c2.38-1.59,4.77-3.17,7.15-4.77
			c-4.72-5.85-9.39-11.73-14.11-17.59C288.13,132.77,284.85,127.87,280.51,123.94z"/>
	</g>
	<path class="st0" d="M851.76,131.74c3.18-4.39,7.4-8.75,13.07-9.42c7.74-0.95,14.55,3.99,19.83,9.08c3.9,3.61,6.08,9.22,4.71,14.49
		c-1.95,7.63-7.29,13.68-11.62,20.05c-4.71-3.39-9.35-6.89-14.03-10.32c3.16-4.72,6.83-9.11,9.76-13.98
		c1.45-1.81-0.12-4.97-2.51-4.44c-2.29,0.19-3.42,2.44-4.68,4.03c-10.52,14.82-21.16,29.56-31.71,44.36
		c-1.14,1.7-2.61,3.98-1.13,5.95c1.87,1.38,4.4,0.16,5.6-1.55c3.64-4.8,6.95-9.84,10.58-14.65c4.61,3.51,9.33,6.88,13.97,10.37
		c-5.49,7.03-9.7,15.61-17.6,20.31c-4.94,2.99-11.19,1.67-15.84-1.21c-5.12-3.11-10.21-7.04-12.62-12.69
		c-1.64-3.83-0.96-8.18,0.65-11.89c2.26-5.39,5.98-9.96,9.31-14.69C835.6,154.28,843.59,142.95,851.76,131.74z"/>
	<path class="st0" d="M464.95,132.24c5.05-0.51,10.14-1.86,15.15-1.85c0.89,4.31,1.24,8.72,1.86,13.08
		c-5.09,0.69-10.17,1.44-15.25,2.14C466.11,141.16,465.45,136.71,464.95,132.24z"/>
	<g>
		<path class="st0" d="M540.5,145.78c47.53-3.15,95.6,1.6,141.52,14.32c68.97,18.96,132.82,55.96,183.78,106.13
			c48.58,47.59,85.49,107.04,106.37,171.78c30.59,94.06,26.84,198.86-10.74,290.37c-28.28,69.6-75.6,131.25-135.3,176.82
			c-63.27,48.58-140.57,78.64-220.07,85.35c-60.09,5.25-121.31-2.34-178.19-22.48c-64.41-22.71-123.07-61.37-169.46-111.49
			c-50.8-54.57-86.83-122.79-102.93-195.61c-11.16-50.04-13.1-102.1-5.86-152.85c7.78-54.84,26.58-108.08,54.9-155.67
			c34.61-58.35,83.43-108.17,141.07-143.95C404.09,171.99,471.69,150.26,540.5,145.78z M411.37,179.4
			c-66.04,26.78-124.93,70.78-169.58,126.29c-40.52,50.17-69.31,109.78-83.1,172.79c-10.79,48.99-12.62,99.93-5.52,149.58
			c10.85,76.91,43.98,150.4,93.99,209.78c43.65,52.1,100.03,93.49,162.95,119.24c54.54,22.46,113.92,33.01,172.86,30.95
			c50.56-1.67,100.79-12.65,147.44-32.24c71.79-29.99,134.78-80.5,179.91-143.85c1.86-2.78,4.25-5.3,5.29-8.54
			c0.28-0.31,0.82-0.93,1.1-1.23c-0.58,0.04-1.74,0.13-2.32,0.18c0.22,0.63,0.46,1.27,0.72,1.93
			c-16.11,17.55-33.63,33.85-52.8,48.03c-29.2,21.72-61.76,38.91-96.19,50.7c-46.72,16.05-96.84,21.96-146.03,17.51
			c-63.3-5.57-124.85-28.95-176.08-66.51C389.28,814.1,346.28,758.27,322,695.02c-16.09-41.66-24.06-86.41-23.42-131.06
			c0.52-47.74,10.96-95.35,30.47-138.93c13.64-30.55,31.66-59.13,53.3-84.64c44.43-52.6,104.45-91.91,170.58-111.18
			c48.82-14.32,100.79-17.88,151.1-10.23c69.69,10.46,135.7,42.83,187.27,90.76c4.39,3.68,7.84,8.71,13.38,10.82
			c-3.3-9.26-10.35-16.33-16.43-23.79c-51.41-60.59-120.29-106.24-196.31-129.5C600.73,138.93,499.79,143.19,411.37,179.4z
			 M763.45,335.63c-10.42,1.4-19.7,6.63-29.57,9.89c-6.97,2.06-12.64,7.25-19.94,8.4c-8.84,1.49-17.55,3.69-26.04,6.61
			c-9.77,3.19-18.64,9.97-22.86,19.52c-3.79,8.96-4.94,18.86-5.19,28.51c1.27-0.06,2.57-0.12,3.87-0.19
			c-3.98,3.59-8.08,7.17-13.03,9.37c-5.2,2.84-11.52,2.82-17.03,0.91c-1.1,1.3-2.47,2.31-4.01,3.04c7.25,1.72,15.64,3.46,22.39-0.75
			c7.56-4.7,13.6-11.36,20.1-17.35c-3.32,5.22-8.83,9.2-10.44,15.39c-0.71,2.53,2.42,3.42,4.32,3.11c7.06-0.57,13.7-3.31,20.36-5.53
			c14.03-4.89,27.34-12.67,37.05-24.08c2.44-2.57,4.07-6.07,7.42-7.63c9.66-5.17,18.98-11.38,29.69-14.21
			c9.06-2.13,18.47-1.12,27.63-0.17c17.77,1.28,33.56,11.23,46.51,22.86c15.31,13.89,26.99,31.81,33.17,51.56
			c6.15,19.28,6.8,40.12,2.83,59.91c-5.27,26.87-18.28,51.6-33.98,73.79c-18.02,25.1-42.32,45.83-70.56,58.53
			c-33.38,15.51-70.28,19.99-106.19,26.12c-0.5,10.3-0.3,20.63-0.1,30.94c42.19-4.24,84.91-11.31,123.48-29.75
			c28.16-13.35,53.57-32.66,73.38-56.77c19-23.06,33.99-49.61,42.95-78.16c9.96-31.8,10.68-66.68,0.25-98.46
			c-11.03-33.88-33.6-64.23-63.87-83.25c-11.8-7.3-25.07-12.93-39.04-13.82C785.8,333.81,774.55,334.08,763.45,335.63z
			 M630.32,418.08 M518.53,483.76c-17.09,3.25-34.41-0.51-51.14-4.01c-1.63,2.48-3.3,4.93-4.97,7.39
			c15.02,2.43,30.2,4.91,45.48,4.38c21.97-2.45,43.99-5.11,66.14-4.99c8.04,0.08,16.17,0.38,24,2.37
			c9.5,2.59,18.65,6.35,27.54,10.57c7.2,3.51,14.4,7.19,20.72,12.16c0.45-4.5-3.84-6.71-6.88-9.01
			c-11.6-7.96-24.16-14.57-37.35-19.47c-9.91-3.76-20.68-3.93-31.14-3.92C553.38,479.42,535.91,481.46,518.53,483.76z
			 M692.05,483.13c-13.23,4.9-25.82,11.54-37.45,19.52c-3.02,2.29-7.28,4.5-6.82,8.96c7.91-6.12,17-10.47,26.06-14.61
			c11.2-4.85,22.83-9.5,35.18-10.08c25.75-1.48,51.45,1.77,77,4.59c15.3,0.56,30.51-1.95,45.57-4.37c-1.67-2.52-3.37-5.01-5.15-7.45
			c-13.95,3.14-28.24,6.02-42.6,5.14c-22.48-2.92-45.06-6.05-67.78-5.56C707.95,479.54,699.69,480.18,692.05,483.13z M522.03,491.11
			c-6.67,0.68-13.32,1.92-20.06,1.67c-13.51-0.31-26.92-2.34-40.23-4.59c-1.46,2.12-2.94,4.24-4.43,6.34
			c15.48,1.98,31.05,4.13,46.7,3.77c29.61-2.34,59.47-6.21,89.16-2.89c18.62,3.65,36.66,10.41,53.32,19.47
			c-1.19-3.41-4.65-5.01-7.43-6.9c-12-7.08-24.8-12.86-38.09-17.03c-10-3.19-20.63-3.28-31.02-3.25
			C553.93,487.89,537.95,489.33,522.03,491.11z M699.83,489.22c-15.85,3.75-30.85,10.64-44.88,18.81c-2.59,1.92-6.44,3.3-7.17,6.78
			c14.16-7.94,29.54-13.56,45.2-17.74c10.4-2.82,21.27-2.93,31.97-2.93c18.41,0.12,36.79,1.57,55.11,3.32
			c18.88,2.36,37.87-0.62,56.61-2.93c-1.49-2.12-2.94-4.24-4.42-6.35c-15.27,2.53-30.7,5.04-46.23,4.49
			c-10.35-1.03-20.66-2.46-31.03-3.29C736.67,488,718.09,486.35,699.83,489.22z M693.99,498.02c-11.9,3.02-23.51,7.17-34.71,12.19
			c-3.78,1.79-7.7,3.46-11,6.09c-0.07,0.64-0.22,1.93-0.29,2.57c6.26-3.42,13.05-5.72,19.8-7.99c10.1-3.29,20.37-6.16,30.83-8.07
			c8.38-1.41,16.91-1.59,25.39-1.64c18.03-0.07,36.04,1.05,54.01,2.36c7.31,0.49,14.61,1.43,21.95,1.22
			c13.81-0.27,27.57-1.62,41.28-3.19c-1.31-2.07-2.64-4.11-3.98-6.14c-15.94,2.5-32.09,4.4-48.25,3.99
			c-23.26-2.09-46.58-4.39-69.96-4.11C710.65,495.45,702.16,495.86,693.99,498.02z M452.75,501.56c19.31,2.04,38.82,4.46,58.23,2.35
			c23.61-1.77,47.3-3.4,70.99-2.46c11.97,0.33,23.64,3.31,35.09,6.57c10,2.97,19.96,6.23,29.33,10.84c-0.17-0.63-0.53-1.9-0.71-2.54
			c-4.89-3.9-10.92-6.03-16.57-8.57c-15.4-6.11-31.38-11.95-48.14-12.28c-25.37-0.9-50.69,1.69-75.92,3.94
			c-16.17,0.42-32.34-1.48-48.28-3.99C455.41,497.45,454.06,499.49,452.75,501.56z M713.09,502.57
			c-13.73,0.31-27.08,3.96-40.15,7.88c-8.5,2.73-17.09,5.44-24.96,9.72c0,0.67,0.01,1.99,0.02,2.66c14.06-5.29,28.9-8.2,43.64-10.95
			c10.98-2.08,22.18-2.55,33.34-2.58c18.33-0.07,36.64,0.73,54.94,1.69c9.01,0.44,18.02,1.33,27.06,1.02
			c13.32-0.35,26.62-1.2,39.89-2.39c-1.6-2.33-3.18-4.65-4.76-6.98c-19.64,2.1-39.47,4.51-59.22,2.44
			C759.67,503.34,736.38,501.7,713.09,502.57z M451.9,502.64c-1.58,2.33-3.17,4.66-4.75,7c19.89,1.55,39.9,3.34,59.85,1.76
			c24.31-1.34,48.68-2.61,73.03-1.87c12.19,0.25,24.21,2.49,36.1,5.01c10.21,2.22,20.39,4.7,30.23,8.25
			c-0.13-0.63-0.39-1.89-0.52-2.53c-4.67-3.14-10.16-4.74-15.37-6.73c-13.32-4.52-26.91-8.6-40.9-10.36
			c-21.17-1.8-42.46-0.45-63.63,0.82c-11.64,0.6-23.25,2.31-34.93,1.84C477.93,505.46,464.89,504.1,451.9,502.64z M446.33,510.77
			c-1.51,2.27-3.03,4.53-4.51,6.82c21.02,0.94,42.08,1.97,63.12,1.03c27.34-0.8,54.71-1.75,82.06-0.79
			c20.02,1.15,39.92,3.9,59.67,7.26c-2.33-2.38-5.76-2.84-8.76-3.89c-13.38-3.88-27.01-6.84-40.76-9
			c-9.64-1.53-19.42-1.64-29.16-1.74c-18.33-0.03-36.65,0.77-54.95,1.77C490.81,514.26,468.51,512.58,446.33,510.77z M657.05,520.94
			c-3.27,1.17-7.1,1.54-9.61,4.16c19.69-3.4,39.53-6.1,59.49-7.27c27.69-0.96,55.4,0,83.09,0.82c20.72,0.89,41.46-0.14,62.16-1.07
			c-1.49-2.28-3-4.54-4.5-6.8c-16.18,1.26-32.39,2.56-48.63,2.41c-30.32-1.5-60.71-3.75-91.07-2.2
			C690.71,512.42,673.73,516.35,657.05,520.94z M436.05,526.03c3.28,0.05,6.58,0.03,9.84-0.42l-1.79,0.49
			c4.46,6.93,10.33,12.85,16.12,18.66c14.9,14.18,32.28,25.59,50.72,34.62c36.59,17.87,77.23,26.38,117.75,28.25
			c3.87,15.84,4.91,32.2,5.45,48.45c0.21,12.63,1.09,25.27,0.28,37.9c-0.09,6.34-0.27,12.69-0.25,19.03
			c8.06,4.4,17.09,6.49,25.83,9.1c-0.23-11.05,0.17-22.11-0.68-33.13c0.1-9.31-0.39-18.64,0.46-27.92
			c0.48-17.9,1.39-35.93,5.57-53.41c43-2.02,86.2-11.48,124.47-31.67c23.03-12.31,44.53-28.41,60.2-49.51l-1.13-0.76
			c2.99,0.43,6.02,0.33,9.05,0.28c-1.66-2.48-3.34-4.94-4.99-7.41c-16.96,1.11-33.97,1.58-50.97,1.6
			c-26.31-0.81-52.62-1.74-78.95-1.55c-21.94-0.06-43.81,2.52-65.43,6.02l1.38,0.65c-7.69,0.35-15.4,0.43-23.08-0.01l1.26-0.5
			c-16.57-2.83-33.32-4.79-50.1-5.78c-33.03-1.2-66.07,0.49-99.09,1.19c-15.64-0.2-31.29-0.56-46.9-1.62
			C439.39,521.05,437.7,523.53,436.05,526.03z M617.53,675.45c-10.32,7.02-15.14,20.28-13.86,32.43
			c0.58,7.93,4.91,15.36,11.37,19.95c11.83,8.67,26.72,10.77,40.01,16.25c3.19,1.48,7.39,3.82,7.06,7.92
			c-2.57,7.11-1.07,14.77-1.36,22.17c7.3-3.13,14.88-7.42,18.48-14.85c4.54-10.39,2.1-24.28-7.42-31.1
			c-11.66-8.28-27.38-7.7-38.95-16.08c-3.21-2.2-1.2-5.84,0.92-8c0.23-11.74,0.91-23.48,0.36-35.22
			C628.25,669.99,622.41,671.88,617.53,675.45z M634.13,737.39c-0.02,13.21-0.3,26.43-0.43,39.64c0.24,4.71-0.46,9.38-0.76,14.07
			c-0.34,2.81,2.85,4.16,4.76,5.56c7.72,4.3,16.3,6.74,24.44,10.12c-1.06-12.56-1.59-25.15-1.86-37.75
			c-0.18-7.23,0.45-14.69-0.66-21.78C652.2,741.78,642.6,740.63,634.13,737.39z M619.27,778.32c-3.45,4.16-5.09,10.15-2.81,15.26
			c2.85,6.79,9.25,11.08,15.38,14.65c-1.5,14.79-3.38,29.68-8.07,43.84c-3.39,10.74-8.63,21.08-16.61,29.14
			c3.71,6.69,9.24,12.06,14.13,17.86c32.73,0.21,65.46,0.07,98.19,0.07c-1.88-1.99-3.34-5.05-6.43-5.15
			c-9.78-1.47-19.11-5.9-26.12-12.89c-11.03-10.62-16.01-25.61-19.93-40c-1.7-6.15-1.83-12.59-3.37-18.76
			c-9.01-6.89-21.12-7.44-30.79-13.2c5.75,2.43,11.55,4.76,17.56,6.51c5.45,2.01,11.73,3.67,15.31,8.63c1.87,2.62,1,5.9,0.28,8.77
			c-0.07,3.84,1.42,7.51,2.16,11.25c5.88-4.07,11.3-9.93,12.16-17.32c0.55-5.89-3.32-11.18-8.01-14.31
			c-9.94-6.74-21.9-9.29-32.57-14.55c-2.86-1.57-6-3.28-7.52-6.31c-1.54-2.6,0.83-5.16,0.97-7.78c0.36-5.03-0.01-10.07,0.2-15.1
			C628.18,771.18,622.99,773.94,619.27,778.32z M604.15,850.18c-5.5,4.84-9.75,11.54-10.41,18.95c-0.52,7.35,2.06,14.63,6.22,20.62
			c-0.43-0.4-1.31-1.2-1.74-1.6c-5.44,2.81-11.22,4.91-17.28,5.86c-3.04,0.11-4.47,3.11-6.26,5.11c11.3,0.1,22.59,0.03,33.89,0.03
			c-0.52-0.5-1.04-0.98-1.56-1.45l2.47-0.89c-0.31,0.38-0.93,1.13-1.24,1.51c7.3,4.65,14.34,9.91,22.7,12.56
			c-6.52-8.64-14.37-16.17-20.96-24.74c-3.19-4.53-6.72-10.2-4.63-15.9c2.85-6.71,9.6-10.29,15.8-13.35
			c2.28-5.74,4.17-11.62,5.71-17.6C618.88,841.91,610.58,844.55,604.15,850.18z"/>
	</g>
	<g>
		<path class="st0" d="M221.02,151.95c3.94-3.27,8.74-6.38,14.09-5.9c5.95,0.74,10.53,5.16,14.35,9.43
			c9.85,11.5,19.71,22.99,29.54,34.51c3.73,4.5,7.32,9.92,6.94,16.04c-0.52,5.8-4.63,10.42-8.72,14.22
			c-5.26,4.66-10.48,9.37-15.85,13.89c-9.41-11.12-18.95-22.12-28.37-33.22c-1.31,1.07-2.62,2.13-3.92,3.2
			c-2.29-2.79-4.83-5.37-6.96-8.29c0.74-1.49,2.3-2.41,3.44-3.59c-7.23-8.4-14.44-16.81-21.62-25.25
			C209.63,161.97,215.29,156.92,221.02,151.95z M225.02,164.99c4.24,5.49,9.04,10.55,13.44,15.93c1.23-1.08,2.47-2.15,3.71-3.23
			c2.57,2.73,4.99,5.59,7.41,8.46c-1.25,1.08-2.49,2.16-3.74,3.24c6.67,8.09,13.63,15.92,20.38,23.95c1.53-1.59,3.55-3.03,3.93-5.36
			c-0.1-2.89-2.64-4.77-4.26-6.9c-11-12.68-21.76-25.57-32.84-38.18C230.79,159.58,226.29,162.34,225.02,164.99z"/>
	</g>
	<path class="st0" d="M771.11,169.83c4.35,2.77,8.61,5.67,12.95,8.47c-2.35,3.81-4.8,7.55-7.19,11.34
		c-4.35-2.81-8.65-5.66-12.96-8.53C766.3,177.34,768.73,173.6,771.11,169.83z"/>
	<path class="st0" d="M920.31,185.3c3.85-4,8.92-7.66,14.77-7.14c7.31,0.5,12.96,6.03,17.32,11.44c3.57,4.26,5.04,10.4,2.78,15.63
		c-3.06,7.1-8.99,12.35-14.17,17.89c-4.16-4.05-8.28-8.14-12.44-12.19c3.84-4.29,8.14-8.16,11.74-12.65c1.6-1.7,0.06-5-2.32-4.58
		c-1.68-0.05-2.83,1.34-3.94,2.37c-12.8,13.51-25.65,26.96-38.45,40.46c-1.49,1.52-3.47,4.23-1.42,6.14
		c2.06,1.18,4.35-0.12,5.78-1.68c4-4.13,7.92-8.36,11.91-12.51c4.13,4.11,8.41,8.06,12.39,12.32c-6.34,6.14-11.65,13.92-20,17.51
		c-5.75,2.51-12.1-0.22-16.51-4.07c-5.1-4.4-10.32-10.1-10.32-17.26c0.41-6.27,4.62-11.37,8.68-15.82
		C897.52,209.22,908.82,197.17,920.31,185.3z"/>
	<path class="st0" d="M319.22,197.36c4.5-2.56,8.86-5.37,13.47-7.74c2.09,3.89,4.31,7.71,6.5,11.55c-4.41,2.6-8.73,5.38-13.28,7.72
		C323.41,205.21,321.48,201.19,319.22,197.36z"/>
	<path class="st0" d="M152.45,218.45c3.95-4.33,9.49-8.16,15.65-7.32c6.97,0.9,11.8,6.49,16.89,10.77c1.25,1.27,3.05,2.24,3.82,3.86
		c-3.49,4.52-7.42,8.69-11.08,13.08c-4.24-3.63-8.25-7.55-12.64-11c-1.52-1.38-3.98-0.93-4.76,1.03c-0.46,2.18,1.05,3.92,2.58,5.23
		c13.82,12.19,27.65,24.38,41.45,36.59c1.59,1.36,3.98,3.27,6.06,1.72c1.31-1.76,0.33-4.29-1.13-5.65
		c-3.77-3.62-7.9-6.87-11.7-10.47c-1.06,1.13-2.13,2.25-3.19,3.39c-3.26-2.98-6.6-5.88-9.91-8.81c4.77-5.59,9.55-11.16,14.33-16.74
		c11.15,9.9,22.42,19.66,33.49,29.65c-2.01,2.09-3.55,4.83-5.98,6.4c-1.51-0.75-2.92-1.66-4.34-2.54c0.29,4.26,0.17,8.73-1.75,12.64
		c-2.58,5.3-8.15,9.5-14.23,9.18c-6.28-0.42-11.56-4.34-16.17-8.3c-11.85-10.45-23.73-20.88-35.54-31.38
		c-4.27-3.99-8.72-8.72-9.38-14.8C144.45,228.59,148.35,222.96,152.45,218.45z"/>
	<path class="st0" d="M987.06,221.17c5.34-0.07,10.69-0.17,16.04-0.27c2.23,3.24,4.43,6.51,6.79,9.67
		c-1.68,5.2-3.81,10.24-5.66,15.38c-1.89-2.57-3.71-5.19-5.45-7.85c0.72-2.75,1.41-5.51,2.09-8.27c-3.2-0.77-7.86,0.7-9.77-2.76
		C989.72,225.13,988.41,223.13,987.06,221.17z"/>
	<path class="st0" d="M1009.74,240.17c1.45-5.2,3.4-10.24,5.09-15.36c2.51,3.6,5.02,7.2,7.46,10.85c-2.69,3.86-5.29,7.77-7.91,11.66
		C1012.76,245.02,1010.44,242.93,1009.74,240.17z"/>
	<g>
		<path class="st0" d="M907.45,270.85c26.09-14.31,52.2-28.59,78.32-42.84c4.23,5.47,8.38,11,12.7,16.41
			c-19.91,22.34-39.8,44.72-60,66.81c-3.3-4.54-6.93-8.82-10.16-13.4c4.89-6.05,11.48-10.76,16.42-16.79
			c-2.1-3.21-4.67-6.08-6.92-9.17c-6.68,4.08-13.28,8.29-19.94,12.41C914.31,279.87,910.92,275.32,907.45,270.85z M949.1,265.01
			c1.74,2.29,3.49,4.58,5.26,6.86c5.99-5.84,11.91-11.76,17.92-17.59c3.51-3.42,7.34-6.6,10.07-10.71
			C971.29,250.74,960.17,257.83,949.1,265.01z"/>
	</g>
	<path class="st0" d="M126.03,253.64c24.79,15.75,49.63,31.41,74.36,47.24c-3.59,5.8-7.24,11.58-10.7,17.47
		c-11.33-4.25-22.53-8.86-33.81-13.25c-7.34-2.96-14.81-5.6-21.92-9.09c-3.02-1.44-5.99-3.03-9.17-4.12
		c4.26,2.99,8.97,5.25,13.41,7.96c15.13,9.37,30.02,19.13,45.16,28.49c-2.35,4.12-4.92,8.12-7.39,12.17
		c-24.77-15.77-49.64-31.4-74.36-47.26c4.28-6.82,8.48-13.7,12.69-20.57c19.6,8.48,39.73,15.89,58.38,26.38
		c-2.46-2.95-6.18-4.31-9.36-6.29c-15.24-8.39-29.56-18.3-44.39-27.38C121.15,261.39,123.65,257.55,126.03,253.64z"/>
	<path class="st0" d="M945.38,320.17c25.1-14.98,50.44-29.6,75.64-44.44c4.05,6.99,8.01,14.05,12.01,21.07
		c-13.69,11.15-26.81,23.04-41.06,33.48c-2.94,2.36-6.68,3.75-9.03,6.78c8.84-4.64,16.72-10.9,25.44-15.75
		c9.65-5.65,19.29-11.31,28.93-16.96c2.25,3.99,4.66,7.9,6.69,12.02c-25.38,14.65-50.53,29.68-75.9,44.34
		c-3.34-5.99-6.77-11.93-10.16-17.89c12.74-11.21,25.54-22.37,38.32-33.54c4.72-4.34,10.35-7.58,14.93-12.07
		c-19.28,12.45-39.35,23.62-59.09,35.32C949.96,328.38,947.05,324.45,945.38,320.17z"/>
	<g>
		<path class="st0" d="M74.7,313.09c2.26-4.26,4.37-8.6,6.81-12.76c6.65,3.79,16.15,7.44,16.2,16.53c4.44,0.91,8.65,2.64,12.61,4.83
			c13.6,7.39,27.27,14.68,40.85,22.1c5.32,3.07,11.08,7.17,12.34,13.6c1.07,6.49-1.75,12.8-4.89,18.32
			c-2.98,5.11-7.48,10.24-13.74,10.89c-5.95,0.48-11.52-2.24-16.63-4.95c-13.4-7.24-26.81-14.45-40.19-21.72
			c-5.32-3.01-10.94-7.06-12.49-13.33c-1.35-6.25,1.23-12.48,4.16-17.88c2.71-5.04,6.76-9.56,12.26-11.53
			c-0.71-3.19-2.72-5.74-5.54-7.32c-1.29,2.44-2.56,4.9-3.81,7.37C79.94,315.96,77.3,314.56,74.7,313.09z M91.41,334.63
			c-2.59,1.42-1.89,5.22,0.75,6.18c15.96,8.78,32.06,17.29,48.04,26.03c1.87,0.9,3.73,2.24,5.9,2.12c1.45,0.07,2.9-1.29,2.52-2.78
			c-0.18-2.3-2.13-3.76-4.02-4.71c-16.11-8.64-32.19-17.35-48.27-26.04C94.83,334.71,93.05,333.73,91.41,334.63z"/>
	</g>
	<path class="st0" d="M67.03,317.07c4.64,0.83,9.29,1.58,13.93,2.4c-1.39,2.41-2.77,4.84-4.15,7.26c-5.45,0.63-10.9,1.23-16.36,1.81
		C62.62,324.7,64.78,320.86,67.03,317.07z"/>
	<path class="st0" d="M49.25,362.78c5.75,1.8,12.1,3.14,16.54,7.5c2,1.83,2.46,4.58,2.9,7.13c18.72,6.27,37.5,12.33,56.21,18.61
		c5.58,2.06,11.74,4.91,14.25,10.7c2.49,6.34,0.59,13.35-1.9,19.38c-2.12,5.17-6.29,10.21-12.17,10.86
		c-8.04,0.96-15.59-2.64-23.1-4.92c-18.27-6.05-36.57-12.02-54.82-18.11c1.8-5.57,3.54-11.15,5.38-16.7
		c20.52,6.77,41.04,13.55,61.56,20.31c2.95,0.9,5.81,2.16,8.87,2.66c1.75,0.38,4.37-1.26,3.44-3.26c-0.66-2.19-3-2.9-4.9-3.6
		c-22.37-7.34-44.72-14.73-67.08-22.12c1.87-5.39,3.25-10.96,5.37-16.25c0.64-0.15,1.91-0.45,2.55-0.6c-2-1.34-4.16-2.39-6.43-3.15
		c-0.84,2.62-1.67,5.25-2.47,7.89c-2.84-0.8-5.66-1.69-8.46-2.62C46.28,371.88,47.87,367.37,49.25,362.78z"/>
	<path class="st0" d="M1054.39,366.87c3.94-1.42,7.86-2.88,11.79-4.34c4.56,12.68,9.05,25.37,13.67,38.02
		c-3.93,1.53-7.89,2.96-11.83,4.42c-1.31-3.61-2.6-7.21-3.85-10.82c-23.63,8.5-47.07,17.49-70.7,25.95
		c-1.92-5.48-3.86-10.95-5.88-16.4c23.48-8.78,47.01-17.42,70.53-26.09C1056.93,374.01,1055.63,370.45,1054.39,366.87z"/>
	<path class="st0" d="M689.15,375.99c2.03-0.95,4.07-1.87,6.13-2.76c-0.66,2.06-1.33,4.12-1.98,6.18c-2.04,0.96-4.09,1.88-6.16,2.76
		C687.8,380.1,688.49,378.05,689.15,375.99z"/>
	<path class="st0" d="M1001.11,438.9c28.24-7.54,56.39-15.39,84.63-22.93c1.46,5.65,2.99,11.3,4.47,16.95
		c-10.46,2.84-20.91,5.71-31.37,8.52c0.41,1.8,0.85,3.61,1.29,5.42c10.47-2.84,20.97-5.62,31.41-8.58
		c1.63,5.74,3.21,11.5,4.54,17.32c-28.22,7.58-56.39,15.31-84.58,22.99c-1.53-5.75-3.12-11.49-4.52-17.28
		c13.61-3.64,27.19-7.39,40.79-11.06c-0.45-1.77-0.89-3.53-1.31-5.29c-13.72,3.4-27.29,7.42-40.97,10.97
		C1004.06,450.24,1002.38,444.62,1001.11,438.9z"/>
	<g>
		<path class="st0" d="M46.27,437.32c5.05-2.41,10.74-0.65,15.89,0.46c4.62,1.16,9.84,2.2,13.02,6.08
			c2.66,3.23,2.05,7.65,2.14,11.54c1.46-4.27,3.38-9.38,8.19-10.76c5.53-1.36,11.09,0.76,16.51,1.75
			c8.26,1.61,16.47,4.25,24.99,3.77c-1.24,5.74-2.37,11.51-3.67,17.25c-12.06,0.26-23.5-4.25-35.33-5.78c-2.95-0.44-5,1.8-6.18,4.19
			c13.28,3.2,26.68,5.83,40.02,8.76c-1.24,5.78-2.2,11.63-3.74,17.33c-28.6-5.92-57.12-12.23-85.67-18.41
			c1.71-7.61,3.07-15.3,4.93-22.87C38.74,445.43,41.12,439.76,46.27,437.32z M46.9,458.43c7.93,1.69,15.85,3.45,23.78,5.12
			c-0.06-2.14,0.51-5.18-2.05-6.12c-5.43-1.7-11.09-2.66-16.68-3.73C48.84,452.82,47.59,456.1,46.9,458.43z"/>
	</g>
	<g>
		<path class="st0" d="M1034.92,485.21c15.69-1.67,31.37-3.39,47.07-5c6.26-0.47,13.63-0.3,18.22,4.67
			c4.59,5.16,5.54,12.46,5.78,19.11c0.25,4.94-1.08,9.92-3.94,13.97c2.41,2.1,5.42,3.11,8.63,2.92c-0.28-2.83-0.55-5.66-0.76-8.49
			c2.88-0.31,5.78-0.63,8.68-0.97c0.61,4.79,1.06,9.6,1.56,14.4c-7.56,0.76-17.62,3.17-22.56-4.45c-7.4,3.26-15.6,3.3-23.49,4.28
			c-11.72,1.24-23.43,2.52-35.15,3.75c-5.57,0.45-11.7,0.48-16.53-2.71c-5.26-3.82-6.92-10.63-7.59-16.75
			c-0.63-6.21-0.52-13.32,3.83-18.27C1022.81,487.22,1029.12,485.91,1034.92,485.21z M1081.12,499.18
			c-16.42,1.79-32.86,3.45-49.27,5.3c-2.25,0.11-5.23,1.93-4.12,4.54c1.45,1.95,3.98,2.42,6.27,2.01
			c18.67-2.07,37.38-3.86,56.03-6.08c3.1,0.01,4.41-4.36,1.92-6.1C1088.43,497.75,1084.69,499,1081.12,499.18z"/>
	</g>
	<path class="st0" d="M29.96,489.24c4.17,0.46,8.33,1,12.49,1.51c-0.46,3.85-0.94,7.71-1.33,11.57c24.85,2.99,49.67,6.16,74.51,9.24
		c-0.71,5.8-1.43,11.59-2.08,17.39c-24.88-2.94-49.73-6.16-74.6-9.23c-0.44,3.74-0.9,7.48-1.34,11.23
		c-4.16-0.47-8.31-1.01-12.46-1.51C26.67,516.03,28.4,502.64,29.96,489.24z"/>
	<path class="st0" d="M67.17,537.75c3.88,4.88,7.56,9.92,11.45,14.8c6.38-1.96,12.78-3.84,19.21-5.63
		c-3.68,5.35-7.4,10.69-11.07,16.05c3.68,5.37,7.41,10.7,11.08,16.07c-6.44-1.79-12.85-3.67-19.26-5.57
		c-3.84,4.89-7.57,9.86-11.42,14.75c-0.03-6.15-0.02-12.31-0.01-18.46c-7.04-2.34-14.18-4.35-21.17-6.84
		c7.04-2.27,14.13-4.4,21.17-6.68C67.14,550.07,67.12,543.91,67.17,537.75z"/>
	<path class="st0" d="M1058.36,557.6c3.88-4.88,7.56-9.91,11.45-14.78c0.01,6.15,0.03,12.3-0.01,18.46
		c6.62,2.26,13.4,4.07,20.01,6.38c0.02,0.18,0.05,0.55,0.07,0.73c-6.64,2.27-13.39,4.22-20.05,6.42
		c-0.02,6.12,0.01,12.24-0.03,18.37c-3.95-4.79-7.54-9.85-11.48-14.64c-6.37,1.9-12.75,3.79-19.18,5.51
		c3.69-5.33,7.38-10.67,11.07-16.01c-3.69-5.35-7.36-10.7-11.08-16.02C1045.57,553.75,1051.97,555.68,1058.36,557.6z"/>
	<path class="st0" d="M558.06,553.85c6.32-1.4,13.07-2.8,17.98-7.31c3.18-0.07,6.36-0.06,9.55-0.08c0.07,9.69,0.09,19.37-0.01,29.06
		c-3.99-0.02-7.98-0.02-11.97-0.03c0-6.89-0.01-13.78,0-20.67c-5.1,1.67-10.26,3.21-15.58,3.98
		C558.03,557.14,558.05,555.49,558.06,553.85z"/>
	<g>
		<path class="st0" d="M609.75,548.61c7.09-2.58,14.93-2.6,22.26-1.15c4.58,1.06,9.59,3.23,11.56,7.84c2.22,5.5,1.22,12.89-4,16.36
			c-6.33,4.16-14.27,4.53-21.61,4.19c-5.36-0.31-11.55-1.76-14.21-6.96c3.74-0.19,7.49-0.72,11.24-0.43
			c3.35,3.62,8.99,3.7,13.25,1.76c2.67-1.19,3.34-4.28,4.19-6.77c-7.52,2.99-16.24,3.09-23.71-0.08c-3-1.25-6.2-3.73-6-7.32
			C602.81,552.18,606.5,549.83,609.75,548.61z M618.38,551.59c-3.83,0.55-5.31,5.99-2.16,8.29c3.6,2.36,8.53,2.32,12.4,0.62
			c2.58-1,3.39-4.6,1.53-6.62C627.13,550.87,622.31,550.6,618.38,551.59z"/>
	</g>
	<path class="st0" d="M652.42,547.09c13.75-0.21,27.51-0.1,41.26-0.02c-0.02,1.26-0.02,2.53-0.02,3.81
		c-9.72,5.09-19.85,12.98-21.33,24.62c-3.87,0-7.73,0.01-11.59-0.03c1.44-10.6,10.37-17.73,18.69-23.3
		c-9-0.17-17.99,0.11-26.98-0.15C652.43,550.37,652.43,548.72,652.42,547.09z"/>
	<g>
		<path class="st0" d="M706.13,549.15c7.19-3.11,15.39-3.18,23-1.8c4.71,1,9.92,3.08,12,7.79c2.42,5.63,1.27,13.37-4.26,16.75
			c-6.19,3.87-13.81,4.28-20.9,3.98c-5.5-0.26-11.81-1.69-14.61-6.97c3.81-0.29,7.64-0.5,11.47-0.57c2.86,3.93,8.53,3.63,12.63,2.1
			c2.95-1.07,3.74-4.32,4.6-6.98c-7.46,3-16.09,3.06-23.52,0c-2.82-1.2-5.85-3.29-6.15-6.59
			C699.97,553.22,703.06,550.42,706.13,549.15z M716.31,551.5c-4.05,0.4-5.69,6.12-2.33,8.47c3.66,2.25,8.58,2.26,12.43,0.45
			c2.72-1.1,3.21-5.06,1.03-6.92C724.43,550.91,720.03,550.67,716.31,551.5z"/>
	</g>
	<path class="st0" d="M1023.31,617.35c-0.44-4.63,0.68-9.43,0.97-14.12c15,5.47,29.95,11.13,45.02,16.38
		c9.48,1.26,19.06,1.68,28.58,2.67c-0.44,5.22-0.94,10.43-1.33,15.66c-9.52-0.58-18.99-1.84-28.5-2.29
		c-15.81,2.28-31.56,5.07-47.35,7.54c0.44-5.04,0.88-10.09,1.32-15.13c10.03-0.97,20.04-2.02,30.08-2.91
		C1042.68,621.92,1032.92,619.88,1023.31,617.35z"/>
	<path class="st0" d="M57.94,614.48c12.29-1.79,24.61-3.44,36.9-5.19c5.55-0.72,11.71-2.09,16.86,0.89
		c5.18,2.97,7.15,9.21,7.59,14.84c0.61,4.9-0.09,10.65-4.28,13.86c-5.9,4.4-13.62,4.43-20.57,5.7c-0.8-4.89-1.47-9.79-2.1-14.7
		c5.04-0.87,10.28-0.97,15.18-2.49c2.78-1.55,0.09-5.28-2.46-4.52c-15.75,1.98-31.45,4.39-47.18,6.5c-1.93,0.35-4.42,0.49-5.32,2.58
		c-0.25,1.76,1.8,2.94,3.36,2.88c5.37-0.33,10.67-1.44,16.02-2.07c0.65,4.89,1.44,9.77,1.98,14.68c-7.67,0.67-15.59,3.25-23.2,0.86
		c-4.72-1.51-7.34-6.25-8.36-10.81c-1.15-5.27-1.73-11.28,1.15-16.11C46.68,616.66,52.7,615.36,57.94,614.48z"/>
	<path class="st0" d="M1016.25,655.02c1.19-4.31,4.28-8.33,8.75-9.51c6.81-1.69,13.73,0.57,20.47,1.59
		c-0.87,4.84-1.89,9.64-2.73,14.48c-4.99-0.64-9.85-2.19-14.87-2.51c-3.26,0-2.68,4.81,0.23,5.03c13.25,2.89,26.64,5.19,39.94,7.86
		c3.82,0.51,7.66,2.1,11.53,1.56c2.85-0.78,1.15-4.43-1.07-4.82c-5.13-1.28-10.37-2.02-15.54-3.09c0.75-4.85,1.82-9.64,2.69-14.47
		c7.19,1.5,14.95,1.95,21.36,5.89c4.71,2.83,6.04,8.8,5.32,13.91c-0.69,5.59-2.27,11.9-7.21,15.24c-4.71,2.8-10.49,1.96-15.62,1.11
		c-13.31-2.58-26.63-5.12-39.93-7.75c-4.65-0.92-9.74-2.42-12.51-6.58C1013.44,667.68,1014.47,660.78,1016.25,655.02z"/>
	<g>
		<path class="st0" d="M46.81,658.58c25.39-0.17,50.78-0.26,76.17-0.41c0.99,5.81,2.13,11.58,2.99,17.41
			c-23.9,8.39-47.73,17.02-71.62,25.45c-0.78-4.72-1.87-9.39-2.4-14.15c6.24-2.3,12.81-3.63,19.15-5.66
			c-0.6-3.25-1.17-6.5-1.74-9.75c-6.57,0.32-13.13,0.94-19.7,1.17C48.01,668.18,47.89,663.22,46.81,658.58z M80.61,670.92
			c0.42,2.39,0.85,4.79,1.27,7.2c6.37-1.78,12.71-3.66,19.07-5.47c4.54-1.28,9.22-2.25,13.49-4.33
			C103.17,669.22,91.89,670.04,80.61,670.92z"/>
	</g>
	<path class="st0" d="M56.15,706.87c23.92-7.29,47.84-14.59,71.77-21.85c2.01,6.52,4.05,13.03,5.99,19.58
		c-15.77,7.46-31,16.2-47.47,22.1c-0.47,0.29-1.4,0.88-1.87,1.18c7.25-1.78,14.07-4.92,21.2-7.08c10.1-3.08,20.2-6.21,30.33-9.2
		c1.53,4.45,2.65,9.01,3.75,13.58c3.78,9.6,7.79,19.1,11.59,28.7c-3.32,1.29-6.63,2.64-9.92,4c-1.26-2.99-2.48-5.99-3.69-9
		c-19.92,7.9-39.75,16.05-59.69,23.93c-1.77-4.59-3.71-9.11-5.48-13.7c19.88-7.97,39.76-15.93,59.59-24
		c-1.24-2.98-2.45-5.96-3.59-8.96c1.1-0.33,2.2-0.66,3.3-1c-21.56,5.91-42.83,12.94-64.27,19.31c-1.72-5.55-3.42-11.11-5.13-16.66
		c17.56-8.99,34.72-18.82,52.77-26.8c-4.71,1.08-9.13,3.06-13.72,4.49c-13.93,4.32-27.93,8.43-41.84,12.82
		C58.44,714.53,57.29,710.7,56.15,706.87z"/>
	<g>
		<path class="st0" d="M1011.42,687.23c25.16,3.16,50.3,6.49,75.47,9.59c-1.29,4.7-2.81,9.32-4.22,13.98
			c-6.56-1.28-13.1-2.59-19.65-3.85c-0.98,3.16-1.96,6.31-2.95,9.46c6.12,2.75,12.34,5.27,18.45,8.06c-1.45,4.52-2.82,9.06-4.2,13.6
			c-22.74-11.17-45.3-22.71-68.02-33.92C1007.88,698.47,1009.7,692.86,1011.42,687.23z M1018.73,698.74
			c10.15,4.75,20.71,8.58,30.94,13.14c0.85-2.33,1.59-4.7,2.22-7.09C1040.79,703,1029.88,700.12,1018.73,698.74z"/>
	</g>
	<path class="st0" d="M1003.17,716.45c23.3,9.17,46.53,18.56,69.72,28.02c-1.74,4.07-3.38,8.19-5.05,12.29
		c-17.34-6.85-34.52-14.17-51.98-20.71c8.13,3.96,15.66,8.99,23.37,13.68c8.39,5.17,16.76,10.34,25.17,15.48
		c-1.56,3.89-3.12,7.77-4.7,11.64c-13.87-2.93-27.74-5.87-41.59-8.87c-4.58-0.95-8.98-2.55-13.44-3.86
		c17.03,7.44,34.47,13.95,51.66,21.04c-1.5,3.67-3,7.36-4.48,11.05c-23.21-9.31-46.4-18.67-69.61-27.99
		c2.89-6.47,4.9-13.45,8.33-19.58c17.14,4.54,34.37,8.86,51.4,13.83c-15.67-8.69-30.94-18.11-46.39-27.18
		C998.12,729.02,1000.75,722.77,1003.17,716.45z"/>
	<path class="st0" d="M84.3,788.74c22.65-10.56,45.34-21.05,68-31.59c2.11,4.43,4.16,8.89,6.3,13.32
		c-8.37,3.95-16.74,7.89-25.19,11.67c0.59,1.44,1.19,2.89,1.79,4.36c8.53-3.77,16.88-7.94,25.43-11.66c2.05,4.54,4.28,9,6.25,13.58
		c-22.68,10.42-45.3,21-67.95,31.52c-2.18-4.53-4.35-9.06-6.34-13.67c10.97-4.95,21.86-10.08,32.76-15.17
		c-0.63-1.39-1.25-2.77-1.87-4.14c-11.09,4.81-21.91,10.23-32.98,15.1C88.45,797.61,86.36,793.18,84.3,788.74z"/>
	<g>
		<path class="st0" d="M974.36,783.39c2.41-4.14,5.66-8.55,10.64-9.56c4.54-0.94,8.72,1.6,12.56,3.64c3.69,2.08,7.87,4.12,9.94,8.04
			c1.56,3.11,0.18,6.55-0.57,9.68c2.31-2.83,4.94-6.33,8.99-6.29c4.55,0.16,8.4,2.86,12.34,4.84c6.72,3.39,13.13,7.65,20.55,9.37
			c-2.33,4.35-4.66,8.69-6.97,13.05c-10.04-2.53-18.39-9.02-27.84-12.93c-2.31-1.19-4.45,0.41-6.1,1.88
			c10.23,5.71,20.7,10.97,31,16.55c-2.36,4.39-4.71,8.77-7,13.19c-22.15-11.62-44.21-23.4-66.33-35.08
			C968.49,794.31,971.35,788.8,974.36,783.39z M983.22,788.32c-0.86,0.77-1.59,1.67-2.34,2.54c6.14,3.35,12.32,6.62,18.54,9.84
			c0.18-1.7,1.46-3.71-0.03-5.14c-3.06-2.42-6.79-3.81-10.14-5.77C987.37,788.98,985.33,787.23,983.22,788.32z"/>
	</g>
	<g>
		<path class="st0" d="M161.12,795.16c3.5-1.03,7.5-0.92,10.62,1.15c4.29,2.74,7.08,7.22,9.27,11.71c2.03,4.26,3.32,9.55,0.91,13.93
			c-2.77,4.88-7.87,7.71-12.58,10.41c-10.6,6.07-21.17,12.2-31.78,18.26c-4.39,2.41-9.4,4.71-14.52,3.71
			c-5.2-1.23-8.69-5.76-11.29-10.12c-2.69-4.7-5.04-10.43-3.08-15.83c1.93-4.7,6.32-7.72,10.53-10.22
			c9.27-5.34,18.56-10.66,27.83-16.01C151.6,799.6,156.03,796.59,161.12,795.16z M166.34,809.42
			c-13.91,7.66-27.55,15.83-41.38,23.63c-1.8,1.14-4.55,2.35-4.13,4.96c1.03,2.13,4.12,1.79,5.82,0.66
			c13.58-7.76,27.11-15.61,40.7-23.37c1.17-0.9,3.17-1.61,3.1-3.36C170.87,809.75,168.14,808.16,166.34,809.42z"/>
	</g>
	<g>
		<path class="st0" d="M959.27,810.05c23.34,9.94,46.63,19.99,69.94,29.99c-2.85,3.88-4.83,8.61-8.27,11.93
			c-5.93-2.69-11.62-5.89-17.42-8.83c-1.78,2.8-4.03,5.37-5.29,8.47c4.97,4.32,10.21,8.32,15.26,12.57
			c-2.6,4.01-5.21,8.01-7.82,12.01c-18.72-17.04-37.29-34.26-55.97-51.34C952.81,819.87,956.1,814.99,959.27,810.05z M962.82,823.01
			c8.82,7.13,17.64,14.29,26.68,21.16c1.28-2.04,2.58-4.06,3.88-6.08C983.12,833.2,973.3,827.39,962.82,823.01z"/>
	</g>
	<path class="st0" d="M942.18,837.03c19.78,15.25,39.43,30.66,59.16,45.97c-2.99,4.01-6.14,7.9-9.22,11.85
		c-9.45-7.42-18.99-14.7-28.39-22.18c-0.95,1.05-1.91,2.12-2.71,3.31c0.22,1.19,1.61,1.69,2.41,2.51
		c8.62,6.6,17.12,13.36,25.75,19.95c-2.9,3.99-6.01,7.84-9.09,11.7c-19.71-15.34-39.47-30.62-59.12-46.04
		c3.05-3.86,6.07-7.73,9.11-11.6c7.33,5.68,14.63,11.42,21.99,17.07c0.95-1.23,1.9-2.46,2.88-3.67
		c-7.33-5.7-14.65-11.39-21.96-17.09C936.04,844.88,939.16,840.99,942.18,837.03z"/>
	<path class="st0" d="M154.07,874.03c14.71-11.85,29.4-23.72,44.11-35.57c3.4,4.11,6.76,8.26,10.09,12.43
		c-15.75,12.73-31.54,25.43-47.3,38.15c-1.67,1.25-3.48,3.55-1.77,5.55c2.09,1.27,4.23-0.19,5.85-1.49
		c15.6-12.62,31.23-25.2,46.85-37.8c3.44,4.24,6.91,8.47,10.32,12.73c-14.76,11.96-29.56,23.89-44.36,35.8
		c-4.43,3.5-9.9,6.98-15.81,5.73c-5.7-1.37-9.85-6-13.15-10.57c-2.87-3.99-5.23-9.13-3.61-14.08
		C146.82,880.37,150.46,876.98,154.07,874.03z"/>
	<path class="st0" d="M169,921.81c17.92-17.4,35.97-34.66,53.99-51.96c4.76,4.86,9.47,9.77,14.24,14.61
		c-7.93,10.67-15.71,21.46-23.96,31.88c-2.96,3.94-6.75,7.18-9.57,11.23c1.93-1.32,3.57-2.98,5.15-4.67
		c10.63-11.58,22.2-22.26,33.6-33.07c2.62,2.76,5.27,5.49,7.91,8.24c-17.99,17.33-35.95,34.7-54.04,51.93
		c-3.97-4.23-8.06-8.34-12.07-12.53c8.5-11.91,16.92-23.89,25.43-35.8c2.94-4.22,6.63-7.85,9.45-12.15
		c-11.74,12.14-24.07,23.7-36.22,35.43c-1.94,1.59-3.48,4.09-5.82,4.97C174.18,927.44,171.75,924.45,169,921.81z"/>
	<g>
		<path class="st0" d="M912,874.96c3.33-3.08,7.86-5.68,12.55-4.45c5.21,1.41,8.63,5.94,12.66,9.22
			c4.37,4.15,10.12,7.86,11.53,14.12c1.29,6.39-3.4,11.7-7.16,16.26c7.22,6.44,14.38,12.97,21.66,19.35
			c-3.16,3.9-6.65,7.52-9.99,11.26c-18.58-16.73-37.33-33.27-55.76-50.15C902.44,885.48,906.85,879.87,912,874.96z M914.56,885.87
			c6.48,5.78,12.89,11.65,19.43,17.37c0.9-1.6,2.86-3.55,1.08-5.27c-4.85-4.82-9.99-9.43-15.31-13.73
			C917.86,882.51,916.06,884.85,914.56,885.87z"/>
	</g>
	<path class="st0" d="M201.06,955.04c17.05-18.22,34.13-36.43,51.18-54.66c3.67,3.4,7.41,6.75,10.97,10.28
		c-17.12,18.13-34.05,36.45-51.19,54.56C208.37,961.82,204.7,958.45,201.06,955.04z"/>
	<path class="st0" d="M223.94,975.64c14.24-20.67,28.59-41.27,42.92-61.87c3.36,2.81,6.65,5.7,9.96,8.56
		c-7.84,10.97-15.78,21.87-23.65,32.82c-3.87,5.34-8.05,10.49-11.42,16.17c14.79-13.61,29.38-27.46,44.02-41.24
		c2.58,2.16,5.01,4.5,7.65,6.6c11.53,7.17,22.42,15.35,33.62,23.05c-2.02,2.84-4.02,5.7-6.03,8.55
		c-6.32-4.32-12.56-8.75-18.86-13.09c-3.3,4.7-6.61,9.4-9.92,14.1c6.14,4.31,12.28,8.63,18.48,12.87c-2.01,2.94-4.07,5.86-6.1,8.8
		c-6.23-4.19-12.34-8.56-18.5-12.87c-4.87,6.78-9.68,13.6-14.4,20.49c6.29,4.34,12.57,8.7,18.81,13.11
		c-2.19,3.05-4.35,6.14-6.51,9.23c-10.39-7.23-20.83-14.41-31.14-21.76c13.64-19.45,27.39-38.82,40.95-58.33
		c-18.54,15.65-36.65,31.8-55.02,47.65C233.85,984.19,228.92,979.89,223.94,975.64z"/>
	<path class="st0" d="M824.93,951c10.36-7.25,20.74-14.48,31.12-21.71c2.02,2.86,4.05,5.73,6.05,8.61
		c-6.27,4.38-12.56,8.74-18.82,13.13c3.29,4.7,6.61,9.39,9.91,14.1c6.24-4.21,12.32-8.67,18.6-12.84c1.99,2.94,4.05,5.84,6.09,8.75
		c-6.16,4.31-12.34,8.59-18.49,12.91c4.81,6.79,9.52,13.66,14.42,20.4c6.22-4.39,12.51-8.67,18.69-13.11
		c2.29,3.05,4.48,6.17,6.58,9.36c-10.44,7.11-20.69,14.49-31.14,21.6C853.6,991.8,839.22,971.43,824.93,951z"/>
	<path class="st0" d="M907,935.91c0.89-0.59,1.58-1.99,2.8-1.81c2.46,2.13,4.49,4.71,6.77,7.04c-4.49,4.2-9.01,8.36-13.5,12.56
		c-2.38-2.5-4.75-5.01-7.08-7.54C899.67,942.76,903.35,939.35,907,935.91z"/>
	<path class="st0" d="M812.93,958.5c3.28-1.96,6.52-3.99,9.76-6.01c13.25,21.14,26.52,42.27,39.77,63.4c-5,3.05-9.87,6.3-14.97,9.18
		c-12.48-14.1-26.12-27.2-37.86-41.94c-0.69-0.79-1.41-1.5-2.14-2.19c11.13,16.13,21.34,32.88,31.59,49.58
		c-3.39,2.01-6.73,4.1-10.07,6.2c-13.29-21.08-26.4-42.27-39.79-63.27c5.65-3.84,11.61-7.21,17.31-10.97
		c8.22,9.1,16.36,18.28,24.39,27.55c4.06,4.46,7.06,9.75,11.13,14.19c-3.53-6.94-8.74-12.84-12.76-19.47
		C823.84,976,818.21,967.36,812.93,958.5z"/>
	<g>
		<path class="st0" d="M327.35,959.9c5.65,2.9,11.19,6,16.7,9.16c4.08,2.5,8.46,5.88,9.17,10.95c0.69,4.75-2.2,8.9-4.36,12.86
			c-2.05,3.42-4.16,7.28-7.95,9.03c-3.34,1.53-6.9-0.05-10.03-1.32c2.84,2.58,6.65,5.21,6.6,9.5c-0.19,4.83-3.28,8.81-5.42,12.96
			c-3.37,6.37-7.65,12.42-9.32,19.54c-4.45-2.28-8.85-4.67-13.12-7.26c2.93-9.49,8.93-17.56,13.2-26.43
			c1.49-2.44,0.55-5.27-1.63-6.85c-5.71,10.12-11.25,20.34-17.01,30.44c-4.35-2.45-8.73-4.85-13.1-7.26
			C303.15,1003.44,315.38,981.74,327.35,959.9z M325.98,993.64c1.99,0.33,4.62,1.49,5.83-0.88c2.51-4.15,5.06-8.35,7-12.8
			c1.03-2.2-1.45-3.46-2.7-4.74C332.72,981.35,329.18,987.41,325.98,993.64z"/>
	</g>
	<path class="st0" d="M774.54,980.57c4.42-2.36,8.92-4.59,13.4-6.84c11.34,22.23,22.85,44.38,34.03,66.7
		c-4.51,2.13-8.89,4.53-13.42,6.63C797.27,1024.87,785.93,1002.71,774.54,980.57z"/>
	<path class="st0" d="M359.38,984.37c5.12-3.09,11.6-1.99,16.76,0.44c4.61,2,9.21,5.31,10.41,10.49c1.99,7.74-3.39,14.55-6.06,21.4
		c-4.46-2.06-8.97-4.02-13.46-6c1.81-4.6,4.38-8.91,5.8-13.64c0.72-2.23-2.74-4.41-4.08-2.21c-2.84,3.99-5.84,9.19-4.11,14.22
		c2.15,6.83,4.66,13.55,6.65,20.44c1.6,5.93-1.74,11.48-3.94,16.76c-2.04,4.72-4.88,10.14-10.41,11.26
		c-7.66,1.27-15.77-1.94-21.06-7.51c-3.59-3.78-3.82-9.6-2.01-14.27c1.95-4.93,4.22-9.73,6.48-14.52c4.38,2.05,8.82,3.97,13.25,5.91
		c-2.04,5.01-4.67,9.78-6.44,14.88c-0.67,1.46,0.06,3.85,1.96,3.8c2.3,0.28,2.98-2.25,3.85-3.82c1.71-3.76,4.27-7.79,2.88-12.07
		c-1.89-6.85-4.41-13.52-6.29-20.37c-1.29-4.72,0.18-9.58,2.1-13.89C353.51,991.52,355.19,986.75,359.38,984.37z"/>
	<path class="st0" d="M744.88,996.96c2.56-6.08,9.07-9.08,15.03-10.83c4.43-1.49,9.68-0.55,12.99,2.87
		c4.51,4.66,6.69,10.94,9.35,16.74c-4.52,1.99-9.02,4-13.53,5.99c-2.14-4.42-3.74-9.11-6.21-13.36c-0.78-1.6-3.42-1.55-4.04,0.11
		c-0.98,1.73,0.19,3.59,0.82,5.24c6.23,13.79,12.36,27.63,18.55,41.44c0.86,1.74,1.81,4.09,4.14,4.1c1.4-0.78,2.1-2.7,1.48-4.17
		c-1.8-5.01-4.32-9.73-6.37-14.64c4.54-2,9.04-4.07,13.62-5.97c2.83,7.35,7.69,14.43,7.17,22.62c-0.55,5.58-5.49,9.29-10.22,11.45
		c-4.78,2.19-10.63,4.04-15.61,1.47c-4.8-2.66-7.21-7.89-9.44-12.63c-5.37-12-10.76-23.99-16.09-36.01
		C744.54,1006.92,742.81,1001.7,744.88,996.96z"/>
	<path class="st0" d="M394.19,994.53c4.75,1.66,9.42,3.52,14.12,5.32c-8.98,23.26-17.91,46.55-26.93,69.8
		c-4.65-1.83-9.33-3.6-13.99-5.38C376.28,1041.01,385.37,1017.82,394.19,994.53z"/>
	<path class="st0" d="M722.9,1002.98c4.68-1.76,9.34-3.58,14.02-5.35c8.99,23.25,17.91,46.53,26.91,69.77
		c-4.68,1.82-9.36,3.62-14.07,5.37C740.85,1049.49,731.82,1026.26,722.9,1002.98z"/>
	<path class="st0" d="M412.18,1001.1c10.86,3.49,21.71,6.99,32.55,10.53c-1.16,3.37-2.27,6.77-3.38,10.17
		c-3.09-1.02-6.19-2.02-9.29-2.99c-6.6,20.3-13.24,40.59-19.85,60.89c-4.69-1.52-9.37-3.06-14.07-4.52
		c6.5-20.36,13.25-40.63,19.81-60.96c-3.04-0.97-6.07-1.96-9.08-2.99C409.99,1007.86,411.1,1004.48,412.18,1001.1z"/>
	<g>
		<path class="st0" d="M688.79,1013.34c6.05-1.63,12.01-3.52,18.08-5.07c4.24-1.07,9.13-1.63,13.03,0.82
			c4.35,2.94,6.27,8.12,7.71,12.95c3.51,12.31,7.11,24.59,10.6,36.91c1.3,5.08,2.06,11.3-1.66,15.59
			c-3.77,4.23-9.52,5.66-14.75,7.19c-4.15,1.15-8.26,2.45-12.46,3.38C702.58,1061.16,695.47,1037.31,688.79,1013.34z
			 M705.73,1018.78c4.94,17.44,10.09,34.82,14.97,52.28c2.24-0.62,4.97-2.27,3.84-5.02c-4.14-14.96-8.49-29.89-12.87-44.78
			C711.17,1018.23,708.08,1018.45,705.73,1018.78z"/>
	</g>
	<path class="st0" d="M444.88,1012.1c4.96,1.11,9.92,2.21,14.85,3.47c-0.53,10.02-0.77,20.06-1.36,30.08
		c4.49-9,8.12-18.38,11.83-27.72c4.63,1,9.24,2.1,13.86,3.16c-7.41,13.91-14.98,27.75-22.34,41.69c-2.77,9.29-4.46,18.89-6.82,28.3
		c-5.17-1.15-10.34-2.29-15.47-3.58c2.1-9.19,4.46-18.34,6.29-27.58C445.74,1043.99,445.02,1028.04,444.88,1012.1z"/>
	<path class="st0" d="M648.69,1022.56c12.39-2.74,24.82-5.31,37.24-7.93c0.71,3.43,1.44,6.85,2.15,10.29
		c-7.49,1.59-15,3.14-22.48,4.78c1.22,5.59,2.42,11.19,3.57,16.81c7.38-1.47,14.72-3.09,22.09-4.65c0.8,3.49,1.55,6.98,2.26,10.5
		c-7.36,1.54-14.71,3.12-22.07,4.66c1.74,8.14,3.45,16.28,5.23,24.41c7.49-1.57,14.97-3.25,22.49-4.7c0.75,3.64,1.52,7.28,2.4,10.91
		c-12.34,2.88-24.8,5.19-37.14,8.03C658.98,1071.34,654.01,1046.91,648.69,1022.56z"/>
	<path class="st0" d="M627.18,1025.55c6.69-0.98,13.43-1.75,20.16-2.44c2.9,24.73,6.09,49.42,9.06,74.14
		c-4.45,0.51-8.89,1.11-13.34,1.56c-2.1-18.42-4.69-36.79-6.61-55.23c-0.44,18.81-1.65,37.6-2.44,56.4c-4.16,0.49-8.32,1-12.48,1.54
		c-4.08-13.15-8.06-26.33-12.09-39.49c-1.51-4.64-2.29-9.44-3.2-14.21c1.33,18.32,4.36,36.49,6.34,54.76
		c-3.98,0.52-7.97,1.02-11.97,1.35c-2.89-24.71-6.07-49.39-9.06-74.09c7.08-0.83,14.15-1.81,21.25-2.53
		c4.14,17.32,8.92,34.48,12.77,51.87c-0.11-15.75,0.83-31.49,1.11-47.23C626.82,1029.82,626.52,1027.6,627.18,1025.55z"/>
	<g>
		<path class="st0" d="M514.4,1025.52c6.93-1.06,14.59-0.3,20.61,3.54c5.1,3.43,5.66,10.23,5.14,15.82
			c-1.27,11.39-2.8,22.76-4.16,34.15c-0.91,6.43-0.97,13.47-4.88,18.98c-3.15,4.4-9.05,5.23-14.07,4.97
			c-5.73-0.39-12.11-1.52-16.16-5.97c-3.69-4.47-3.42-10.73-2.82-16.15c1.74-13.64,3.26-27.32,5.13-40.94
			C503.98,1033.62,507.51,1026.62,514.4,1025.52z M520.28,1036.52c-1.08,1.24-1.06,2.99-1.36,4.55
			c-1.81,14.96-3.67,29.92-5.53,44.88c-0.22,1.87-0.52,4.12,1.02,5.57c2.17,1.18,4.36-1.35,4.44-3.44
			c2.07-16.06,4.05-32.14,5.94-48.22C525.63,1037.24,522.54,1034.67,520.28,1036.52z"/>
	</g>
	<path class="st0" d="M543.37,1028.78c9.29,0.15,18.57,0.33,27.86,0.54c-0.09,3.47-0.15,6.95-0.18,10.43
		c-4.28-0.04-8.56-0.11-12.83-0.19c-0.11,5.75-0.21,11.5-0.31,17.26c4.13,0.04,8.26,0.11,12.4,0.18c-0.05,3.58-0.11,7.16-0.23,10.75
		c-4.13-0.09-8.26-0.16-12.38-0.21c-0.18,12.08-0.44,24.15-0.61,36.23c-5.01-0.05-10.02-0.16-15.02-0.2
		C542.45,1078.63,542.9,1053.7,543.37,1028.78z"/>
</g>
<g>
	<g>
		<path class="st1" d="M551.19,0h36.48c48.15,2.07,96.17,9.31,142.39,23.1c70.78,20.84,137.34,55.79,194.82,102.04
			c81.21,65.13,144.13,152.88,179.25,250.91c15.22,42.26,25.34,86.35,30.15,131.01c1.68,14.46,2.12,29.02,3.72,43.49v35.06
			c-2.07,24.83-3.51,49.75-7.76,74.34c-15.43,96.14-56.4,187.99-117.43,263.85c-45.68,57.03-102.4,105.21-166.17,140.92
			c-77.87,43.81-166.29,68.67-255.59,71.89c-10.65,0.65-21.33,1.21-32.01,0.67c-11.02-0.73-22.06-0.92-33.07-1.82
			c-27.2-2.06-54.27-6.01-80.9-11.97c-89.4-19.77-173.7-61.85-243.45-121.13C145.73,955.01,99.04,896.84,65.07,831.94
			C25.94,757.44,3.85,674.09,0.85,589.99c-1.35-23.64-0.16-47.33,1.72-70.9c2.86-33.46,8.73-66.66,17.48-99.08
			c20.24-75.22,56.37-146.08,105.13-206.82c39.46-49.2,87.08-91.87,140.42-125.55c63.84-40.45,135.87-67.92,210.47-80.13
			C500.91,3.33,526.04,1.17,551.19,0z M505.36,33.44c-4,4.47-4.2,10.87-3.7,16.53c1.35,16.05,2.75,32.1,4.13,48.14
			c0.63,6.01,1.53,12.64,5.91,17.2c5.11,4.82,12.81,4.66,19.32,3.7c5.6-0.79,11.66-3.47,13.91-9.04c3.45-8.94,0.88-18.65,0.54-27.89
			c-5.78,0.37-11.54,0.99-17.3,1.45c0.42,5.84,1.09,11.67,1.46,17.51c0.18,1.84-0.25,3.84-1.74,5.06c-2.58,1.48-4.24-1.79-4.31-3.95
			c-1.74-19.38-3.43-38.78-5-58.17c-0.86-3.12,3.69-6.45,5.45-2.92c1.55,5.9,1.26,12.15,2.03,18.19c5.74-0.53,11.47-1.02,17.21-1.52
			c-0.73-7.91-0.65-16.31-4.45-23.51c-2.66-4.95-8.39-7.36-13.82-7.29C518.06,26.82,510.15,27.87,505.36,33.44z M591.25,27.65
			c2.84,17.82,5.67,35.65,8.56,53.46c0.3,1.94,0.38,3.9,0.19,5.85c-0.93,10.19-1.78,20.39-2.66,30.58
			c6.14,0.6,12.29,1.11,18.44,1.65c1.09-11.22,1.72-22.5,3.05-33.69c6.18-17.97,12.91-35.77,19.26-53.68
			c-5.51-0.48-11.02-0.99-16.52-1.48c-2.81,11.6-5.43,23.27-9.18,34.62c-1.01-11.92-2.24-23.82-3.43-35.73
			C603.06,28.68,597.15,28.2,591.25,27.65z M451.5,36.57c-6.21,1.41-13.01,3.66-16.71,9.22c-3.5,5.59-2.49,12.61-1.1,18.7
			c3.72,15.18,7.46,30.37,11.19,45.55c1.47,5.76,3.55,11.94,8.5,15.63c5.27,3.65,12.17,2.98,18.07,1.54
			c5.59-1.47,11.56-3.74,14.91-8.74c3.45-5.49,2.45-12.39,1.11-18.39c-3.5-14.36-7.06-28.7-10.55-43.06
			c-1.52-6.09-3.05-12.65-7.61-17.26C464.64,35.2,457.47,35.28,451.5,36.57z M686.8,53.77c-7.21,24-14.47,47.98-21.65,71.99
			c4.94,1.54,9.89,3.07,14.83,4.61c6.11,1.89,12.75,4.13,19.11,2.06c6.17-2.23,9.19-8.73,11.11-14.54
			c4.18-13.63,8.21-27.3,12.36-40.93c1.9-6.25,3.95-13.04,1.9-19.52c-2.14-6.04-8.5-8.93-14.17-10.76
			c-6.47-1.93-12.86-4.19-19.39-5.89C689.19,45,688.2,49.45,686.8,53.77z M395.57,54.22c3.39,10.5,7.18,20.87,10.51,31.4
			c-1.72,0.57-3.44,1.12-5.15,1.69c-3.52-10.41-7.06-20.81-10.58-31.21c-5.47,1.91-10.95,3.79-16.39,5.75
			c9.51,28.03,19.06,56.05,28.5,84.1c5.51-1.8,10.96-3.79,16.44-5.69c-4.61-13.55-9.19-27.1-13.79-40.65
			c1.75-0.56,3.51-1.12,5.28-1.67c4.48,13.52,9.15,26.99,13.68,40.5c5.55-1.94,11.12-3.82,16.64-5.85
			c-9.56-28.02-19.04-56.08-28.56-84.12C406.62,50.39,401.12,52.37,395.57,54.22z M720.61,119.59c-2.19,5.44-4.24,11.36-3.06,17.29
			c1.21,5.28,5.74,8.97,10.37,11.3c5.27,2.61,11.39,4.75,17.3,3.15c6.31-1.96,9.72-8.25,12.28-13.88
			c7.72-18.29,15.33-36.63,23-54.94c2.67-0.22,5.56-0.56,7.56-2.57c4.54-4.15,6.17-10.32,8.63-15.75c-4.35-1.9-8.73-3.75-13.06-5.67
			c-1.18,2.73-2.35,5.46-3.53,8.19c2.48,1.19,4.99,2.3,7.55,3.35c-0.85,2.28-1.95,4.47-3.73,6.18c-0.07-0.67-0.21-2.02-0.29-2.69
			c-5.07-2.38-10.28-4.46-15.42-6.66c-9.17,21.94-18.36,43.87-27.5,65.81c-0.83,1.83-1.66,4.01-3.75,4.69
			c-2.04,0.79-3.6-1.61-3.18-3.4c0.51-2.59,1.71-4.96,2.71-7.39c8.72-20.68,17.25-41.45,26.04-62.11
			c-5.25-2.46-10.64-4.63-15.94-6.99C737.89,78.18,729.28,98.9,720.61,119.59z M313.62,90.93c13.75,26.19,27.42,52.42,41.2,78.59
			c5.13-2.82,10.32-5.55,15.44-8.4c-13.68-26.21-27.41-52.4-41.15-78.57C323.95,85.35,318.77,88.11,313.62,90.93z M802.7,87.74
			c-5.79,3.18-9.08,9.22-12.12,14.82c-7.04,12.96-14.16,25.87-21.17,38.85c-2.68,5.22-5.16,11.2-3.74,17.16
			c1.76,6.17,7.23,10.31,12.61,13.27c5.17,2.8,11.26,5.2,17.16,3.39c5.77-2.05,9.39-7.45,12.29-12.54
			c7.42-13.56,14.81-27.13,22.22-40.69c2.18-3.9,3.88-8.05,4.82-12.43c9.15,0,12.84-9.58,16.57-16.32
			c-4.16-2.31-8.29-4.66-12.45-6.97c-1.44,2.62-2.88,5.24-4.31,7.87c2.51,1.36,5,2.79,7.38,4.4c-1.8,2.52-4.26,4.41-7.23,5.31
			c-2.8-7.94-10.23-12.91-17.71-15.93C812.52,86.11,807.13,85.33,802.7,87.74z M267.85,117.83c-0.97,0.75-2.92,1.46-1.64,3.01
			c11.57,27.07,22.82,54.3,34.64,81.25c4.84-2.79,9.36-6.11,14.06-9.14c-3.51-7.07-6.98-14.15-10.49-21.22
			c3.24-2.18,6.51-4.33,9.78-6.48c4.9,6.18,9.79,12.35,14.68,18.53c4.75-3.12,9.47-6.31,14.27-9.36
			c-19.91-22.31-40.19-44.3-60.25-66.48C277.89,111.25,272.88,114.55,267.85,117.83z M851.76,131.74
			c-8.17,11.21-16.16,22.54-24.26,33.8c-3.33,4.73-7.05,9.3-9.31,14.69c-1.61,3.71-2.29,8.06-0.65,11.89
			c2.41,5.65,7.5,9.58,12.62,12.69c4.65,2.88,10.9,4.2,15.84,1.21c7.9-4.7,12.11-13.28,17.6-20.31c-4.64-3.49-9.36-6.86-13.97-10.37
			c-3.63,4.81-6.94,9.85-10.58,14.65c-1.2,1.71-3.73,2.93-5.6,1.55c-1.48-1.97-0.01-4.25,1.13-5.95
			c10.55-14.8,21.19-29.54,31.71-44.36c1.26-1.59,2.39-3.84,4.68-4.03c2.39-0.53,3.96,2.63,2.51,4.44
			c-2.93,4.87-6.6,9.26-9.76,13.98c4.68,3.43,9.32,6.93,14.03,10.32c4.33-6.37,9.67-12.42,11.62-20.05
			c1.37-5.27-0.81-10.88-4.71-14.49c-5.28-5.09-12.09-10.03-19.83-9.08C859.16,122.99,854.94,127.35,851.76,131.74z M464.95,132.24
			c0.5,4.47,1.16,8.92,1.76,13.37c5.08-0.7,10.16-1.45,15.25-2.14c-0.62-4.36-0.97-8.77-1.86-13.08
			C475.09,130.38,470,131.73,464.95,132.24z M540.5,145.78c-68.81,4.48-136.41,26.21-194.91,62.72
			c-57.64,35.78-106.46,85.6-141.07,143.95c-28.32,47.59-47.12,100.83-54.9,155.67c-7.24,50.75-5.3,102.81,5.86,152.85
			c16.1,72.82,52.13,141.04,102.93,195.61c46.39,50.12,105.05,88.78,169.46,111.49c56.88,20.14,118.1,27.73,178.19,22.48
			c79.5-6.71,156.8-36.77,220.07-85.35c59.7-45.57,107.02-107.22,135.3-176.82c37.58-91.51,41.33-196.31,10.74-290.37
			c-20.88-64.74-57.79-124.19-106.37-171.78c-50.96-50.17-114.81-87.17-183.78-106.13C636.1,147.38,588.03,142.63,540.5,145.78z
			 M221.02,151.95c-5.73,4.97-11.39,10.02-17.08,15.04c7.18,8.44,14.39,16.85,21.62,25.25c-1.14,1.18-2.7,2.1-3.44,3.59
			c2.13,2.92,4.67,5.5,6.96,8.29c1.3-1.07,2.61-2.13,3.92-3.2c9.42,11.1,18.96,22.1,28.37,33.22c5.37-4.52,10.59-9.23,15.85-13.89
			c4.09-3.8,8.2-8.42,8.72-14.22c0.38-6.12-3.21-11.54-6.94-16.04c-9.83-11.52-19.69-23.01-29.54-34.51
			c-3.82-4.27-8.4-8.69-14.35-9.43C229.76,145.57,224.96,148.68,221.02,151.95z M771.11,169.83c-2.38,3.77-4.81,7.51-7.2,11.28
			c4.31,2.87,8.61,5.72,12.96,8.53c2.39-3.79,4.84-7.53,7.19-11.34C779.72,175.5,775.46,172.6,771.11,169.83z M920.31,185.3
			c-11.49,11.87-22.79,23.92-34.2,35.86c-4.06,4.45-8.27,9.55-8.68,15.82c0,7.16,5.22,12.86,10.32,17.26
			c4.41,3.85,10.76,6.58,16.51,4.07c8.35-3.59,13.66-11.37,20-17.51c-3.98-4.26-8.26-8.21-12.39-12.32
			c-3.99,4.15-7.91,8.38-11.91,12.51c-1.43,1.56-3.72,2.86-5.78,1.68c-2.05-1.91-0.07-4.62,1.42-6.14
			c12.8-13.5,25.65-26.95,38.45-40.46c1.11-1.03,2.26-2.42,3.94-2.37c2.38-0.42,3.92,2.88,2.32,4.58c-3.6,4.49-7.9,8.36-11.74,12.65
			c4.16,4.05,8.28,8.14,12.44,12.19c5.18-5.54,11.11-10.79,14.17-17.89c2.26-5.23,0.79-11.37-2.78-15.63
			c-4.36-5.41-10.01-10.94-17.32-11.44C929.23,177.64,924.16,181.3,920.31,185.3z M319.22,197.36c2.26,3.83,4.19,7.85,6.69,11.53
			c4.55-2.34,8.87-5.12,13.28-7.72c-2.19-3.84-4.41-7.66-6.5-11.55C328.08,191.99,323.72,194.8,319.22,197.36z M152.45,218.45
			c-4.1,4.51-8,10.14-7.53,16.53c0.66,6.08,5.11,10.81,9.38,14.8c11.81,10.5,23.69,20.93,35.54,31.38c4.61,3.96,9.89,7.88,16.17,8.3
			c6.08,0.32,11.65-3.88,14.23-9.18c1.92-3.91,2.04-8.38,1.75-12.64c1.42,0.88,2.83,1.79,4.34,2.54c2.43-1.57,3.97-4.31,5.98-6.4
			c-11.07-9.99-22.34-19.75-33.49-29.65c-4.78,5.58-9.56,11.15-14.33,16.74c3.31,2.93,6.65,5.83,9.91,8.81
			c1.06-1.14,2.13-2.26,3.19-3.39c3.8,3.6,7.93,6.85,11.7,10.47c1.46,1.36,2.44,3.89,1.13,5.65c-2.08,1.55-4.47-0.36-6.06-1.72
			c-13.8-12.21-27.63-24.4-41.45-36.59c-1.53-1.31-3.04-3.05-2.58-5.23c0.78-1.96,3.24-2.41,4.76-1.03c4.39,3.45,8.4,7.37,12.64,11
			c3.66-4.39,7.59-8.56,11.08-13.08c-0.77-1.62-2.57-2.59-3.82-3.86c-5.09-4.28-9.92-9.87-16.89-10.77
			C161.94,210.29,156.4,214.12,152.45,218.45z M987.06,221.17c1.35,1.96,2.66,3.96,4.04,5.9c1.91,3.46,6.57,1.99,9.77,2.76
			c-0.68,2.76-1.37,5.52-2.09,8.27c1.74,2.66,3.56,5.28,5.45,7.85c1.85-5.14,3.98-10.18,5.66-15.38c-2.36-3.16-4.56-6.43-6.79-9.67
			C997.75,221,992.4,221.1,987.06,221.17z M1009.74,240.17c0.7,2.76,3.02,4.85,4.64,7.15c2.62-3.89,5.22-7.8,7.91-11.66
			c-2.44-3.65-4.95-7.25-7.46-10.85C1013.14,229.93,1011.19,234.97,1009.74,240.17z M907.45,270.85c3.47,4.47,6.86,9.02,10.42,13.43
			c6.66-4.12,13.26-8.33,19.94-12.41c2.25,3.09,4.82,5.96,6.92,9.17c-4.94,6.03-11.53,10.74-16.42,16.79
			c3.23,4.58,6.86,8.86,10.16,13.4c20.2-22.09,40.09-44.47,60-66.81c-4.32-5.41-8.47-10.94-12.7-16.41
			C959.65,242.26,933.54,256.54,907.45,270.85z M126.03,253.64c-2.38,3.91-4.88,7.75-7.1,11.75c14.83,9.08,29.15,18.99,44.39,27.38
			c3.18,1.98,6.9,3.34,9.36,6.29c-18.65-10.49-38.78-17.9-58.38-26.38c-4.21,6.87-8.41,13.75-12.69,20.57
			c24.72,15.86,49.59,31.49,74.36,47.26c2.47-4.05,5.04-8.05,7.39-12.17c-15.14-9.36-30.03-19.12-45.16-28.49
			c-4.44-2.71-9.15-4.97-13.41-7.96c3.18,1.09,6.15,2.68,9.17,4.12c7.11,3.49,14.58,6.13,21.92,9.09c11.28,4.39,22.48,9,33.81,13.25
			c3.46-5.89,7.11-11.67,10.7-17.47C175.66,285.05,150.82,269.39,126.03,253.64z M945.38,320.17c1.67,4.28,4.58,8.21,6.72,12.36
			c19.74-11.7,39.81-22.87,59.09-35.32c-4.58,4.49-10.21,7.73-14.93,12.07c-12.78,11.17-25.58,22.33-38.32,33.54
			c3.39,5.96,6.82,11.9,10.16,17.89c25.37-14.66,50.52-29.69,75.9-44.34c-2.03-4.12-4.44-8.03-6.69-12.02
			c-9.64,5.65-19.28,11.31-28.93,16.96c-8.72,4.85-16.6,11.11-25.44,15.75c2.35-3.03,6.09-4.42,9.03-6.78
			c14.25-10.44,27.37-22.33,41.06-33.48c-4-7.02-7.96-14.08-12.01-21.07C995.82,290.57,970.48,305.19,945.38,320.17z M74.7,313.09
			c2.6,1.47,5.24,2.87,7.94,4.15c1.25-2.47,2.52-4.93,3.81-7.37c2.82,1.58,4.83,4.13,5.54,7.32c-5.5,1.97-9.55,6.49-12.26,11.53
			c-2.93,5.4-5.51,11.63-4.16,17.88c1.55,6.27,7.17,10.32,12.49,13.33c13.38,7.27,26.79,14.48,40.19,21.72
			c5.11,2.71,10.68,5.43,16.63,4.95c6.26-0.65,10.76-5.78,13.74-10.89c3.14-5.52,5.96-11.83,4.89-18.32
			c-1.26-6.43-7.02-10.53-12.34-13.6c-13.58-7.42-27.25-14.71-40.85-22.1c-3.96-2.19-8.17-3.92-12.61-4.83
			c-0.05-9.09-9.55-12.74-16.2-16.53C79.07,304.49,76.96,308.83,74.7,313.09z M67.03,317.07c-2.25,3.79-4.41,7.63-6.58,11.47
			c5.46-0.58,10.91-1.18,16.36-1.81c1.38-2.42,2.76-4.85,4.15-7.26C76.32,318.65,71.67,317.9,67.03,317.07z M49.25,362.78
			c-1.38,4.59-2.97,9.1-4.26,13.71c2.8,0.93,5.62,1.82,8.46,2.62c0.8-2.64,1.63-5.27,2.47-7.89c2.27,0.76,4.43,1.81,6.43,3.15
			c-0.64,0.15-1.91,0.45-2.55,0.6c-2.12,5.29-3.5,10.86-5.37,16.25c22.36,7.39,44.71,14.78,67.08,22.12c1.9,0.7,4.24,1.41,4.9,3.6
			c0.93,2-1.69,3.64-3.44,3.26c-3.06-0.5-5.92-1.76-8.87-2.66c-20.52-6.76-41.04-13.54-61.56-20.31c-1.84,5.55-3.58,11.13-5.38,16.7
			c18.25,6.09,36.55,12.06,54.82,18.11c7.51,2.28,15.06,5.88,23.1,4.92c5.88-0.65,10.05-5.69,12.17-10.86
			c2.49-6.03,4.39-13.04,1.9-19.38c-2.51-5.79-8.67-8.64-14.25-10.7c-18.71-6.28-37.49-12.34-56.21-18.61
			c-0.44-2.55-0.9-5.3-2.9-7.13C61.35,365.92,55,364.58,49.25,362.78z M1054.39,366.87c1.24,3.58,2.54,7.14,3.73,10.74
			c-23.52,8.67-47.05,17.31-70.53,26.09c2.02,5.45,3.96,10.92,5.88,16.4c23.63-8.46,47.07-17.45,70.7-25.95
			c1.25,3.61,2.54,7.21,3.85,10.82c3.94-1.46,7.9-2.89,11.83-4.42c-4.62-12.65-9.11-25.34-13.67-38.02
			C1062.25,363.99,1058.33,365.45,1054.39,366.87z M1001.11,438.9c1.27,5.72,2.95,11.34,4.38,17.03
			c13.68-3.55,27.25-7.57,40.97-10.97c0.42,1.76,0.86,3.52,1.31,5.29c-13.6,3.67-27.18,7.42-40.79,11.06
			c1.4,5.79,2.99,11.53,4.52,17.28c28.19-7.68,56.36-15.41,84.58-22.99c-1.33-5.82-2.91-11.58-4.54-17.32
			c-10.44,2.96-20.94,5.74-31.41,8.58c-0.44-1.81-0.88-3.62-1.29-5.42c10.46-2.81,20.91-5.68,31.37-8.52
			c-1.48-5.65-3.01-11.3-4.47-16.95C1057.5,423.51,1029.35,431.36,1001.11,438.9z M46.27,437.32c-5.15,2.44-7.53,8.11-8.9,13.31
			c-1.86,7.57-3.22,15.26-4.93,22.87c28.55,6.18,57.07,12.49,85.67,18.41c1.54-5.7,2.5-11.55,3.74-17.33
			c-13.34-2.93-26.74-5.56-40.02-8.76c1.18-2.39,3.23-4.63,6.18-4.19c11.83,1.53,23.27,6.04,35.33,5.78
			c1.3-5.74,2.43-11.51,3.67-17.25c-8.52,0.48-16.73-2.16-24.99-3.77c-5.42-0.99-10.98-3.11-16.51-1.75
			c-4.81,1.38-6.73,6.49-8.19,10.76c-0.09-3.89,0.52-8.31-2.14-11.54c-3.18-3.88-8.4-4.92-13.02-6.08
			C57.01,436.67,51.32,434.91,46.27,437.32z M1034.92,485.21c-5.8,0.7-12.11,2.01-16.25,6.46c-4.35,4.95-4.46,12.06-3.83,18.27
			c0.67,6.12,2.33,12.93,7.59,16.75c4.83,3.19,10.96,3.16,16.53,2.71c11.72-1.23,23.43-2.51,35.15-3.75
			c7.89-0.98,16.09-1.02,23.49-4.28c4.94,7.62,15,5.21,22.56,4.45c-0.5-4.8-0.95-9.61-1.56-14.4c-2.9,0.34-5.8,0.66-8.68,0.97
			c0.21,2.83,0.48,5.66,0.76,8.49c-3.21,0.19-6.22-0.82-8.63-2.92c2.86-4.05,4.19-9.03,3.94-13.97c-0.24-6.65-1.19-13.95-5.78-19.11
			c-4.59-4.97-11.96-5.14-18.22-4.67C1066.29,481.82,1050.61,483.54,1034.92,485.21z M29.96,489.24c-1.56,13.4-3.29,26.79-4.81,40.2
			c4.15,0.5,8.3,1.04,12.46,1.51c0.44-3.75,0.9-7.49,1.34-11.23c24.87,3.07,49.72,6.29,74.6,9.23c0.65-5.8,1.37-11.59,2.08-17.39
			c-24.84-3.08-49.66-6.25-74.51-9.24c0.39-3.86,0.87-7.72,1.33-11.57C38.29,490.24,34.13,489.7,29.96,489.24z M67.17,537.75
			c-0.05,6.16-0.03,12.32-0.02,18.49c-7.04,2.28-14.13,4.41-21.17,6.68c6.99,2.49,14.13,4.5,21.17,6.84
			c-0.01,6.15-0.02,12.31,0.01,18.46c3.85-4.89,7.58-9.86,11.42-14.75c6.41,1.9,12.82,3.78,19.26,5.57
			c-3.67-5.37-7.4-10.7-11.08-16.07c3.67-5.36,7.39-10.7,11.07-16.05c-6.43,1.79-12.83,3.67-19.21,5.63
			C74.73,547.67,71.05,542.63,67.17,537.75z M1058.36,557.6c-6.39-1.92-12.79-3.85-19.23-5.58c3.72,5.32,7.39,10.67,11.08,16.02
			c-3.69,5.34-7.38,10.68-11.07,16.01c6.43-1.72,12.81-3.61,19.18-5.51c3.94,4.79,7.53,9.85,11.48,14.64
			c0.04-6.13,0.01-12.25,0.03-18.37c6.66-2.2,13.41-4.15,20.05-6.42c-0.02-0.18-0.05-0.55-0.07-0.73
			c-6.61-2.31-13.39-4.12-20.01-6.38c0.04-6.16,0.02-12.31,0.01-18.46C1065.92,547.69,1062.24,552.72,1058.36,557.6z
			 M1023.31,617.35c9.61,2.53,19.37,4.57,28.79,7.8c-10.04,0.89-20.05,1.94-30.08,2.91c-0.44,5.04-0.88,10.09-1.32,15.13
			c15.79-2.47,31.54-5.26,47.35-7.54c9.51,0.45,18.98,1.71,28.5,2.29c0.39-5.23,0.89-10.44,1.33-15.66
			c-9.52-0.99-19.1-1.41-28.58-2.67c-15.07-5.25-30.02-10.91-45.02-16.38C1023.99,607.92,1022.87,612.72,1023.31,617.35z
			 M57.94,614.48c-5.24,0.88-11.26,2.18-14.43,6.9c-2.88,4.83-2.3,10.84-1.15,16.11c1.02,4.56,3.64,9.3,8.36,10.81
			c7.61,2.39,15.53-0.19,23.2-0.86c-0.54-4.91-1.33-9.79-1.98-14.68c-5.35,0.63-10.65,1.74-16.02,2.07
			c-1.56,0.06-3.61-1.12-3.36-2.88c0.9-2.09,3.39-2.23,5.32-2.58c15.73-2.11,31.43-4.52,47.18-6.5c2.55-0.76,5.24,2.97,2.46,4.52
			c-4.9,1.52-10.14,1.62-15.18,2.49c0.63,4.91,1.3,9.81,2.1,14.7c6.95-1.27,14.67-1.3,20.57-5.7c4.19-3.21,4.89-8.96,4.28-13.86
			c-0.44-5.63-2.41-11.87-7.59-14.84c-5.15-2.98-11.31-1.61-16.86-0.89C82.55,611.04,70.23,612.69,57.94,614.48z M1016.25,655.02
			c-1.78,5.76-2.81,12.66,0.81,17.94c2.77,4.16,7.86,5.66,12.51,6.58c13.3,2.63,26.62,5.17,39.93,7.75
			c5.13,0.85,10.91,1.69,15.62-1.11c4.94-3.34,6.52-9.65,7.21-15.24c0.72-5.11-0.61-11.08-5.32-13.91
			c-6.41-3.94-14.17-4.39-21.36-5.89c-0.87,4.83-1.94,9.62-2.69,14.47c5.17,1.07,10.41,1.81,15.54,3.09
			c2.22,0.39,3.92,4.04,1.07,4.82c-3.87,0.54-7.71-1.05-11.53-1.56c-13.3-2.67-26.69-4.97-39.94-7.86
			c-2.91-0.22-3.49-5.03-0.23-5.03c5.02,0.32,9.88,1.87,14.87,2.51c0.84-4.84,1.86-9.64,2.73-14.48
			c-6.74-1.02-13.66-3.28-20.47-1.59C1020.53,646.69,1017.44,650.71,1016.25,655.02z M46.81,658.58c1.08,4.64,1.2,9.6,2.85,14.06
			c6.57-0.23,13.13-0.85,19.7-1.17c0.57,3.25,1.14,6.5,1.74,9.75c-6.34,2.03-12.91,3.36-19.15,5.66c0.53,4.76,1.62,9.43,2.4,14.15
			c23.89-8.43,47.72-17.06,71.62-25.45c-0.86-5.83-2-11.6-2.99-17.41C97.59,658.32,72.2,658.41,46.81,658.58z M56.15,706.87
			c1.14,3.83,2.29,7.66,3.62,11.44c13.91-4.39,27.91-8.5,41.84-12.82c4.59-1.43,9.01-3.41,13.72-4.49
			c-18.05,7.98-35.21,17.81-52.77,26.8c1.71,5.55,3.41,11.11,5.13,16.66c21.44-6.37,42.71-13.4,64.27-19.31
			c-1.1,0.34-2.2,0.67-3.3,1c1.14,3,2.35,5.98,3.59,8.96c-19.83,8.07-39.71,16.03-59.59,24c1.77,4.59,3.71,9.11,5.48,13.7
			c19.94-7.88,39.77-16.03,59.69-23.93c1.21,3.01,2.43,6.01,3.69,9c3.29-1.36,6.6-2.71,9.92-4c-3.8-9.6-7.81-19.1-11.59-28.7
			c-1.1-4.57-2.22-9.13-3.75-13.58c-10.13,2.99-20.23,6.12-30.33,9.2c-7.13,2.16-13.95,5.3-21.2,7.08c0.47-0.3,1.4-0.89,1.87-1.18
			c16.47-5.9,31.7-14.64,47.47-22.1c-1.94-6.55-3.98-13.06-5.99-19.58C103.99,692.28,80.07,699.58,56.15,706.87z M1011.42,687.23
			c-1.72,5.63-3.54,11.24-5.12,16.92c22.72,11.21,45.28,22.75,68.02,33.92c1.38-4.54,2.75-9.08,4.2-13.6
			c-6.11-2.79-12.33-5.31-18.45-8.06c0.99-3.15,1.97-6.3,2.95-9.46c6.55,1.26,13.09,2.57,19.65,3.85c1.41-4.66,2.93-9.28,4.22-13.98
			C1061.72,693.72,1036.58,690.39,1011.42,687.23z M1003.17,716.45c-2.42,6.32-5.05,12.57-7.59,18.84
			c15.45,9.07,30.72,18.49,46.39,27.18c-17.03-4.97-34.26-9.29-51.4-13.83c-3.43,6.13-5.44,13.11-8.33,19.58
			c23.21,9.32,46.4,18.68,69.61,27.99c1.48-3.69,2.98-7.38,4.48-11.05c-17.19-7.09-34.63-13.6-51.66-21.04
			c4.46,1.31,8.86,2.91,13.44,3.86c13.85,3,27.72,5.94,41.59,8.87c1.58-3.87,3.14-7.75,4.7-11.64
			c-8.41-5.14-16.78-10.31-25.17-15.48c-7.71-4.69-15.24-9.72-23.37-13.68c17.46,6.54,34.64,13.86,51.98,20.71
			c1.67-4.1,3.31-8.22,5.05-12.29C1049.7,735.01,1026.47,725.62,1003.17,716.45z M84.3,788.74c2.06,4.44,4.15,8.87,6.2,13.32
			c11.07-4.87,21.89-10.29,32.98-15.1c0.62,1.37,1.24,2.75,1.87,4.14c-10.9,5.09-21.79,10.22-32.76,15.17
			c1.99,4.61,4.16,9.14,6.34,13.67c22.65-10.52,45.27-21.1,67.95-31.52c-1.97-4.58-4.2-9.04-6.25-13.58
			c-8.55,3.72-16.9,7.89-25.43,11.66c-0.6-1.47-1.2-2.92-1.79-4.36c8.45-3.78,16.82-7.72,25.19-11.67
			c-2.14-4.43-4.19-8.89-6.3-13.32C129.64,767.69,106.95,778.18,84.3,788.74z M974.36,783.39c-3.01,5.41-5.87,10.92-8.79,16.38
			c22.12,11.68,44.18,23.46,66.33,35.08c2.29-4.42,4.64-8.8,7-13.19c-10.3-5.58-20.77-10.84-31-16.55c1.65-1.47,3.79-3.07,6.1-1.88
			c9.45,3.91,17.8,10.4,27.84,12.93c2.31-4.36,4.64-8.7,6.97-13.05c-7.42-1.72-13.83-5.98-20.55-9.37
			c-3.94-1.98-7.79-4.68-12.34-4.84c-4.05-0.04-6.68,3.46-8.99,6.29c0.75-3.13,2.13-6.57,0.57-9.68c-2.07-3.92-6.25-5.96-9.94-8.04
			c-3.84-2.04-8.02-4.58-12.56-3.64C980.02,774.84,976.77,779.25,974.36,783.39z M161.12,795.16c-5.09,1.43-9.52,4.44-14.09,6.99
			c-9.27,5.35-18.56,10.67-27.83,16.01c-4.21,2.5-8.6,5.52-10.53,10.22c-1.96,5.4,0.39,11.13,3.08,15.83
			c2.6,4.36,6.09,8.89,11.29,10.12c5.12,1,10.13-1.3,14.52-3.71c10.61-6.06,21.18-12.19,31.78-18.26c4.71-2.7,9.81-5.53,12.58-10.41
			c2.41-4.38,1.12-9.67-0.91-13.93c-2.19-4.49-4.98-8.97-9.27-11.71C168.62,794.24,164.62,794.13,161.12,795.16z M959.27,810.05
			c-3.17,4.94-6.46,9.82-9.57,14.8c18.68,17.08,37.25,34.3,55.97,51.34c2.61-4,5.22-8,7.82-12.01c-5.05-4.25-10.29-8.25-15.26-12.57
			c1.26-3.1,3.51-5.67,5.29-8.47c5.8,2.94,11.49,6.14,17.42,8.83c3.44-3.32,5.42-8.05,8.27-11.93
			C1005.9,830.04,982.61,819.99,959.27,810.05z M942.18,837.03c-3.02,3.96-6.14,7.85-9.19,11.78c7.31,5.7,14.63,11.39,21.96,17.09
			c-0.98,1.21-1.93,2.44-2.88,3.67c-7.36-5.65-14.66-11.39-21.99-17.07c-3.04,3.87-6.06,7.74-9.11,11.6
			c19.65,15.42,39.41,30.7,59.12,46.04c3.08-3.86,6.19-7.71,9.09-11.7c-8.63-6.59-17.13-13.35-25.75-19.95
			c-0.8-0.82-2.19-1.32-2.41-2.51c0.8-1.19,1.76-2.26,2.71-3.31c9.4,7.48,18.94,14.76,28.39,22.18c3.08-3.95,6.23-7.84,9.22-11.85
			C981.61,867.69,961.96,852.28,942.18,837.03z M154.07,874.03c-3.61,2.95-7.25,6.34-8.78,10.88c-1.62,4.95,0.74,10.09,3.61,14.08
			c3.3,4.57,7.45,9.2,13.15,10.57c5.91,1.25,11.38-2.23,15.81-5.73c14.8-11.91,29.6-23.84,44.36-35.8
			c-3.41-4.26-6.88-8.49-10.32-12.73c-15.62,12.6-31.25,25.18-46.85,37.8c-1.62,1.3-3.76,2.76-5.85,1.49c-1.71-2,0.1-4.3,1.77-5.55
			c15.76-12.72,31.55-25.42,47.3-38.15c-3.33-4.17-6.69-8.32-10.09-12.43C183.47,850.31,168.78,862.18,154.07,874.03z M169,921.81
			c2.75,2.64,5.18,5.63,8.09,8.11c2.34-0.88,3.88-3.38,5.82-4.97c12.15-11.73,24.48-23.29,36.22-35.43
			c-2.82,4.3-6.51,7.93-9.45,12.15c-8.51,11.91-16.93,23.89-25.43,35.8c4.01,4.19,8.1,8.3,12.07,12.53
			c18.09-17.23,36.05-34.6,54.04-51.93c-2.64-2.75-5.29-5.48-7.91-8.24c-11.4,10.81-22.97,21.49-33.6,33.07
			c-1.58,1.69-3.22,3.35-5.15,4.67c2.82-4.05,6.61-7.29,9.57-11.23c8.25-10.42,16.03-21.21,23.96-31.88
			c-4.77-4.84-9.48-9.75-14.24-14.61C204.97,887.15,186.92,904.41,169,921.81z M912,874.96c-5.15,4.91-9.56,10.52-14.51,15.61
			c18.43,16.88,37.18,33.42,55.76,50.15c3.34-3.74,6.83-7.36,9.99-11.26c-7.28-6.38-14.44-12.91-21.66-19.35
			c3.76-4.56,8.45-9.87,7.16-16.26c-1.41-6.26-7.16-9.97-11.53-14.12c-4.03-3.28-7.45-7.81-12.66-9.22
			C919.86,869.28,915.33,871.88,912,874.96z M201.06,955.04c3.64,3.41,7.31,6.78,10.96,10.18c17.14-18.11,34.07-36.43,51.19-54.56
			c-3.56-3.53-7.3-6.88-10.97-10.28C235.19,918.61,218.11,936.82,201.06,955.04z M223.94,975.64c4.98,4.25,9.91,8.55,14.86,12.84
			c18.37-15.85,36.48-32,55.02-47.65c-13.56,19.51-27.31,38.88-40.95,58.33c10.31,7.35,20.75,14.53,31.14,21.76
			c2.16-3.09,4.32-6.18,6.51-9.23c-6.24-4.41-12.52-8.77-18.81-13.11c4.72-6.89,9.53-13.71,14.4-20.49
			c6.16,4.31,12.27,8.68,18.5,12.87c2.03-2.94,4.09-5.86,6.1-8.8c-6.2-4.24-12.34-8.56-18.48-12.87c3.31-4.7,6.62-9.4,9.92-14.1
			c6.3,4.34,12.54,8.77,18.86,13.09c2.01-2.85,4.01-5.71,6.03-8.55c-11.2-7.7-22.09-15.88-33.62-23.05c-2.64-2.1-5.07-4.44-7.65-6.6
			c-14.64,13.78-29.23,27.63-44.02,41.24c3.37-5.68,7.55-10.83,11.42-16.17c7.87-10.95,15.81-21.85,23.65-32.82
			c-3.31-2.86-6.6-5.75-9.96-8.56C252.53,934.37,238.18,954.97,223.94,975.64z M824.93,951c14.29,20.43,28.67,40.8,43.01,61.2
			c10.45-7.11,20.7-14.49,31.14-21.6c-2.1-3.19-4.29-6.31-6.58-9.36c-6.18,4.44-12.47,8.72-18.69,13.11
			c-4.9-6.74-9.61-13.61-14.42-20.4c6.15-4.32,12.33-8.6,18.49-12.91c-2.04-2.91-4.1-5.81-6.09-8.75
			c-6.28,4.17-12.36,8.63-18.6,12.84c-3.3-4.71-6.62-9.4-9.91-14.1c6.26-4.39,12.55-8.75,18.82-13.13c-2-2.88-4.03-5.75-6.05-8.61
			C845.67,936.52,835.29,943.75,824.93,951z M907,935.91c-3.65,3.44-7.33,6.85-11.01,10.25c2.33,2.53,4.7,5.04,7.08,7.54
			c4.49-4.2,9.01-8.36,13.5-12.56c-2.28-2.33-4.31-4.91-6.77-7.04C908.58,933.92,907.89,935.32,907,935.91z M812.93,958.5
			c5.28,8.86,10.91,17.5,16.36,26.25c4.02,6.63,9.23,12.53,12.76,19.47c-4.07-4.44-7.07-9.73-11.13-14.19
			c-8.03-9.27-16.17-18.45-24.39-27.55c-5.7,3.76-11.66,7.13-17.31,10.97c13.39,21,26.5,42.19,39.79,63.27
			c3.34-2.1,6.68-4.19,10.07-6.2c-10.25-16.7-20.46-33.45-31.59-49.58c0.73,0.69,1.45,1.4,2.14,2.19
			c11.74,14.74,25.38,27.84,37.86,41.94c5.1-2.88,9.97-6.13,14.97-9.18c-13.25-21.13-26.52-42.26-39.77-63.4
			C819.45,954.51,816.21,956.54,812.93,958.5z M327.35,959.9c-11.97,21.84-24.2,43.54-36.27,65.32c4.37,2.41,8.75,4.81,13.1,7.26
			c5.76-10.1,11.3-20.32,17.01-30.44c2.18,1.58,3.12,4.41,1.63,6.85c-4.27,8.87-10.27,16.94-13.2,26.43
			c4.27,2.59,8.67,4.98,13.12,7.26c1.67-7.12,5.95-13.17,9.32-19.54c2.14-4.15,5.23-8.13,5.42-12.96c0.05-4.29-3.76-6.92-6.6-9.5
			c3.13,1.27,6.69,2.85,10.03,1.32c3.79-1.75,5.9-5.61,7.95-9.03c2.16-3.96,5.05-8.11,4.36-12.86c-0.71-5.07-5.09-8.45-9.17-10.95
			C338.54,965.9,333,962.8,327.35,959.9z M774.54,980.57c11.39,22.14,22.73,44.3,34.01,66.49c4.53-2.1,8.91-4.5,13.42-6.63
			c-11.18-22.32-22.69-44.47-34.03-66.7C783.46,975.98,778.96,978.21,774.54,980.57z M359.38,984.37c-4.19,2.38-5.87,7.15-7.72,11.3
			c-1.92,4.31-3.39,9.17-2.1,13.89c1.88,6.85,4.4,13.52,6.29,20.37c1.39,4.28-1.17,8.31-2.88,12.07c-0.87,1.57-1.55,4.1-3.85,3.82
			c-1.9,0.05-2.63-2.34-1.96-3.8c1.77-5.1,4.4-9.87,6.44-14.88c-4.43-1.94-8.87-3.86-13.25-5.91c-2.26,4.79-4.53,9.59-6.48,14.52
			c-1.81,4.67-1.58,10.49,2.01,14.27c5.29,5.57,13.4,8.78,21.06,7.51c5.53-1.12,8.37-6.54,10.41-11.26
			c2.2-5.28,5.54-10.83,3.94-16.76c-1.99-6.89-4.5-13.61-6.65-20.44c-1.73-5.03,1.27-10.23,4.11-14.22c1.34-2.2,4.8-0.02,4.08,2.21
			c-1.42,4.73-3.99,9.04-5.8,13.64c4.49,1.98,9,3.94,13.46,6c2.67-6.85,8.05-13.66,6.06-21.4c-1.2-5.18-5.8-8.49-10.41-10.49
			C370.98,982.38,364.5,981.28,359.38,984.37z M744.88,996.96c-2.07,4.74-0.34,9.96,1.64,14.42c5.33,12.02,10.72,24.01,16.09,36.01
			c2.23,4.74,4.64,9.97,9.44,12.63c4.98,2.57,10.83,0.72,15.61-1.47c4.73-2.16,9.67-5.87,10.22-11.45
			c0.52-8.19-4.34-15.27-7.17-22.62c-4.58,1.9-9.08,3.97-13.62,5.97c2.05,4.91,4.57,9.63,6.37,14.64c0.62,1.47-0.08,3.39-1.48,4.17
			c-2.33-0.01-3.28-2.36-4.14-4.1c-6.19-13.81-12.32-27.65-18.55-41.44c-0.63-1.65-1.8-3.51-0.82-5.24
			c0.62-1.66,3.26-1.71,4.04-0.11c2.47,4.25,4.07,8.94,6.21,13.36c4.51-1.99,9.01-4,13.53-5.99c-2.66-5.8-4.84-12.08-9.35-16.74
			c-3.31-3.42-8.56-4.36-12.99-2.87C753.95,987.88,747.44,990.88,744.88,996.96z M394.19,994.53c-8.82,23.29-17.91,46.48-26.8,69.74
			c4.66,1.78,9.34,3.55,13.99,5.38c9.02-23.25,17.95-46.54,26.93-69.8C403.61,998.05,398.94,996.19,394.19,994.53z M722.9,1002.98
			c8.92,23.28,17.95,46.51,26.86,69.79c4.71-1.75,9.39-3.55,14.07-5.37c-9-23.24-17.92-46.52-26.91-69.77
			C732.24,999.4,727.58,1001.22,722.9,1002.98z M412.18,1001.1c-1.08,3.38-2.19,6.76-3.31,10.13c3.01,1.03,6.04,2.02,9.08,2.99
			c-6.56,20.33-13.31,40.6-19.81,60.96c4.7,1.46,9.38,3,14.07,4.52c6.61-20.3,13.25-40.59,19.85-60.89c3.1,0.97,6.2,1.97,9.29,2.99
			c1.11-3.4,2.22-6.8,3.38-10.17C433.89,1008.09,423.04,1004.59,412.18,1001.1z M688.79,1013.34c6.68,23.97,13.79,47.82,20.55,71.77
			c4.2-0.93,8.31-2.23,12.46-3.38c5.23-1.53,10.98-2.96,14.75-7.19c3.72-4.29,2.96-10.51,1.66-15.59
			c-3.49-12.32-7.09-24.6-10.6-36.91c-1.44-4.83-3.36-10.01-7.71-12.95c-3.9-2.45-8.79-1.89-13.03-0.82
			C700.8,1009.82,694.84,1011.71,688.79,1013.34z M444.88,1012.1c0.14,15.94,0.86,31.89,0.84,47.82
			c-1.83,9.24-4.19,18.39-6.29,27.58c5.13,1.29,10.3,2.43,15.47,3.58c2.36-9.41,4.05-19.01,6.82-28.3
			c7.36-13.94,14.93-27.78,22.34-41.69c-4.62-1.06-9.23-2.16-13.86-3.16c-3.71,9.34-7.34,18.72-11.83,27.72
			c0.59-10.02,0.83-20.06,1.36-30.08C454.8,1014.31,449.84,1013.21,444.88,1012.1z M648.69,1022.56
			c5.32,24.35,10.29,48.78,15.74,73.11c12.34-2.84,24.8-5.15,37.14-8.03c-0.88-3.63-1.65-7.27-2.4-10.91
			c-7.52,1.45-15,3.13-22.49,4.7c-1.78-8.13-3.49-16.27-5.23-24.41c7.36-1.54,14.71-3.12,22.07-4.66c-0.71-3.52-1.46-7.01-2.26-10.5
			c-7.37,1.56-14.71,3.18-22.09,4.65c-1.15-5.62-2.35-11.22-3.57-16.81c7.48-1.64,14.99-3.19,22.48-4.78
			c-0.71-3.44-1.44-6.86-2.15-10.29C673.51,1017.25,661.08,1019.82,648.69,1022.56z M627.18,1025.55c-0.66,2.05-0.36,4.27-0.5,6.4
			c-0.28,15.74-1.22,31.48-1.11,47.23c-3.85-17.39-8.63-34.55-12.77-51.87c-7.1,0.72-14.17,1.7-21.25,2.53
			c2.99,24.7,6.17,49.38,9.06,74.09c4-0.33,7.99-0.83,11.97-1.35c-1.98-18.27-5.01-36.44-6.34-54.76c0.91,4.77,1.69,9.57,3.2,14.21
			c4.03,13.16,8.01,26.34,12.09,39.49c4.16-0.54,8.32-1.05,12.48-1.54c0.79-18.8,2-37.59,2.44-56.4
			c1.92,18.44,4.51,36.81,6.61,55.23c4.45-0.45,8.89-1.05,13.34-1.56c-2.97-24.72-6.16-49.41-9.06-74.14
			C640.61,1023.8,633.87,1024.57,627.18,1025.55z M514.4,1025.52c-6.89,1.1-10.42,8.1-11.21,14.4c-1.87,13.62-3.39,27.3-5.13,40.94
			c-0.6,5.42-0.87,11.68,2.82,16.15c4.05,4.45,10.43,5.58,16.16,5.97c5.02,0.26,10.92-0.57,14.07-4.97
			c3.91-5.51,3.97-12.55,4.88-18.98c1.36-11.39,2.89-22.76,4.16-34.15c0.52-5.59-0.04-12.39-5.14-15.82
			C528.99,1025.22,521.33,1024.46,514.4,1025.52z M543.37,1028.78c-0.47,24.92-0.92,49.85-1.3,74.79c5,0.04,10.01,0.15,15.02,0.2
			c0.17-12.08,0.43-24.15,0.61-36.23c4.12,0.05,8.25,0.12,12.38,0.21c0.12-3.59,0.18-7.17,0.23-10.75
			c-4.14-0.07-8.27-0.14-12.4-0.18c0.1-5.76,0.2-11.51,0.31-17.26c4.27,0.08,8.55,0.15,12.83,0.19c0.03-3.48,0.09-6.96,0.18-10.43
			C561.94,1029.11,552.66,1028.93,543.37,1028.78z"/>
	</g>
	<path class="st1" d="M451.21,49.99c2.33-1.77,5.3,0.26,5.56,2.87c4.59,18.39,9.06,36.82,13.59,55.22c0.78,2.35,0.34,5.72-2.32,6.61
		c-2.49-0.06-3.62-2.57-4.08-4.66c-4.45-18.03-8.84-36.08-13.31-54.12C450.32,53.99,449.4,51.48,451.21,49.99z"/>
	<path class="st1" d="M685.29,119.22c6.07-20.72,12.44-41.36,18.61-62.05c2.44,0.89,5.71,2.56,4.39,5.75
		c-4.48,15.8-9.45,31.48-14.1,47.23c-0.89,2.71-1.37,5.62-2.9,8.06C689.85,120.09,687.24,119.08,685.29,119.22z"/>
	<path class="st1" d="M813.34,101.32c2.85-1.2,5.58,2.36,3.94,4.9c-8.71,16.53-17.93,32.81-26.75,49.28
		c-1.17,2.19-2.65,4.97-5.53,4.89c-1.73,0.31-2.61-1.93-2.38-3.31c0.5-2.6,2.03-4.82,3.25-7.13c8.28-15.11,16.52-30.24,24.77-45.37
		C811.39,103.41,812.04,101.99,813.34,101.32z"/>
	<path class="st1" d="M280.51,123.94c4.34,3.93,7.62,8.83,11.27,13.37c4.72,5.86,9.39,11.74,14.11,17.59
		c-2.38,1.6-4.77,3.18-7.15,4.77C292.59,147.8,286.53,135.87,280.51,123.94z"/>
	<path class="st1" d="M225.02,164.99c1.27-2.65,5.77-5.41,8.03-2.09c11.08,12.61,21.84,25.5,32.84,38.18
		c1.62,2.13,4.16,4.01,4.26,6.9c-0.38,2.33-2.4,3.77-3.93,5.36c-6.75-8.03-13.71-15.86-20.38-23.95c1.25-1.08,2.49-2.16,3.74-3.24
		c-2.42-2.87-4.84-5.73-7.41-8.46c-1.24,1.08-2.48,2.15-3.71,3.23C234.06,175.54,229.26,170.48,225.02,164.99z"/>
	<path class="st1" d="M949.1,265.01c11.07-7.18,22.19-14.27,33.25-21.44c-2.73,4.11-6.56,7.29-10.07,10.71
		c-6.01,5.83-11.93,11.75-17.92,17.59C952.59,269.59,950.84,267.3,949.1,265.01z"/>
	<path class="st1" d="M91.41,334.63c1.64-0.9,3.42,0.08,4.92,0.8c16.08,8.69,32.16,17.4,48.27,26.04c1.89,0.95,3.84,2.41,4.02,4.71
		c0.38,1.49-1.07,2.85-2.52,2.78c-2.17,0.12-4.03-1.22-5.9-2.12c-15.98-8.74-32.08-17.25-48.04-26.03
		C89.52,339.85,88.82,336.05,91.41,334.63z"/>
	<g>
		<path class="st1" d="M763.45,335.63c11.1-1.55,22.35-1.82,33.55-1.66c13.97,0.89,27.24,6.52,39.04,13.82
			c30.27,19.02,52.84,49.37,63.87,83.25c10.43,31.78,9.71,66.66-0.25,98.46c-8.96,28.55-23.95,55.1-42.95,78.16
			c-19.81,24.11-45.22,43.42-73.38,56.77c-38.57,18.44-81.29,25.51-123.48,29.75c-0.2-10.31-0.4-20.64,0.1-30.94
			c35.91-6.13,72.81-10.61,106.19-26.12c28.24-12.7,52.54-33.43,70.56-58.53c15.7-22.19,28.71-46.92,33.98-73.79
			c3.97-19.79,3.32-40.63-2.83-59.91c-6.18-19.75-17.86-37.67-33.17-51.56c-12.95-11.63-28.74-21.58-46.51-22.86
			c-9.16-0.95-18.57-1.96-27.63,0.17c-10.71,2.83-20.03,9.04-29.69,14.21c-3.35,1.56-4.98,5.06-7.42,7.63
			c-9.71,11.41-23.02,19.19-37.05,24.08c-6.66,2.22-13.3,4.96-20.36,5.53c-1.9,0.31-5.03-0.58-4.32-3.11
			c1.61-6.19,7.12-10.17,10.44-15.39c-6.5,5.99-12.54,12.65-20.1,17.35c-6.75,4.21-15.14,2.47-22.39,0.75
			c1.54-0.73,2.91-1.74,4.01-3.04c5.51,1.91,11.83,1.93,17.03-0.91c4.95-2.2,9.05-5.78,13.03-9.37c-1.3,0.07-2.6,0.13-3.87,0.19
			c0.25-9.65,1.4-19.55,5.19-28.51c4.22-9.55,13.09-16.33,22.86-19.52c8.49-2.92,17.2-5.12,26.04-6.61
			c7.3-1.15,12.97-6.34,19.94-8.4C743.75,342.26,753.03,337.03,763.45,335.63z M689.15,375.99c-0.66,2.06-1.35,4.11-2.01,6.18
			c2.07-0.88,4.12-1.8,6.16-2.76c0.65-2.06,1.32-4.12,1.98-6.18C693.22,374.12,691.18,375.04,689.15,375.99z"/>
	</g>
	<path class="st1" d="M630.32,418.08"/>
	<path class="st1" d="M46.9,458.43c0.69-2.33,1.94-5.61,5.05-4.73c5.59,1.07,11.25,2.03,16.68,3.73c2.56,0.94,1.99,3.98,2.05,6.12
		C62.75,461.88,54.83,460.12,46.9,458.43z"/>
	<path class="st1" d="M1081.12,499.18c3.57-0.18,7.31-1.43,10.83-0.33c2.49,1.74,1.18,6.11-1.92,6.1
		c-18.65,2.22-37.36,4.01-56.03,6.08c-2.29,0.41-4.82-0.06-6.27-2.01c-1.11-2.61,1.87-4.43,4.12-4.54
		C1048.26,502.63,1064.7,500.97,1081.12,499.18z"/>
	<g>
		<path class="st1" d="M445.89,525.61c7.02-0.71,14.09-0.14,21.12-0.31c56.3-0.02,112.59,0.02,168.89-0.01
			c7.68,0.44,15.39,0.36,23.08,0.01c58.66,0.01,117.32-0.01,175.98,0c4.64,0.03,9.31-0.3,13.93,0.41l1.13,0.76
			c-15.67,21.1-37.17,37.2-60.2,49.51c-38.27,20.19-81.47,29.65-124.47,31.67c-4.18,17.48-5.09,35.51-5.57,53.41
			c-0.85,9.28-0.36,18.61-0.46,27.92c0.85,11.02,0.45,22.08,0.68,33.13c-8.74-2.61-17.77-4.7-25.83-9.1
			c-0.02-6.34,0.16-12.69,0.25-19.03c0.81-12.63-0.07-25.27-0.28-37.9c-0.54-16.25-1.58-32.61-5.45-48.45
			c-40.52-1.87-81.16-10.38-117.75-28.25c-18.44-9.03-35.82-20.44-50.72-34.62c-5.79-5.81-11.66-11.73-16.12-18.66L445.89,525.61z
			 M558.06,553.85c-0.01,1.64-0.03,3.29-0.03,4.95c5.32-0.77,10.48-2.31,15.58-3.98c-0.01,6.89,0,13.78,0,20.67
			c3.99,0.01,7.98,0.01,11.97,0.03c0.1-9.69,0.08-19.37,0.01-29.06c-3.19,0.02-6.37,0.01-9.55,0.08
			C571.13,551.05,564.38,552.45,558.06,553.85z M609.75,548.61c-3.25,1.22-6.94,3.57-7.03,7.44c-0.2,3.59,3,6.07,6,7.32
			c7.47,3.17,16.19,3.07,23.71,0.08c-0.85,2.49-1.52,5.58-4.19,6.77c-4.26,1.94-9.9,1.86-13.25-1.76c-3.75-0.29-7.5,0.24-11.24,0.43
			c2.66,5.2,8.85,6.65,14.21,6.96c7.34,0.34,15.28-0.03,21.61-4.19c5.22-3.47,6.22-10.86,4-16.36c-1.97-4.61-6.98-6.78-11.56-7.84
			C624.68,546.01,616.84,546.03,609.75,548.61z M652.42,547.09c0.01,1.63,0.01,3.28,0.03,4.93c8.99,0.26,17.98-0.02,26.98,0.15
			c-8.32,5.57-17.25,12.7-18.69,23.3c3.86,0.04,7.72,0.03,11.59,0.03c1.48-11.64,11.61-19.53,21.33-24.62c0-1.28,0-2.55,0.02-3.81
			C679.93,546.99,666.17,546.88,652.42,547.09z M706.13,549.15c-3.07,1.27-6.16,4.07-5.74,7.71c0.3,3.3,3.33,5.39,6.15,6.59
			c7.43,3.06,16.06,3,23.52,0c-0.86,2.66-1.65,5.91-4.6,6.98c-4.1,1.53-9.77,1.83-12.63-2.1c-3.83,0.07-7.66,0.28-11.47,0.57
			c2.8,5.28,9.11,6.71,14.61,6.97c7.09,0.3,14.71-0.11,20.9-3.98c5.53-3.38,6.68-11.12,4.26-16.75c-2.08-4.71-7.29-6.79-12-7.79
			C721.52,545.97,713.32,546.04,706.13,549.15z"/>
	</g>
	<path class="st1" d="M618.38,551.59c3.93-0.99,8.75-0.72,11.77,2.29c1.86,2.02,1.05,5.62-1.53,6.62c-3.87,1.7-8.8,1.74-12.4-0.62
		C613.07,557.58,614.55,552.14,618.38,551.59z"/>
	<path class="st1" d="M716.31,551.5c3.72-0.83,8.12-0.59,11.13,2c2.18,1.86,1.69,5.82-1.03,6.92c-3.85,1.81-8.77,1.8-12.43-0.45
		C710.62,557.62,712.26,551.9,716.31,551.5z"/>
	<path class="st1" d="M80.61,670.92c11.28-0.88,22.56-1.7,33.83-2.6c-4.27,2.08-8.95,3.05-13.49,4.33
		c-6.36,1.81-12.7,3.69-19.07,5.47C81.46,675.71,81.03,673.31,80.61,670.92z"/>
	<path class="st1" d="M617.53,675.45c4.88-3.57,10.72-5.46,16.61-6.53c0.55,11.74-0.13,23.48-0.36,35.22c-2.12,2.16-4.13,5.8-0.92,8
		c11.57,8.38,27.29,7.8,38.95,16.08c9.52,6.82,11.96,20.71,7.42,31.1c-3.6,7.43-11.18,11.72-18.48,14.85
		c0.29-7.4-1.21-15.06,1.36-22.17c0.33-4.1-3.87-6.44-7.06-7.92c-13.29-5.48-28.18-7.58-40.01-16.25
		c-6.46-4.59-10.79-12.02-11.37-19.95C602.39,695.73,607.21,682.47,617.53,675.45z"/>
	<path class="st1" d="M1018.73,698.74c11.15,1.38,22.06,4.26,33.16,6.05c-0.63,2.39-1.37,4.76-2.22,7.09
		C1039.44,707.32,1028.88,703.49,1018.73,698.74z"/>
	<path class="st1" d="M634.13,737.39c8.47,3.24,18.07,4.39,25.49,9.86c1.11,7.09,0.48,14.55,0.66,21.78
		c0.27,12.6,0.8,25.19,1.86,37.75c-8.14-3.38-16.72-5.82-24.44-10.12c-1.91-1.4-5.1-2.75-4.76-5.56c0.3-4.69,1-9.36,0.76-14.07
		C633.83,763.82,634.11,750.6,634.13,737.39z"/>
	<path class="st1" d="M619.27,778.32c3.72-4.38,8.91-7.14,14.11-9.39c-0.21,5.03,0.16,10.07-0.2,15.1
		c-0.14,2.62-2.51,5.18-0.97,7.78c1.52,3.03,4.66,4.74,7.52,6.31c10.67,5.26,22.63,7.81,32.57,14.55c4.69,3.13,8.56,8.42,8.01,14.31
		c-0.86,7.39-6.28,13.25-12.16,17.32c-0.74-3.74-2.23-7.41-2.16-11.25c0.72-2.87,1.59-6.15-0.28-8.77
		c-3.58-4.96-9.86-6.62-15.31-8.63c-6.01-1.75-11.81-4.08-17.56-6.51c9.67,5.76,21.78,6.31,30.79,13.2
		c1.54,6.17,1.67,12.61,3.37,18.76c3.92,14.39,8.9,29.38,19.93,40c7.01,6.99,16.34,11.42,26.12,12.89c3.09,0.1,4.55,3.16,6.43,5.15
		c-32.73,0-65.46,0.14-98.19-0.07c-4.89-5.8-10.42-11.17-14.13-17.86c7.98-8.06,13.22-18.4,16.61-29.14
		c4.69-14.16,6.57-29.05,8.07-43.84c-6.13-3.57-12.53-7.86-15.38-14.65C614.18,788.47,615.82,782.48,619.27,778.32z"/>
	<path class="st1" d="M983.22,788.32c2.11-1.09,4.15,0.66,6.03,1.47c3.35,1.96,7.08,3.35,10.14,5.77c1.49,1.43,0.21,3.44,0.03,5.14
		c-6.22-3.22-12.4-6.49-18.54-9.84C981.63,789.99,982.36,789.09,983.22,788.32z"/>
	<path class="st1" d="M166.34,809.42c1.8-1.26,4.53,0.33,4.11,2.52c0.07,1.75-1.93,2.46-3.1,3.36
		c-13.59,7.76-27.12,15.61-40.7,23.37c-1.7,1.13-4.79,1.47-5.82-0.66c-0.42-2.61,2.33-3.82,4.13-4.96
		C138.79,825.25,152.43,817.08,166.34,809.42z"/>
	<path class="st1" d="M962.82,823.01c10.48,4.38,20.3,10.19,30.56,15.08c-1.3,2.02-2.6,4.04-3.88,6.08
		C980.46,837.3,971.64,830.14,962.82,823.01z"/>
	<path class="st1" d="M604.15,850.18c6.43-5.63,14.73-8.27,22.71-10.89c-1.54,5.98-3.43,11.86-5.71,17.6
		c-6.2,3.06-12.95,6.64-15.8,13.35c-2.09,5.7,1.44,11.37,4.63,15.9c6.59,8.57,14.44,16.1,20.96,24.74
		c-8.36-2.65-15.4-7.91-22.7-12.56c0.31-0.38,0.93-1.13,1.24-1.51l-2.47,0.89c0.52,0.47,1.04,0.95,1.56,1.45
		c-11.3,0-22.59,0.07-33.89-0.03c1.79-2,3.22-5,6.26-5.11c6.06-0.95,11.84-3.05,17.28-5.86c0.43,0.4,1.31,1.2,1.74,1.6
		c-4.16-5.99-6.74-13.27-6.22-20.62C594.4,861.72,598.65,855.02,604.15,850.18z"/>
	<path class="st1" d="M914.56,885.87c1.5-1.02,3.3-3.36,5.2-1.63c5.32,4.3,10.46,8.91,15.31,13.73c1.78,1.72-0.18,3.67-1.08,5.27
		C927.45,897.52,921.04,891.65,914.56,885.87z"/>
	<path class="st1" d="M325.98,993.64c3.2-6.23,6.74-12.29,10.13-18.42c1.25,1.28,3.73,2.54,2.7,4.74c-1.94,4.45-4.49,8.65-7,12.8
		C330.6,995.13,327.97,993.97,325.98,993.64z"/>
	<path class="st1" d="M705.73,1018.78c2.35-0.33,5.44-0.55,5.94,2.48c4.38,14.89,8.73,29.82,12.87,44.78
		c1.13,2.75-1.6,4.4-3.84,5.02C715.82,1053.6,710.67,1036.22,705.73,1018.78z"/>
	<path class="st1" d="M520.28,1036.52c2.26-1.85,5.35,0.72,4.51,3.34c-1.89,16.08-3.87,32.16-5.94,48.22
		c-0.08,2.09-2.27,4.62-4.44,3.44c-1.54-1.45-1.24-3.7-1.02-5.57c1.86-14.96,3.72-29.92,5.53-44.88
		C519.22,1039.51,519.2,1037.76,520.28,1036.52z"/>
</g>
<g>
	<g>
		<path class="st2" d="M411.37,179.4c88.42-36.21,189.36-40.47,280.57-12.13c76.02,23.26,144.9,68.91,196.31,129.5
			c6.08,7.46,13.13,14.53,16.43,23.79c-5.54-2.11-8.99-7.14-13.38-10.82c-51.57-47.93-117.58-80.3-187.27-90.76
			c-50.31-7.65-102.28-4.09-151.1,10.23c-66.13,19.27-126.15,58.58-170.58,111.18c-21.64,25.51-39.66,54.09-53.3,84.64
			c-19.51,43.58-29.95,91.19-30.47,138.93c-0.64,44.65,7.33,89.4,23.42,131.06c24.28,63.25,67.28,119.08,122.01,158.99
			c51.23,37.56,112.78,60.94,176.08,66.51c49.19,4.45,99.31-1.46,146.03-17.51c34.43-11.79,66.99-28.98,96.19-50.7
			c19.17-14.18,36.69-30.48,52.8-48.03c-0.26-0.66-0.5-1.3-0.72-1.93c0.58-0.05,1.74-0.14,2.32-0.18c-0.28,0.3-0.82,0.92-1.1,1.23
			c-1.04,3.24-3.43,5.76-5.29,8.54C865.19,875.29,802.2,925.8,730.41,955.79c-46.65,19.59-96.88,30.57-147.44,32.24
			c-58.94,2.06-118.32-8.49-172.86-30.95c-62.92-25.75-119.3-67.14-162.95-119.24c-50.01-59.38-83.14-132.87-93.99-209.78
			c-7.1-49.65-5.27-100.59,5.52-149.58c13.79-63.01,42.58-122.62,83.1-172.79C286.44,250.18,345.33,206.18,411.37,179.4z
			 M456.74,184.78c-12.25,11.13-17.88,28.01-17.86,44.27c0.24,1.5,0.74,3.18,2.08,4.08c4.01,3.03,8.71,4.97,13.02,7.53
			c-8.78-0.88-17.21-3.92-26.05-4.32c-0.84,2.37-1.93,4.64-3.35,6.72c8.61-15.65,3.51-35.38,13.38-50.57
			c-4.83,0.77-9.68,1.78-14.08,3.99c-11.05,5.05-18.99,15.39-22.88,26.71c-3.5,10.36-4.65,21.76-2.1,32.47
			c7.47,5.91,17.38,6.76,26.17,9.55c-12.3,0.93-24.38-2.67-36.68-2.57c3.24-14.63-0.42-30.68,6.73-44.44
			c-9.91,2.1-19.3,7.31-25.39,15.53c-10.62,13.88-13.01,32.81-8.76,49.49c0.64,0.76,1.28,1.52,1.93,2.29
			c15.95,6.92,35.03,7.94,51,0.52c9.26-4.23,16.57-12.06,20.7-21.31c14.28-0.18,29.33-6.82,36.65-19.53
			c6.22,0.51,12.54,0.56,18.65-0.89c10.37-2.07,19.72-8.44,25.63-17.18c-15.99,1.33-29.93-8.55-45.31-10.88
			c6.29-13.67,5.91-30.45,16.28-42.13C475.69,173.75,464.73,177.4,456.74,184.78z M495.94,186.35
			c-10.25,4.19-14.72,15.26-17.46,25.18c12.68,3.75,26.74,6.46,39.58,1.97c12.27-4.55,18.68-17.27,22.07-29.11
			C525.47,186.63,510.12,180.59,495.94,186.35z M344.29,253.2c-10.84,6.67-17.72,18.56-19.88,30.92
			c-1.99,10.22-0.99,20.9,2.18,30.77c0.54,2.19,2.53,3.56,4.62,4.04c16.03,4.51,34.21,3.76,48.81-4.75
			c8.91-5.07,15.54-13.65,18.53-23.42c-5.72,1.51-11.56,2.84-17.52,2.62c-9.54,0.33-19.13-1.5-28.62,0.1
			c1.42-7.46-0.01-14.99,0.14-22.5c-0.11-7.68-0.55-15.82,3.19-22.83C351.79,249.51,347.8,250.9,344.29,253.2z M299.64,294.45
			c-8.85,11.31-10.92,26.61-8.56,40.47c1.41,6.59,3,13.49,6.9,19.1c13.53,3.3,28.2,1.63,40.9-3.98
			c12.14-5.32,22.29-16.04,24.98-29.26c-5.29,0.76-10.62,1.18-15.88,2.11c-9.52,1.55-19.3,1.31-28.66,3.81
			c-0.13-15.15-7.23-30.32-2.72-45.37C310.1,284.43,303.94,288.57,299.64,294.45z M262.76,349.05c-2.91,14.33,0.42,29.51,7.65,42.07
			c0.86,2.19,3.33,2.91,5.48,3c16.72,0.92,34.33-3.89,46.75-15.48c7.43-6.92,11.88-16.67,12.73-26.74c-2.09,1-4.13,2.08-6.22,3.07
			c-12.02,5.36-25.72,4.81-37.88,9.61c-1.49-11.76-6.11-22.86-7.49-34.64c-0.42-3.39-0.06-6.81,0.56-10.14
			C273,325.4,265.1,336.73,262.76,349.05z M236.02,400.03c1.04,12.4,5.93,24.47,13.79,34.12c1.7,2.17,4.76,1.62,7.17,1.52
			c13.48-1.39,26.85-6.55,36.94-15.76c8.9-7.85,14.23-19.43,14.38-31.3c-13.96,5.48-28.26,9.99-42.28,15.28
			c-3.34-14.59-13.68-27.54-12.61-43.05C240.98,369.47,234.6,385.15,236.02,400.03z M217.65,427.09
			c-3.66,15.22,1.22,31.38,9.99,43.97c2.62,3.46,5.06,7.35,8.98,9.5c7.1-1.11,13.88-3.4,20.69-5.61
			c-7.72,6.4-17.18,10.37-24.65,17.12c-6.85-13.46-20.01-23.71-22.87-39.08c-8,9.16-11.35,22-9.32,33.94
			c2.23,14.52,10.69,27.6,21.87,36.91c1.67,1.25,3.67,3.01,5.9,2.07c15.21-4.73,29.44-14.54,37.14-28.75
			c5-9.03,6.82-19.97,4.12-30.01c12.61-9.63,21-25.82,17.97-41.86c-11.11,11.07-27.19,13.95-39.96,22.38
			c-4.62-14.51-16.13-26.59-16.96-42.31C224.31,411.19,219.52,418.69,217.65,427.09z M192.34,535.11
			c3.78,16.06,14.95,30.08,29.33,37.98c6.74-0.86,12.19-5.96,18.18-8.88c-5.49,7.49-12.97,13.32-17.92,21.25
			c-10.24-11.09-25.08-17.95-32.24-31.75c-5.6,10.96-5.04,24.35-0.03,35.43c6.46,14.08,18.88,24.86,33.04,30.81
			c1.35,0.62,2.75-0.22,3.94-0.81c9.27-5.55,16.61-13.74,22.69-22.56c-0.77,3.17-2.12,6.19-3.93,8.91
			c-5.83,9.14-12.91,17.4-18.81,26.5c-8.62-7.48-19.1-12.42-27.75-19.86c-2.88-2.44-5.07-5.54-7.64-8.28
			c-2.94,10.12-2.74,21.3,1.78,30.94c7.19,15.58,22.01,26.68,38.2,31.63c0.9-0.56,1.9-0.76,2.94-0.48
			c5.82-4.13,10.42-9.63,15.15-14.89c-3.56,9.52-10.12,17.68-13.08,27.45c-12.62-8.7-29.42-11.18-39.52-23.45
			c-0.52,5.57-0.89,11.26,0.35,16.76c2.15,9.58,7.72,18.26,15.15,24.61c9.17,8.06,20.83,13.07,32.84,14.95
			c2,0.48,3.7-1.02,4.96-2.36c5.65-6.15,10.22-13.31,13.26-21.09c1.03-2.77,1.65-5.69,3.14-8.27c0.58,15.42-10.19,28.12-12.95,42.84
			c-13.18-7.97-30.45-8.46-41.61-19.89c-0.63,9.58,1.58,19.51,7.21,27.4c9.27,13.5,25.1,21.39,41.05,23.58
			c2.86,0.29,6.14,1.07,8.68-0.66c5.67-6.69,9.21-14.77,12.58-22.77c-0.74,11.3-5.78,21.81-6.94,33.05
			c0.37,0.43,1.11,1.28,1.49,1.71c-14.65-6.31-32.12-4.59-45.52-14.1c0.87,10.2,4.97,20.22,12.46,27.34
			c12.89,12.75,31.83,17.36,49.52,15.99c-0.03-0.49-0.09-1.46-0.12-1.95c0.39,0.19,1.19,0.57,1.59,0.76
			c7.58-13.1,11.66-28.8,8.69-43.86c-2.11-11.59-8.85-22.78-19.29-28.6c1-11.42-0.87-23.54-7.8-32.96
			c-2.54-3.28-5.09-7.14-9.23-8.49c0.29-3.34,0.81-6.65,0.96-9.99c0.23-10.93-3.31-22.27-11.09-30.16
			c1.36-5.59,3.36-11.08,3.55-16.88c0.53-10.06-2.21-20.74-9.08-28.32c6.53-12.54,7.4-27.96,1.33-40.84
			c-0.91,0.71-1.81,1.44-2.72,2.17c4.34-5.03,7.76-10.84,10.03-17.08c3.72-9.66,3.13-20.47-0.3-30.12c-2.91,1.74-4.28,5-6.64,7.33
			c-8.24,8.62-18.54,14.89-27.1,23.17c-4.57-6.79-10.44-12.53-15.82-18.66c-4.41-5.27-9.03-10.77-10.67-17.62
			C191.55,511.3,189.85,523.9,192.34,535.11z M304.71,756.52c0.72,3.11,1.56,6.25,1.54,9.47c-0.24,12.14-3.95,23.87-4.46,35.99
			c-14.78-3.8-31.36-1.22-44.84-9.43c1.69,11.53,8.31,22.16,17.98,28.67c13.71,9.54,31.39,11.94,47.61,9.07
			c-0.07-0.51-0.19-1.52-0.25-2.03c0.4,0.22,1.2,0.65,1.6,0.86c7.13-14.87,9.39-32.66,3.5-48.33
			C323.55,770.04,315.14,761.15,304.71,756.52z M330.64,792.52c0.36,3.85,1.11,7.66,1.59,11.5c0.83,11.19-0.73,22.43,0.34,33.61
			c-8.82-1.74-17.72,0.06-26.59-0.24c-6.67-0.14-13.92-0.11-19.69-3.92c1.54,3.89,2.94,7.89,5.23,11.43
			c4.81,8.01,12.75,13.67,21.27,17.2c13.44,5.26,28.58,5.16,42.33,1.12c0.71-0.28,1.37-0.66,1.95-1.17
			c0.58-0.61,1.01-1.31,1.29-2.09c3.87-12.01,4.15-25.07,0.84-37.25c2.72,0.38,3.49,3.23,4.37,5.38c4.32,12.82,1.71,26.69,4.96,39.7
			c-11.93-0.25-23.65,2.81-35.58,2.57c-3.72,0.02-7.33-0.99-10.85-2.09c3.71,9.12,10.38,17.04,19.11,21.71
			c15.43,8.39,34.43,8.07,50.6,1.96c1.17-0.41,2.11-1.26,3.16-1.9c1.64-2.73,1.75-5.99,2.23-9.05c1.79-14.87-1.52-30.78-10.87-42.71
			c-6.59-8.6-16.71-14.05-27.34-15.69C355.12,808.73,344.57,796.77,330.64,792.52z M394.11,851.68
			c7.74,13.29,7.73,29.08,11.99,43.52c-15.22,1.34-29.85,9.49-45.34,6.46c5.87,11.53,17.7,19.19,30.26,21.45
			c12.01,1.98,24.55,0.5,35.75-4.25c3.19-1.41,6.6-2.66,9.12-5.17c2.81-16.4-1.82-34.22-12.54-47.04
			C416.11,857.97,405.33,852.62,394.11,851.68z M431.9,874.22c9.37,12.34,10.14,28.42,16.09,42.3
			c-15.23,2.63-29.24,12.05-45.11,10.51c7.85,11.44,21.27,18.55,35.13,18.74c14.61,0.78,29.08-4.28,40.94-12.61
			c-1.33-1.71-2.66-3.39-4-5.07c1.5,1.44,2.9,2.96,4.5,4.32c0.8-17.15-5.26-35.04-18-46.86C453.54,878.11,442.68,874.3,431.9,874.22
			z M469.71,894.82c1.63,2.13,3.44,4.13,5.07,6.27c7.14,10.28,9.74,22.96,16.62,33.38c-14.88,4.42-27.5,15.96-43.53,16.28
			c8.98,10.58,23.47,15.57,37.12,14.12c12.02-1.05,23.58-5.86,33.19-13.09c2.43-1.89,5.06-3.69,6.47-6.52
			c-1.84-13.39-6.92-26.66-16.43-36.5C498.64,898.24,483.85,892.61,469.71,894.82z M511.05,908.12c2.79,2.48,5.82,4.79,7.98,7.91
			c5.27,7.7,9.37,16.11,13.93,24.23c1.37,1.95,2.38,4.75,5.03,5.23c-8.61,2.69-15.7,8.56-23.51,12.87
			c-6.13,3.39-12.47,7.1-19.64,7.45c5.86,5.56,13.31,9.44,21.3,10.78c12.46,2.3,25.4-0.99,36.36-7.01c3.55-1.83,6.52-4.6,10.11-6.37
			c0.26-0.9,0.52-1.79,0.78-2.67c1.16,0.12,2.36,0.29,3.54,0.41c-1.44,0.63-2.88,1.3-4,2.44c13.32,4.06,27.54,3.64,41.27,2.47
			c1.37-5.64,3.24-11.13,4.74-16.73c-12.79,2.85-26.08,2.5-38.97,0.61c-3.75-14.86-12.85-28.8-26.17-36.71
			C534.05,907.09,522.11,905.83,511.05,908.12z"/>
	</g>
	<path class="st2" d="M518.53,483.76c17.38-2.3,34.85-4.34,52.4-4.53c10.46-0.01,21.23,0.16,31.14,3.92
		c13.19,4.9,25.75,11.51,37.35,19.47c3.04,2.3,7.33,4.51,6.88,9.01c-6.32-4.97-13.52-8.65-20.72-12.16
		c-8.89-4.22-18.04-7.98-27.54-10.57c-7.83-1.99-15.96-2.29-24-2.37c-22.15-0.12-44.17,2.54-66.14,4.99
		c-15.28,0.53-30.46-1.95-45.48-4.38c1.67-2.46,3.34-4.91,4.97-7.39C484.12,483.25,501.44,487.01,518.53,483.76z"/>
	<path class="st2" d="M692.05,483.13c7.64-2.95,15.9-3.59,24.01-3.86c22.72-0.49,45.3,2.64,67.78,5.56c14.36,0.88,28.65-2,42.6-5.14
		c1.78,2.44,3.48,4.93,5.15,7.45c-15.06,2.42-30.27,4.93-45.57,4.37c-25.55-2.82-51.25-6.07-77-4.59
		c-12.35,0.58-23.98,5.23-35.18,10.08c-9.06,4.14-18.15,8.49-26.06,14.61c-0.46-4.46,3.8-6.67,6.82-8.96
		C666.23,494.67,678.82,488.03,692.05,483.13z"/>
	<path class="st2" d="M522.03,491.11c15.92-1.78,31.9-3.22,47.92-3.41c10.39-0.03,21.02,0.06,31.02,3.25
		c13.29,4.17,26.09,9.95,38.09,17.03c2.78,1.89,6.24,3.49,7.43,6.9c-16.66-9.06-34.7-15.82-53.32-19.47
		c-29.69-3.32-59.55,0.55-89.16,2.89c-15.65,0.36-31.22-1.79-46.7-3.77c1.49-2.1,2.97-4.22,4.43-6.34
		c13.31,2.25,26.72,4.28,40.23,4.59C508.71,493.03,515.36,491.79,522.03,491.11z"/>
	<path class="st2" d="M699.83,489.22c18.26-2.87,36.84-1.22,55.16,0.16c10.37,0.83,20.68,2.26,31.03,3.29
		c15.53,0.55,30.96-1.96,46.23-4.49c1.48,2.11,2.93,4.23,4.42,6.35c-18.74,2.31-37.73,5.29-56.61,2.93
		c-18.32-1.75-36.7-3.2-55.11-3.32c-10.7,0-21.57,0.11-31.97,2.93c-15.66,4.18-31.04,9.8-45.2,17.74c0.73-3.48,4.58-4.86,7.17-6.78
		C668.98,499.86,683.98,492.97,699.83,489.22z"/>
	<path class="st2" d="M693.99,498.02c8.17-2.16,16.66-2.57,25.07-2.72c23.38-0.28,46.7,2.02,69.96,4.11
		c16.16,0.41,32.31-1.49,48.25-3.99c1.34,2.03,2.67,4.07,3.98,6.14c-13.71,1.57-27.47,2.92-41.28,3.19
		c-7.34,0.21-14.64-0.73-21.95-1.22c-17.97-1.31-35.98-2.43-54.01-2.36c-8.48,0.05-17.01,0.23-25.39,1.64
		c-10.46,1.91-20.73,4.78-30.83,8.07c-6.75,2.27-13.54,4.57-19.8,7.99c0.07-0.64,0.22-1.93,0.29-2.57c3.3-2.63,7.22-4.3,11-6.09
		C670.48,505.19,682.09,501.04,693.99,498.02z"/>
	<path class="st2" d="M452.75,501.56c1.31-2.07,2.66-4.11,4.02-6.14c15.94,2.51,32.11,4.41,48.28,3.99
		c25.23-2.25,50.55-4.84,75.92-3.94c16.76,0.33,32.74,6.17,48.14,12.28c5.65,2.54,11.68,4.67,16.57,8.57
		c0.18,0.64,0.54,1.91,0.71,2.54c-9.37-4.61-19.33-7.87-29.33-10.84c-11.45-3.26-23.12-6.24-35.09-6.57
		c-23.69-0.94-47.38,0.69-70.99,2.46C491.57,506.02,472.06,503.6,452.75,501.56z"/>
	<path class="st2" d="M713.09,502.57c23.29-0.87,46.58,0.77,69.8,2.51c19.75,2.07,39.58-0.34,59.22-2.44
		c1.58,2.33,3.16,4.65,4.76,6.98c-13.27,1.19-26.57,2.04-39.89,2.39c-9.04,0.31-18.05-0.58-27.06-1.02
		c-18.3-0.96-36.61-1.76-54.94-1.69c-11.16,0.03-22.36,0.5-33.34,2.58c-14.74,2.75-29.58,5.66-43.64,10.95
		c-0.01-0.67-0.02-1.99-0.02-2.66c7.87-4.28,16.46-6.99,24.96-9.72C686.01,506.53,699.36,502.88,713.09,502.57z"/>
	<path class="st2" d="M451.9,502.64c12.99,1.46,26.03,2.82,39.11,3.19c11.68,0.47,23.29-1.24,34.93-1.84
		c21.17-1.27,42.46-2.62,63.63-0.82c13.99,1.76,27.58,5.84,40.9,10.36c5.21,1.99,10.7,3.59,15.37,6.73c0.13,0.64,0.39,1.9,0.52,2.53
		c-9.84-3.55-20.02-6.03-30.23-8.25c-11.89-2.52-23.91-4.76-36.1-5.01c-24.35-0.74-48.72,0.53-73.03,1.87
		c-19.95,1.58-39.96-0.21-59.85-1.76C448.73,507.3,450.32,504.97,451.9,502.64z"/>
	<path class="st2" d="M446.33,510.77c22.18,1.81,44.48,3.49,66.71,1.46c18.3-1,36.62-1.8,54.95-1.77c9.74,0.1,19.52,0.21,29.16,1.74
		c13.75,2.16,27.38,5.12,40.76,9c3,1.05,6.43,1.51,8.76,3.89c-19.75-3.36-39.65-6.11-59.67-7.26c-27.35-0.96-54.72-0.01-82.06,0.79
		c-21.04,0.94-42.1-0.09-63.12-1.03C443.3,515.3,444.82,513.04,446.33,510.77z"/>
	<path class="st2" d="M657.05,520.94c16.68-4.59,33.66-8.52,50.93-9.95c30.36-1.55,60.75,0.7,91.07,2.2
		c16.24,0.15,32.45-1.15,48.63-2.41c1.5,2.26,3.01,4.52,4.5,6.8c-20.7,0.93-41.44,1.96-62.16,1.07c-27.69-0.82-55.4-1.78-83.09-0.82
		c-19.96,1.17-39.8,3.87-59.49,7.27C649.95,522.48,653.78,522.11,657.05,520.94z"/>
	<path class="st2" d="M436.05,526.03c1.65-2.5,3.34-4.98,5.02-7.45c15.61,1.06,31.26,1.42,46.9,1.62
		c33.02-0.7,66.06-2.39,99.09-1.19c16.78,0.99,33.53,2.95,50.1,5.78l-1.26,0.5c-56.3,0.03-112.59-0.01-168.89,0.01
		c-7.03,0.17-14.1-0.4-21.12,0.31C442.63,526.06,439.33,526.08,436.05,526.03z"/>
	<path class="st2" d="M657.6,524.65c21.62-3.5,43.49-6.08,65.43-6.02c26.33-0.19,52.64,0.74,78.95,1.55
		c17-0.02,34.01-0.49,50.97-1.6c1.65,2.47,3.33,4.93,4.99,7.41c-3.03,0.05-6.06,0.15-9.05-0.28c-4.62-0.71-9.29-0.38-13.93-0.41
		c-58.66-0.01-117.32,0.01-175.98,0L657.6,524.65z"/>
</g>
<g>
	<path class="st3" d="M456.74,184.78c7.99-7.38,18.95-11.03,29.76-10.67c-10.37,11.68-9.99,28.46-16.28,42.13
		c15.38,2.33,29.32,12.21,45.31,10.88c-5.91,8.74-15.26,15.11-25.63,17.18c-6.11,1.45-12.43,1.4-18.65,0.89
		c-7.32,12.71-22.37,19.35-36.65,19.53c-4.13,9.25-11.44,17.08-20.7,21.31c-15.97,7.42-35.05,6.4-51-0.52
		c-0.65-0.77-1.29-1.53-1.93-2.29c-4.25-16.68-1.86-35.61,8.76-49.49c6.09-8.22,15.48-13.43,25.39-15.53
		c-7.15,13.76-3.49,29.81-6.73,44.44c12.3-0.1,24.38,3.5,36.68,2.57c-8.79-2.79-18.7-3.64-26.17-9.55
		c-2.55-10.71-1.4-22.11,2.1-32.47c3.89-11.32,11.83-21.66,22.88-26.71c4.4-2.21,9.25-3.22,14.08-3.99
		c-9.87,15.19-4.77,34.92-13.38,50.57c1.42-2.08,2.51-4.35,3.35-6.72c8.84,0.4,17.27,3.44,26.05,4.32
		c-4.31-2.56-9.01-4.5-13.02-7.53c-1.34-0.9-1.84-2.58-2.08-4.08C438.86,212.79,444.49,195.91,456.74,184.78z"/>
	<path class="st3" d="M495.94,186.35c14.18-5.76,29.53,0.28,44.19-1.96c-3.39,11.84-9.8,24.56-22.07,29.11
		c-12.84,4.49-26.9,1.78-39.58-1.97C481.22,201.61,485.69,190.54,495.94,186.35z"/>
	<path class="st3" d="M344.29,253.2c3.51-2.3,7.5-3.69,11.45-5.05c-3.74,7.01-3.3,15.15-3.19,22.83c-0.15,7.51,1.28,15.04-0.14,22.5
		c9.49-1.6,19.08,0.23,28.62-0.1c5.96,0.22,11.8-1.11,17.52-2.62c-2.99,9.77-9.62,18.35-18.53,23.42
		c-14.6,8.51-32.78,9.26-48.81,4.75c-2.09-0.48-4.08-1.85-4.62-4.04c-3.17-9.87-4.17-20.55-2.18-30.77
		C326.57,271.76,333.45,259.87,344.29,253.2z"/>
	<path class="st3" d="M299.64,294.45c4.3-5.88,10.46-10.02,16.96-13.12c-4.51,15.05,2.59,30.22,2.72,45.37
		c9.36-2.5,19.14-2.26,28.66-3.81c5.26-0.93,10.59-1.35,15.88-2.11c-2.69,13.22-12.84,23.94-24.98,29.26
		c-12.7,5.61-27.37,7.28-40.9,3.98c-3.9-5.61-5.49-12.51-6.9-19.1C288.72,321.06,290.79,305.76,299.64,294.45z"/>
	<path class="st3" d="M262.76,349.05c2.34-12.32,10.24-23.65,21.58-29.25c-0.62,3.33-0.98,6.75-0.56,10.14
		c1.38,11.78,6,22.88,7.49,34.64c12.16-4.8,25.86-4.25,37.88-9.61c2.09-0.99,4.13-2.07,6.22-3.07c-0.85,10.07-5.3,19.82-12.73,26.74
		c-12.42,11.59-30.03,16.4-46.75,15.48c-2.15-0.09-4.62-0.81-5.48-3C263.18,378.56,259.85,363.38,262.76,349.05z"/>
	<path class="st3" d="M236.02,400.03c-1.42-14.88,4.96-30.56,17.39-39.19c-1.07,15.51,9.27,28.46,12.61,43.05
		c14.02-5.29,28.32-9.8,42.28-15.28c-0.15,11.87-5.48,23.45-14.38,31.3c-10.09,9.21-23.46,14.37-36.94,15.76
		c-2.41,0.1-5.47,0.65-7.17-1.52C241.95,424.5,237.06,412.43,236.02,400.03z"/>
	<path class="st3" d="M217.65,427.09c1.87-8.4,6.66-15.9,12.9-21.73c0.83,15.72,12.34,27.8,16.96,42.31
		c12.77-8.43,28.85-11.31,39.96-22.38c3.03,16.04-5.36,32.23-17.97,41.86c2.7,10.04,0.88,20.98-4.12,30.01
		c-7.7,14.21-21.93,24.02-37.14,28.75c-2.23,0.94-4.23-0.82-5.9-2.07c-11.18-9.31-19.64-22.39-21.87-36.91
		c-2.03-11.94,1.32-24.78,9.32-33.94c2.86,15.37,16.02,25.62,22.87,39.08c7.47-6.75,16.93-10.72,24.65-17.12
		c-6.81,2.21-13.59,4.5-20.69,5.61c-3.92-2.15-6.36-6.04-8.98-9.5C218.87,458.47,213.99,442.31,217.65,427.09z"/>
	<path class="st3" d="M192.34,535.11c-2.49-11.21-0.79-23.81,6.29-33.07c1.64,6.85,6.26,12.35,10.67,17.62
		c5.38,6.13,11.25,11.87,15.82,18.66c8.56-8.28,18.86-14.55,27.1-23.17c2.36-2.33,3.73-5.59,6.64-7.33
		c3.43,9.65,4.02,20.46,0.3,30.12c-2.27,6.24-5.69,12.05-10.03,17.08c0.91-0.73,1.81-1.46,2.72-2.17c6.07,12.88,5.2,28.3-1.33,40.84
		c6.87,7.58,9.61,18.26,9.08,28.32c-0.19,5.8-2.19,11.29-3.55,16.88c7.78,7.89,11.32,19.23,11.09,30.16
		c-0.15,3.34-0.67,6.65-0.96,9.99c4.14,1.35,6.69,5.21,9.23,8.49c6.93,9.42,8.8,21.54,7.8,32.96c10.44,5.82,17.18,17.01,19.29,28.6
		c2.97,15.06-1.11,30.76-8.69,43.86c-0.4-0.19-1.2-0.57-1.59-0.76c0.03,0.49,0.09,1.46,0.12,1.95
		c-17.69,1.37-36.63-3.24-49.52-15.99c-7.49-7.12-11.59-17.14-12.46-27.34c13.4,9.51,30.87,7.79,45.52,14.1
		c-0.38-0.43-1.12-1.28-1.49-1.71c1.16-11.24,6.2-21.75,6.94-33.05c-3.37,8-6.91,16.08-12.58,22.77c-2.54,1.73-5.82,0.95-8.68,0.66
		c-15.95-2.19-31.78-10.08-41.05-23.58c-5.63-7.89-7.84-17.82-7.21-27.4c11.16,11.43,28.43,11.92,41.61,19.89
		c2.76-14.72,13.53-27.42,12.95-42.84c-1.49,2.58-2.11,5.5-3.14,8.27c-3.04,7.78-7.61,14.94-13.26,21.09
		c-1.26,1.34-2.96,2.84-4.96,2.36c-12.01-1.88-23.67-6.89-32.84-14.95c-7.43-6.35-13-15.03-15.15-24.61
		c-1.24-5.5-0.87-11.19-0.35-16.76c10.1,12.27,26.9,14.75,39.52,23.45c2.96-9.77,9.52-17.93,13.08-27.45
		c-4.73,5.26-9.33,10.76-15.15,14.89c-1.04-0.28-2.04-0.08-2.94,0.48c-16.19-4.95-31.01-16.05-38.2-31.63
		c-4.52-9.64-4.72-20.82-1.78-30.94c2.57,2.74,4.76,5.84,7.64,8.28c8.65,7.44,19.13,12.38,27.75,19.86
		c5.9-9.1,12.98-17.36,18.81-26.5c1.81-2.72,3.16-5.74,3.93-8.91c-6.08,8.82-13.42,17.01-22.69,22.56
		c-1.19,0.59-2.59,1.43-3.94,0.81c-14.16-5.95-26.58-16.73-33.04-30.81c-5.01-11.08-5.57-24.47,0.03-35.43
		c7.16,13.8,22,20.66,32.24,31.75c4.95-7.93,12.43-13.76,17.92-21.25c-5.99,2.92-11.44,8.02-18.18,8.88
		C207.29,565.19,196.12,551.17,192.34,535.11z"/>
	<path class="st3" d="M304.71,756.52c10.43,4.63,18.84,13.52,22.68,24.27c5.89,15.67,3.63,33.46-3.5,48.33
		c-0.4-0.21-1.2-0.64-1.6-0.86c0.06,0.51,0.18,1.52,0.25,2.03c-16.22,2.87-33.9,0.47-47.61-9.07c-9.67-6.51-16.29-17.14-17.98-28.67
		c13.48,8.21,30.06,5.63,44.84,9.43c0.51-12.12,4.22-23.85,4.46-35.99C306.27,762.77,305.43,759.63,304.71,756.52z"/>
	<path class="st3" d="M330.64,792.52c13.93,4.25,24.48,16.21,28.35,30.07c10.63,1.64,20.75,7.09,27.34,15.69
		c9.35,11.93,12.66,27.84,10.87,42.71c-0.48,3.06-0.59,6.32-2.23,9.05c-1.05,0.64-1.99,1.49-3.16,1.9
		c-16.17,6.11-35.17,6.43-50.6-1.96c-8.73-4.67-15.4-12.59-19.11-21.71c3.52,1.1,7.13,2.11,10.85,2.09
		c11.93,0.24,23.65-2.82,35.58-2.57c-3.25-13.01-0.64-26.88-4.96-39.7c-0.88-2.15-1.65-5-4.37-5.38
		c3.31,12.18,3.03,25.24-0.84,37.25c-0.28,0.78-0.71,1.48-1.29,2.09c-0.58,0.51-1.24,0.89-1.95,1.17
		c-13.75,4.04-28.89,4.14-42.33-1.12c-8.52-3.53-16.46-9.19-21.27-17.2c-2.29-3.54-3.69-7.54-5.23-11.43
		c5.77,3.81,13.02,3.78,19.69,3.92c8.87,0.3,17.77-1.5,26.59,0.24c-1.07-11.18,0.49-22.42-0.34-33.61
		C331.75,800.18,331,796.37,330.64,792.52z"/>
	<path class="st3" d="M394.11,851.68c11.22,0.94,22,6.29,29.24,14.97c10.72,12.82,15.35,30.64,12.54,47.04
		c-2.52,2.51-5.93,3.76-9.12,5.17c-11.2,4.75-23.74,6.23-35.75,4.25c-12.56-2.26-24.39-9.92-30.26-21.45
		c15.49,3.03,30.12-5.12,45.34-6.46C401.84,880.76,401.85,864.97,394.11,851.68z"/>
	<path class="st3" d="M431.9,874.22c10.78,0.08,21.64,3.89,29.55,11.33c12.74,11.82,18.8,29.71,18,46.86c-1.6-1.36-3-2.88-4.5-4.32
		c1.34,1.68,2.67,3.36,4,5.07c-11.86,8.33-26.33,13.39-40.94,12.61c-13.86-0.19-27.28-7.3-35.13-18.74
		c15.87,1.54,29.88-7.88,45.11-10.51C442.04,902.64,441.27,886.56,431.9,874.22z"/>
	<path class="st3" d="M469.71,894.82c14.14-2.21,28.93,3.42,38.51,13.94c9.51,9.84,14.59,23.11,16.43,36.5
		c-1.41,2.83-4.04,4.63-6.47,6.52c-9.61,7.23-21.17,12.04-33.19,13.09c-13.65,1.45-28.14-3.54-37.12-14.12
		c16.03-0.32,28.65-11.86,43.53-16.28c-6.88-10.42-9.48-23.1-16.62-33.38C473.15,898.95,471.34,896.95,469.71,894.82z"/>
	<path class="st3" d="M511.05,908.12c11.06-2.29,23-1.03,32.75,4.91c13.32,7.91,22.42,21.85,26.17,36.71
		c12.89,1.89,26.18,2.24,38.97-0.61c-1.5,5.6-3.37,11.09-4.74,16.73c-13.73,1.17-27.95,1.59-41.27-2.47c1.12-1.14,2.56-1.81,4-2.44
		c-1.18-0.12-2.38-0.29-3.54-0.41c-0.26,0.88-0.52,1.77-0.78,2.67c-3.59,1.77-6.56,4.54-10.11,6.37
		c-10.96,6.02-23.9,9.31-36.36,7.01c-7.99-1.34-15.44-5.22-21.3-10.78c7.17-0.35,13.51-4.06,19.64-7.45
		c7.81-4.31,14.9-10.18,23.51-12.87c-2.65-0.48-3.66-3.28-5.03-5.23c-4.56-8.12-8.66-16.53-13.93-24.23
		C516.87,912.91,513.84,910.6,511.05,908.12z"/>
</g>
</svg>
