<?xml version="1.0" encoding="utf-8"?>
<!-- Generator: Adobe Illustrator 24.2.0, SVG Export Plug-In . SVG Version: 6.00 Build 0)  -->
<svg version="1.1" id="Layer_1" xmlns="http://www.w3.org/2000/svg" xmlns:xlink="http://www.w3.org/1999/xlink" x="0px" y="0px"
	 viewBox="0 0 475.2 475.2" style="enable-background:new 0 0 475.2 475.2;" xml:space="preserve">
<style type="text/css">
	.st0{fill:#2E1D5B;}
</style>
<g>
	<path class="st0" d="M237.3-494.4L237.3-494.4c3.1,15.9,4.9,31.9,7.7,47.9c46.1,1.4,91,20.9,124.2,52.8c-6.2,5-12.8,9.5-19.2,14.3
		c-14.3-13-30.7-23.6-48.5-31l-0.4,0.4c-4.3,25.5-8.9,50.9-13.3,76.4c-6.6,4.8-13.1,9.7-19.8,14.5c-1.7,1.7-3.8,0-5.5-0.6
		c-7.9-3.3-16.4-4.7-25-4.9c0-26.6,0-53.1,0-79.7C237.4-434.4,237.8-464.4,237.3-494.4z M248.6-423c3.6,23.9,7.3,47.7,10.9,71.6
		c13.3-18.6,26.2-37.4,39.4-56c0.8-0.9,1.1-1.9,1.2-3c-0.2-0.3-0.6-0.8-0.8-1.1C283.1-417.8,266-421.9,248.6-423z"/>
</g>
<g>
	<path class="st0" d="M105.9-393.8c33.2-32,78.2-51.4,124.3-52.8c-1.3,7.9-2.3,15.8-3.8,23.6c-14.8,0.9-29.4,3.9-43.4,8.8
		c-2.7,0.9-5.2,2.2-8,2.5c-0.1,1-0.1,2-0.2,3c13.9,18.9,27,38.4,40.7,57.5c-1.7,10.8-3.2,21.5-5,32.2c-8,3.2-14.9,8.5-21.3,14.2
		c-23.7-24-47.7-47.7-71.5-71.6c-10.1-10.6-20.9-20.5-31-31.1C93.4-403.2,99.5-398.3,105.9-393.8z M125.2-379.5
		c20.7,15.1,41.2,30.3,61.9,45.4c-4.3-25.6-9.1-51.1-13.3-76.8C156.2-403,139.4-392.9,125.2-379.5z"/>
</g>
<path class="st0" d="M1333.2-426.1c9.5-2,19.6-0.6,28.5,3.2c3.4,1.3,6.7,3.3,10.4,3.4c3.5-0.6,6.4-3,10-3.1c2,0.3,1.8,2.8,2,4.3
	c0.6,10.7,2,21.3,2.3,32c0.2,3.1-5.1,5-6.2,1.9c-2.9-5.8-4.9-12.1-8.6-17.5c-4.8-7.7-12.3-13.7-21.2-15.7
	c-7.6-1.6-16.2-1.6-22.7,3.1c-6.3,4.5-8.5,13.1-6.9,20.5c1.2,4.9,5.4,8.1,9.6,10.4c14.1,7.6,29.8,11.9,43.2,20.7
	c7.3,4.7,13,12.1,14.9,20.7c2.3,10.9,1.7,22.9-3.5,33c-3.7,7.3-9.8,13.2-17.1,16.8c-8.8,4.3-19.1,5.5-28.8,4c-8.2-1.3-16-4.4-24-6.3
	c-2.2-0.6-5.2-1.2-5.6-3.9c-2.5-10.6-4.8-21.3-7.2-31.9c-0.3-1.8-0.8-3.8,0.2-5.5c1.9-1.9,5.9-1.1,6.4,1.7
	c3.6,11.1,9,22.3,18.2,29.8c10.7,8.9,27.5,10.5,39,2.2c10.5-7.6,13-26.1,2-34.3c-7.2-5.4-15.8-8.4-23.9-12
	c-9.3-4.1-19-7.5-27.3-13.5c-5.8-4.1-10.1-10.2-11.6-17.2c-2.4-11.4-0.6-24,6.5-33.4C1316.9-419.7,1324.7-424.4,1333.2-426.1z"/>
<path class="st0" d="M496.4-424.8c1.8-0.7,3.8-0.4,5.7-0.4c12,0.5,24,1,36,0.4c5.2,0,10.5-0.8,15.7-0.3c1.2,1.3,1.4,4.2-0.6,4.8
	c-3.5,1.3-7.6,1.9-9.9,5.1c-4,5.3-4.5,12.3-4.7,18.8c0,15.6-0.1,31.3,0,46.9c0.4,12.6,2,26.2,9.8,36.6c5.9,8.1,15.9,12.3,25.6,13.1
	c10.3,0.9,21.3,0,30.3-5.5c7-4.2,11.8-11.2,14.5-18.8c4.1-11.3,4.7-23.5,4.9-35.4c0-13.7,0-27.4,0-41c0-5.1-1.7-10.6-6-13.8
	c-4.5-3.6-10.5-4-15.7-6.2c-2-0.6-3-3.7-0.9-4.9c5-0.4,9.9,0.5,14.9,0.6c9.7,0.6,19.4-0.6,29.2-0.5c2.2-0.3,3.2,3.1,1.4,4.2
	c-3,1.4-6.6,1.7-8.8,4.3c-3.1,3.6-3.6,8.7-3.7,13.3c-0.2,17.3,0.1,34.7-0.1,52c-0.7,16.6-4,34.4-15.7,47c-11.2,12-28.2,16-44.1,16.4
	c-15.4,0.5-32.2-1.6-44.2-12.1c-11-9.8-14.7-25.1-15-39.3c-0.1-21.7,0-43.3,0-65c0.1-3.6-1.1-7.4-4.1-9.6c-4.1-3.1-9.4-3-13.9-5.1
	C494.4-420,494-423.8,496.4-424.8z"/>
<path class="st0" d="M658.1-425.2c3.3-0.4,6.6,0.3,9.9,0.5c8.8,0.5,17.7-1.7,26.3-0.1c3.7,5.2,8.2,9.7,12.5,14.5
	c21.8,23.9,43.6,47.8,65.3,71.7c2.8,3,5.4,6.3,9,8.4c0.6-2,1.1-4,1.1-6.1c0-21.7,0-43.3,0-65c0.1-4.3-1.6-8.7-5.2-11.2
	c-4.9-3.8-11.4-4.1-16.7-7c-2.8-1.3-1.5-6.3,1.7-5.7c12.6,0.7,25.3,1.1,37.9,0.2c2.2-0.1,4.5-0.5,6.7,0.1c2,0.5,1.9,3.5,0.3,4.4
	c-3.4,2-7.6,2.7-10.5,5.5c-3.7,3.5-4.7,8.8-4.7,13.6c-0.1,37,0.1,74-0.1,110.9c0.3,3.7-4.9,3-6.4,0.8
	c-26.6-28.8-53.2-57.5-79.8-86.3c-5.6-5.8-10.6-12.1-16.7-17.4c-1.1,1-1.8,2.3-1.6,3.9c0,19.4,0,38.8,0,58.1c0,8.3-0.4,17,3.2,24.7
	c2.3,5.6,7.9,9.2,13.8,10.2c2.7,0.8,7.1,0.7,7.7,4.2c0.3,2.1-2.1,2.9-3.8,2.9c-11,0.6-21.9-1.3-32.9-0.4c-4.7,0.2-9.4,0.8-14,0.5
	c-2.7-0.3-2.2-4.2-0.5-5.5c3.6-2.9,8.5-3.9,11.9-7.2c3.8-3.3,5.2-8.5,5.1-13.4c0-25,0-49.9,0-74.9c-0.3-7.7-1-16.3-6.6-22.2
	c-3.4-3.7-8.6-4.2-12.9-6.1C655.5-419.7,655.3-424.2,658.1-425.2z"/>
<path class="st0" d="M820.3-424.9c7.1-1.1,14.5,0.1,21.7,0.2c11.4,0.6,22.8-1.2,34.1-0.5c2.8-0.3,3.4,3.8,1.3,5
	c-3.1,1.6-7,1.8-9.7,4.3c-3.3,3.2-3.6,8.1-3.6,12.4c0,30,0,60,0,90c0,5.6,1.3,12.1,6.4,15.3c4.2,2.9,9.6,2.2,14.2,4.1
	c2.5,1.9-0.2,5-2.7,4.6c-13.6,0.3-27.3-1.3-41-0.4c-4.6,0-9.3,1.1-13.8,0.1c-2.6-3.9,2.5-6.1,5.3-7.2c5.4-2,7.9-8,7.8-13.4
	c0-31.3,0-62.7,0-94c0.1-4-1.8-8-5.2-10.2c-4.4-3.1-10-3.1-14.7-5.3C818.3-420.7,818-424.1,820.3-424.9z"/>
<path class="st0" d="M890.1-425.2c10.2-0.8,20.6,1.1,30.9,0.6c7.3,0,14.7-1.2,22-0.5c2.2,0.3,1.9,3.3,1.1,4.7
	c-2.8,2.3-6.9,2.1-9.5,4.6c-2.2,2.3-1.4,5.7-1.1,8.5c2.1,11.7,7.3,22.5,11.6,33.6c7,17.3,13.9,34.7,21.1,52c0.3,1.1,1.8,3.2,2.7,1.4
	c7.7-16.8,15.2-33.6,22.8-50.5c4.2-9.6,9.3-19,10.9-29.5c0.7-4.9,0.5-10.8-3.4-14.4c-3.9-3.4-9.3-3.2-13.9-5
	c-2.8-0.9-2.1-5.2,0.7-5.4c5.7-0.8,11.4,0,17.1,0.3c8.6,0.7,17.3-1.2,25.9-0.5c2.8,0.5,2.2,4.7,0,5.7c-4.5,2.8-8.8,6.2-10.9,11.2
	c-17.1,37.6-34.1,75.3-51.2,113c-1.3,2.7-2.2,5.6-4,8c-1.3,1.6-3.9,1.6-5.1,0c-2.5-2.8-3.8-6.3-5.3-9.7
	c-15.9-37.1-31.8-74.2-47.6-111.4c-1.7-4-4.4-8-8.7-9.5c-2.7-1.3-6.4-1.2-8.1-3.9C888.3-423.2,888.7-424.7,890.1-425.2z"/>
<path class="st0" d="M1040.5-419.1c-2.8-1.5-1.6-6.1,1.5-6.1c13-0.2,25.9,0.7,38.9,0.5c19,0.6,38.1-0.8,57.1-0.6
	c2.1-0.2,4,1.7,3.9,3.8c0.4,7,0.5,14,1,20.9c0,2,0.3,4.3-1.1,5.9c-1.8,1.9-5.5,0.8-5.6-1.9c-1-4.8-1.3-10.4-5.3-13.8
	c-6.2-5.4-15.1-5.8-22.9-5.9c-6.5,0.2-13.2-0.6-19.5,1.4c-4.2,1.5-4,6.7-4.1,10.4c0.1,11.3-0.3,22.7,0.2,34c0.1,4.3,5.3,4.1,8.4,4
	c7.1-0.5,15.1,1.6,21.3-2.8c4.8-3.1,6.8-8.7,9.5-13.5c1.3-2.8,5.7-1.2,5.4,1.8c0.8,13.5,1.1,27,1.7,40.5c0.5,2.8-2.4,6.3-5.2,4.2
	c-3.1-4.6-2.8-11-6.8-15.2c-4.4-5-11.7-4.7-17.8-4.6c-4.6,0.2-9.4-0.6-13.9,0.7c-2.8,1-2.7,4.4-2.8,6.9c0,12,0,24,0,36
	c0.2,3.6,0.2,7.8,3,10.5c2.9,2.5,7,2.6,10.6,2.7c10.9-0.2,22.1-1.3,31.9-6.3c6-3,10.9-8,14.3-13.7c1.4-1.9,2.4-4.5,4.9-5.1
	c2.7-0.4,2.7,3.1,2.7,4.9c-0.2,13.9-10.3,28.5-24.8,30c-16.7,0.4-33.3-0.3-50-0.6c-9-0.1-18,0.9-27.1,0.7c-1.4,0-2.7-0.6-4-1
	c0.3-1.5,0-3.5,1.5-4.5c3.1-1.7,7.1-1.7,9.5-4.5c3.1-3.5,3.6-8.5,3.7-13c0-29,0-58,0-87c0.1-4.3,0.3-9.3-3.1-12.6
	C1053-416.7,1046-416.2,1040.5-419.1z"/>
<g>
	<path class="st0" d="M1191.5-424.6c12.8-0.2,25.7-1,38.5-0.6c10.7,0.6,21.8,3.4,29.9,10.8c13.2,12,14.7,35.6,0.9,47.7
		c-3.6,3.8-9.2,5.2-12.6,9.1c3.3,7.3,7.8,14.1,11.6,21.1c6.1,10.6,12.2,21.2,18.3,31.8c1.5,3.3,5.7,4,8.9,3.1c2.1-0.3,5-1.8,6.5,0.5
		c1.5,3.3-1.8,6.2-4.5,7.6c-8.8,4.7-20.6,6.1-29.1-0.1c-7.8-5.9-11.6-15.3-16.2-23.6c-5.5-9.9-10.4-20.2-16.2-29.9
		c-3.8-6.3-12-6.4-18.5-6c-2.3,0-5.7,0.6-5.4,3.6c-0.2,11,0,21.9-0.1,32.9c0,5.4-0.3,11.6,3.5,15.9c3.4,3.9,8.9,3.9,13.5,5.5
		c2.2,0.5,2.9,3.9,0.8,4.9c-3.3,1.4-7,0.6-10.5,0.5c-14.3-1.3-28.6,0.6-42.9,0.3c-3,0.6-5.1-3.7-2.5-5.5c3-1.8,6.7-2.4,9.2-4.9
		c4.2-4,5.1-10.1,5.2-15.6c0-28.7,0-57.3,0-86c0.1-4.9-1.4-10.4-5.6-13.4c-4.1-3.1-9.5-3-14-5.2c-2.5-1.4-1.2-5.4,1.7-5.2
		C1171.8-425.5,1181.7-424,1191.5-424.6z M1208.3-415.9c-3.7,1.6-4.6,6-4.7,9.6c-0.2,12.3,0,24.6-0.1,36.9c0.1,2-0.3,4.6,1.7,5.8
		c2.9,1.8,6.5,1.5,9.7,1.7c7.9-0.1,16.3-0.2,23.6-3.9c4.2-2.1,7.1-6.4,7.7-11c1.1-8.5,0.3-17.5-3.7-25.2
		C1236.6-414.4,1221.1-419.5,1208.3-415.9z"/>
</g>
<path class="st0" d="M1405.2-425.1c6.9-0.7,13.9,0.2,20.8,0.4c11.7,0.6,23.4-1.3,35-0.4c2.6,0.1,2.6,4.2,0.6,5.1
	c-3.2,1.5-7.1,1.7-9.7,4.4c-2.6,2.6-3.2,6.5-3.3,10.1c0,29.3,0,58.7,0,88c-0.1,5.5-0.3,11.6,3.1,16.3c2.8,4,7.8,5.3,12.4,5.9
	c2,0.4,4.4,0.4,5.8,2c1.1,3.1-2.7,4.1-5,3.9c-12.7-0.1-25.3-1.2-38-0.6c-5,0.1-10,0.9-14.9,0.4c-1.8-1.2-1.3-4.3,0.6-5.3
	c2.9-1.8,6.4-2.6,8.8-5.3c3.2-3.6,3.5-8.7,3.5-13.3c0-30,0-60.1,0-90.1c0.1-4.1-1.4-8.4-4.8-10.8c-4.5-3.4-10.6-3.3-15.5-5.8
	C1402.4-421.2,1402.7-424.7,1405.2-425.1z"/>
<path class="st0" d="M1483.3-425c9.2-0.6,18.5,0.1,27.7,0.1c20.6,0.5,41.3,0.5,62,0.1c10-0.1,20-0.7,30-0.3c1.7-0.1,2.1,1.9,2.3,3.2
	c0.9,7.5,1.7,15.1,2.9,22.6c0.2,2,0.4,4.5-1.4,5.8c-1.8,1-4.2,0.2-5-1.6c-2.3-4.3-2.8-9.4-6-13.2c-2.8-3.6-7.4-5.2-11.9-5.3
	c-6.3-0.1-12.6,0-18.9,0c-2.6,0.1-5.5-0.1-7.6,1.5c-1.8,1.7-1.9,4.4-2,6.8c0,29.7,0,59.4,0,89.1c-0.1,5.6,1.9,11.6,6.6,15
	c4.6,3.6,10.6,4.1,16,5.9c2.9,0.5,2.3,4.9-0.1,5.7c-3.6,0.9-7.3,0.4-10.9,0.4c-11.7-0.5-23.4-1-35.1-0.5c-6.3,0.1-12.7,0.9-19,0.4
	c-3.5,0-4.4-5.9-0.9-6.8c4.8-1.6,10.4-1.4,14.5-4.8c4.3-3.4,5.1-9.3,5.1-14.4c0-29,0-58,0-86.9c-0.1-2.8,0.1-5.8-1.1-8.5
	c-1.1-2.4-4.2-2.7-6.5-2.8c-6.3-0.1-12.7,0-19,0c-4.8,0-9.8,1.9-12.8,5.7c-4.1,5-4.6,11.7-7.6,17.2c-1.2,2.9-6.8,3.1-6.6-0.7
	c1-9.7,2.4-19.3,3.4-29C1481.9-421.9,1481.7-424.1,1483.3-425z"/>
<path class="st0" d="M1614.7-424.6c4.4-1.2,8.9-0.6,13.4-0.4c13.3,0.9,26.7,0.2,40.1-0.3c2-0.2,2.9,2.2,2.1,3.8
	c-2.8,2.9-8,2.4-10,6.3c-1.1,3.2,0.6,6.6,1.8,9.5c6.1,12.6,12.2,25.2,18.3,37.9c1.5,2.9,2.7,6.1,5.4,8.2c3.2-2.7,4.8-6.6,6.8-10.1
	c5.2-9.5,10.4-18.9,15.6-28.4c2-3.7,3.9-8,2.9-12.3c-0.6-3-3.3-5.2-6-6.3c-3.6-1.5-7.8-1.6-11.2-3.6c-2.4-1.6-0.8-5.5,2.1-5
	c8,0.4,16,1.1,24,0.6c5.7,0,11.3-1,17-0.5c2.9,0.5,1.7,4.6-0.5,5.2c-7.8,4-13.3,11-17.3,18.6c-8.6,16.2-17.1,32.3-25.6,48.5
	c-1.6,2.9-2.4,6.1-2.4,9.4c-0.2,10-0.1,20-0.1,30c0,5,0.6,10.9,5,14.1c4.6,3.5,10.7,2.4,16,3.9c2,0.4,3.2,2.7,2.6,4.6
	c-1.6,1.8-4.4,1.3-6.5,1.4c-13-0.9-26-0.8-39.1-0.6c-7-0.1-14.1,1.2-21,0.3c-2.8-0.6-1.6-4.5,0.5-5.2c4.6-1.8,10.2-1.4,14.1-5
	c4.6-4.1,4.8-10.8,4.8-16.6c-0.1-8.3,0.1-16.7-0.1-25c0-3.6-1.5-6.9-3.3-10c-10.3-19.1-20.3-38.3-30.7-57.3c-3-5.8-9.1-9-15.2-10.6
	C1615.5-419.7,1614.4-422.1,1614.7-424.6z"/>
<g>
	<path class="st0" d="M388-407.4c-4.2,6.5-9.1,12.5-13.6,18.9c32.1,33.1,51.3,78.3,52.9,124.4c-7.9-1.2-15.8-2.4-23.6-3.6
		c-1-16.4-4.6-32.6-10.4-48c-0.7-1.3-0.5-3.4-2.2-3.8c-0.4,0.1-1.2,0.3-1.6,0.4c-19.2,13.5-38.4,26.9-57.5,40.4
		c-10.8-1.6-21.6-3.1-32.3-5c-3.2-7.9-8.2-14.9-14.2-21C319.5-339.1,353.7-373.2,388-407.4z M314.8-307.3c25.3-4.3,50.6-8.8,76-13.3
		l0.4-0.5c-7.4-17.7-18-34.1-30.9-48.3C345.1-348.6,329.9-328,314.8-307.3z"/>
</g>
<g>
	<path class="st0" d="M100.6-388.6c5,6.3,9.5,12.9,14.3,19.3c-13,14.2-23.6,30.7-31.1,48.5l0.4,0.4c25.5,4.4,50.9,8.9,76.4,13.4
		c5.1,7.2,10.5,14.1,15.5,21.4c-4.3,9-6.4,19-6.5,28.9C113.1-256.7,56.5-257,0-256.6v-0.2c15.9-2.9,31.9-4.9,47.8-7.6
		C49.3-310.5,68.8-355.4,100.6-388.6z M82.9-318.8c-6.3,16.3-10.4,33.4-11.5,50.8c23.9-3.6,47.7-7.4,71.6-10.9
		c-18.6-13.3-37.4-26.2-56-39.5c-0.9-0.7-1.9-1.1-3-1.2C83.7-319.3,83.2-319,82.9-318.8z"/>
</g>
<path class="st0" d="M1844.3-371.1c3.3-5.4,8.3-10.2,14.6-11.5c3-0.6,6.6-0.9,9.2,1c2.1,1.7,1.6,4.7,1.3,7.1
	c-0.5,2.3-1.8,5.3-4.5,5.5c-4.6,0.1-6.3-6.4-11.2-5.7c-2.4,0.6-2.8,3.4-3.1,5.4c-1,8.6-0.9,17.2-1.4,25.8c4.8,0.3,9.8-0.6,14.5,0.4
	c0.8,1.8,0.3,3.9,0.3,5.8c-5.2,0.6-10.4,0.2-15.6,0.3c-1.7,14.2-3.4,28.3-5.1,42.5c-0.9,7.6-1.7,15.7-6.3,22.2
	c-2.8,4.1-8,6.9-13,5.7c-4.3-1.6-6-6.6-5.4-10.8c4.5-0.1,8.8-2.8,9.8-7.4c2.3-9.1,2.4-18.5,3.8-27.7c0.9-8.1,2.1-16.3,2.7-24.4
	c-3.7,0-7.3,0.3-11-0.1c-1.4-1.5-1.4-4.6-0.1-6.2c3.9-0.4,7.9-0.1,11.8-0.2C1837-353,1839.3-362.7,1844.3-371.1z"/>
<g>
	<path class="st0" d="M1792.5-344.8c6.8-1.4,14.4-0.4,19.9,4c5.5,4.3,8,11.5,7.8,18.4c-0.2,11.5-5.2,23.7-15.5,29.7
		c-9.8,5.6-24.5,4.6-31.2-5.2c-8.3-12.8-5.1-31.8,7-41.1C1784-341.8,1788.1-343.8,1792.5-344.8z M1794.4-340.9
		c-4.6,1.8-6.7,6.8-8.1,11.1c-2.4,8.5-3.1,17.5-2.7,26.4c0.2,3.8,1.8,8.4,5.9,9.4c4.6,1.3,9.1-1.8,11.2-5.7c4-7.5,4.7-16.3,5.1-24.6
		c0-4.4,0.5-9.2-1.6-13.3C1802.4-341.2,1797.8-342.1,1794.4-340.9z"/>
</g>
<path class="st0" d="M235.6-312.4c0.9,0,2.8,0,3.7,0c0,9.8,0,19.6,0,29.5c-1.3,0-2.5,0-3.8,0C235.7-292.8,235.6-302.6,235.6-312.4z"
	/>
<path class="st0" d="M214.5-307.5c1.2-0.5,2.4-1,3.5-1.4c3.8,9.1,7.6,18.3,11.3,27.4c-1.3,0.1-3.6,2.2-4.1,0
	C221.7-290.1,218-298.8,214.5-307.5z"/>
<path class="st0" d="M257-308.9c1.2,0.5,2.4,0.9,3.5,1.4c-3.5,8.7-7.1,17.3-10.7,26c-0.6,2.2-2.8,0.1-4.1,0
	C249.4-290.6,253.2-299.8,257-308.9z"/>
<path class="st0" d="M199.4-297.5c7.2,6.8,14,13.9,21,20.9c-0.9,0.9-1.8,1.8-2.6,2.6c-7-6.9-13.9-13.9-20.9-20.8
	C197.8-295.6,198.6-296.5,199.4-297.5z"/>
<path class="st0" d="M274.7-296.8c1.4-1.3,2.3,1.5,3.4,2.1c-7,6.9-13.9,13.9-20.9,20.8c-0.9-0.9-1.8-1.8-2.6-2.7
	C261.1-283.4,268-290,274.7-296.8z"/>
<path class="st0" d="M187-279.9c8.7,3.6,17.3,7.2,26,10.8c2.1,0.6,0,2.9-0.1,4.1c-9.1-3.8-18.3-7.6-27.4-11.3
	C186-277.5,186.5-278.7,187-279.9z"/>
<path class="st0" d="M260.8-268.5c9-3.9,18.2-7.6,27.3-11.4c0.5,1.2,1,2.4,1.5,3.6c-9.1,3.7-18.2,7.6-27.3,11.3
	C261.7-266.2,261.3-267.4,260.8-268.5z"/>
<path class="st0" d="M182-258.8c9.8,0,19.6,0,29.4,0c0,1.3,0,2.5,0,3.8c-9.8-0.1-19.6,0-29.5,0C182-256,182-257.8,182-258.8z"/>
<path class="st0" d="M263.6-255c0-1.3,0-2.6,0-3.8c9.8,0.1,19.6,0,29.5,0c0,0.9,0,2.8,0,3.7C283.2-255,273.4-255.1,263.6-255z"/>
<g>
	<path class="st0" d="M305.3-256.9c56.5,0,113.1,0.2,169.7-0.1c-15.8,3-31.9,4.9-47.8,7.6c-1.6,46-20.8,91.3-53,124.2
		c-4.7-6.4-9.4-12.8-14.1-19.2c13.3-14.3,23.5-31.1,31.4-48.8c-25.8-4.3-51.5-8.9-77.3-13.5c-5.1-7.1-10.2-14.1-15.4-21
		C302.8-236.9,305.4-246.8,305.3-256.9z M332-234.9c19,13.7,38.5,26.7,57.4,40.6c1-0.1,2-0.1,3-0.2c0.2-1.2,0.4-2.4,0.9-3.6
		c5.9-15.3,9.3-31.4,10.4-47.8C379.7-242.2,355.9-238.5,332-234.9z"/>
</g>
<g>
	<path class="st0" d="M47.8-249.6c7.9,1.2,15.8,2.3,23.6,3.7c1,16.3,4.5,32.5,10.4,47.8c0.4,1.2,0.7,2.4,0.9,3.6c1,0.1,2,0.2,3,0.2
		c18-13.2,36.6-25.7,54.8-38.8c1.3-0.9,2.6-2.3,4.4-1.7c10.2,1.6,20.4,3,30.6,4.8c3.3,7.8,8.2,15,14.3,21
		c-34.1,34.3-68.3,68.5-102.6,102.6c4.2-6.5,9.2-12.6,13.6-18.9C68.6-158.4,49.3-203.5,47.8-249.6z M83.4-193.3
		c2,3.6,3.5,7.5,5.4,11.2c6.9,13.6,15.7,26.3,25.9,37.6c15.2-20.7,30.4-41.3,45.5-62C134.6-202.2,109.1-197.4,83.4-193.3z"/>
</g>
<path class="st0" d="M185.5-237.4c9.1-3.8,18.2-7.6,27.4-11.3c0.2,1.3,2.2,3.6,0,4.1c-8.6,3.6-17.3,7.2-25.9,10.7
	C186.5-235.1,186-236.3,185.5-237.4z"/>
<path class="st0" d="M262.2-248.7c9.1,3.7,18.1,7.5,27.3,11.3c-0.5,1.2-0.9,2.4-1.4,3.6c-9.1-3.8-18.3-7.4-27.3-11.4
	C261.3-246.4,261.7-247.6,262.2-248.7z"/>
<path class="st0" d="M196.9-218.9c6.8-7.2,13.9-14,20.9-21c0.9,0.9,1.8,1.8,2.7,2.7c-7,6.9-13.9,14.1-21.1,20.9
	C198.6-217.1,197.8-218,196.9-218.9z"/>
<path class="st0" d="M254.5-237.2c0.9-0.9,1.8-1.8,2.6-2.7c7,7,14.1,13.9,21,21.1c-0.9,0.8-1.9,1.6-2.9,2.5
	C268.5-223.4,261.4-230.2,254.5-237.2z"/>
<path class="st0" d="M559.5-238.7c17.8-2.3,36,1.2,52.2,8.6c4.1,1.6,7.9,4.2,12.4,4.5c3.7-0.3,4.4-5.4,8-6c3.1,0.1,3.2,3.9,3.3,6.1
	c0,12.7,0.1,25.3,0,38c0.3,3.2-3.8,4-6.1,3.2c-1.8-3-2.5-6.4-3.8-9.6c-4.2-11.8-11.8-22.7-23-28.9c-11.9-6.6-26-8.5-39.4-7.2
	c-14,1.8-26.4,11.1-32.6,23.7c-5.8,11-8,23.6-8.6,35.9c-1,16.6,2.1,33.6,9.8,48.4c5.2,9.9,13.3,18.9,23.9,23.2
	c9.4,3.9,19.9,3.3,29.8,1.9c7.5-1.3,15.4-3.9,20.1-10.3c4.6-6.4,4.6-14.7,4.3-22.2c-0.4-6.3-1.9-13.5-7.6-17.3
	c-4.6-3.1-10.3-2.5-15.5-3.5c-3.9-1-2.1-7.2,1.5-7.2c15.3-0.4,30.6,1.6,45.9,0.6c4.7-0.2,9.4-0.7,14.1-0.5c2.7,0.8,2.4,4.9,0.6,6.4
	c-2.8,1.6-6.5,1.8-8.8,4.2c-2.7,2.7-3.6,6.6-4.1,10.2c-1,8.3,0.1,16.7,0.2,25c0,1.8,0.1,4.2-1.8,5.1c-13.4,7.5-27.5,13.8-42.3,17.7
	c-17.7,4.6-36.9,4.9-54.1-1.5c-13.9-5.1-25.5-15.4-32.6-28.3c-8.1-14.8-11.8-32.3-9.6-49.1c2.3-19.3,10.3-38.3,24.2-52.1
	C530.3-230.2,544.6-236.9,559.5-238.7z"/>
<path class="st0" d="M1579.7-221.8c17.6-16.1,43.5-20.8,66.4-15.4c8.6,1.9,16.6,5.6,24.6,9.1c2.3,0.8,4.7,2.2,7.2,1.5
	c2.4-1.6,2.8-5,5.2-6.7c1.1,0,2.2,0.2,3.3,0.5c1.3,14.2,2.7,28.4,4,42.5c0,1.6,0.3,3.3-0.5,4.8c-1.3,1.8-4,1.1-5.3-0.4
	c-2.1-2.5-3.2-5.6-4.8-8.4c-7.1-12.6-17.1-24.1-30.1-30.8c-12.5-6.6-28.2-7.6-41.1-1.5c-12.7,5.9-21.5,18-26,31
	c-6.3,17.9-4.4,37.9,2.1,55.4c5.1,13.5,13.8,26.2,26.6,33.4c17,9.7,39.2,8.1,55.3-2.8c7.5-4.7,13.3-11.4,19.9-17.3
	c1.6-1.9,4.8-1.8,5.9,0.6c-0.1,4.1-2.4,7.6-4.6,10.9c-7.8,11-19.1,19.2-31.5,24.3c-16.5,6.6-35,7.5-52.3,3.7
	c-15.4-3.4-29.4-12.7-38.1-25.9c-10.8-16.3-15.4-36.6-12.5-55.9C1556.2-189,1564.8-208.3,1579.7-221.8z"/>
<g>
	<path class="st0" d="M654.3-237c3.5-0.9,7.2-0.3,10.8-0.2c21.3,1.7,42.7-0.6,64-0.1c11.7,0.5,23.9,3.1,33.2,10.6
		c15.5,12.3,18.5,38.5,4.3,52.9c-4.4,4.9-10.7,7.2-15.7,11.3c10,19.1,21.3,37.5,31.9,56.3c1.3,2.3,2.5,5.1,5.3,5.8
		c3.3,1.3,6.7-0.2,10-0.7c2-0.5,4.1,1.4,3.7,3.5c-0.7,3.7-4.3,5.8-7.4,7.3c-8.5,3.8-18.8,5.2-27.3,0.7c-7.3-3.9-11.8-11.2-15.7-18.2
		c-6.5-12.2-13-24.4-19.5-36.6c-2.3-4.4-4.8-9.3-9.5-11.4c-4.9-2-10.3-1.6-15.4-1.4c-2.2,0-5.4,1-5.1,3.8c-0.1,14,0,28,0,42
		c0,5,1.2,10.7,5.6,13.8c3.9,2.9,8.9,2.9,13.3,4.6c2.2,0.6,3,3.9,1,5.2c-2.9,1.6-6.5,1-9.7,0.9c-15.7-1.5-31.4,0.1-47.1,0.2
		c-1.6,0-3.3,0.1-4.8-0.4c-2.5-1-2.6-5.2,0-6.2c3.5-1.7,7.6-2.7,10.2-5.7c4.5-5,5-12,5.2-18.4c0-31,0-62,0-93
		c0-5.4-1.3-11.3-5.7-14.8c-4.5-3.9-10.7-3.8-15.9-6.2C651.6-232.5,651.8-236.3,654.3-237z M709.5-227.8c-5.2,0.4-7.8,5.8-7.7,10.5
		c-0.2,14.3,0,28.6-0.1,43c0,1.7-0.1,3.7,1.3,4.9c2.8,2.2,6.5,2.1,9.9,2.2c9.1,0,18.7,0,27.1-4.1c4.7-2.2,8.1-6.8,8.9-12
		c1.9-13.1-0.6-28.1-10.9-37.2C730.3-227.4,719.4-229.1,709.5-227.8z"/>
</g>
<path class="st0" d="M807.2-237.1c1.6-0.4,3.2-0.3,4.9-0.3c24.6,0.6,49.3,1.3,74,0.5c9.4-0.2,18.8-0.6,28.1-0.5
	c2.3-0.3,4.5,1.5,4.5,3.9c0.3,9,1,18.1,1,27.1c0.3,3.7-5.1,5.7-7,2.3c-1.9-4.9-1.2-10.9-4.9-15.1c-5.8-6.8-15.5-7.7-23.8-8.1
	c-8,0.1-16.1-0.6-24,1.2c-3.9,0.9-5.2,5.1-5.1,8.7c-0.2,12.6,0,25.3-0.1,38c0.1,2.3,0,5.6,2.7,6.6c3.7,1.2,7.6,0.6,11.4,0.7
	c6.2-0.2,13.1,0.9,18.6-2.8c5.5-3.4,7.8-9.7,10.8-15.1c0.8-2,3.6-2.4,5.1-0.9c1.1,1.6,1.1,3.6,1.2,5.5c0.5,12,0.9,24.1,1.4,36.1
	c0.1,3.2,0.8,6.6-0.5,9.6c-1,2.1-4.5,2.5-5.6,0.4c-2.3-4.4-2.5-9.6-5.3-13.7c-2.6-4.5-7.7-7-12.7-7.3c-6-0.3-12-0.1-18-0.1
	c-2.7,0.2-6.2-0.2-8.1,2.2c-1.2,2.1-1,4.6-1.1,6.9c0,13.3,0,26.7,0,40c0.1,4.2,0.5,9.3,4.5,11.7c5.1,2.8,11.1,2,16.7,1.9
	c13.3-0.7,27.6-3.4,37.8-12.7c4.4-3.8,6.8-9.2,10.4-13.6c1.3-1.8,4.7-1.9,5,0.7c1.7,16-9.4,33.9-26,36.5
	c-25.4,1.1-50.9-1.6-76.3,0.1c-4.3,0-8.7,0.6-13-0.2c-2.6-0.7-1.8-4.3-0.3-5.6c3.4-2.1,8-2,10.7-5.2c3.7-4.2,4-10.2,4.1-15.5
	c0-33,0-66,0-99c0.1-4.3-1.3-9-5-11.6c-5.1-3.9-11.9-3.5-17.4-6.5C803.6-232.1,804.2-236.5,807.2-237.1z"/>
<path class="st0" d="M941.4-236.9c1.4-0.6,3-0.5,4.6-0.5c22,0.5,44,1.2,66,0.7c12.4-0.2,24.7-0.8,37.1-0.7c2.3-0.2,4.4,1.8,4.3,4.2
	c0.3,8.6,0.8,17.2,1,25.8c0.2,2.5-1.5,5.5-4.4,5c-3.4-0.4-3.3-4.4-3.9-6.9c-0.5-5.3-2.9-10.8-7.8-13.5c-9.2-5.3-20.2-4.4-30.4-4.5
	c-5,0.2-10.3-0.2-14.9,2c-3.5,2-3.4,6.5-3.6,10c-0.1,11.7,0,23.3,0,35c0.2,2.6-0.2,6.4,2.8,7.6c3.8,1.1,7.7,0.5,11.6,0.7
	c6.2-0.1,13.1,0.9,18.5-2.9c5.5-3.4,7.7-9.8,10.7-15.2c1.4-2.9,6-1.4,5.9,1.7c1,14.7,1.1,29.4,2,44.1c0.2,2.6-0.6,6.8-4,6.4
	c-3.1-0.2-3.4-4.1-4.2-6.4c-1.4-5.2-3.4-10.8-8.2-13.6c-5.6-3.4-12.3-2.4-18.5-2.5c-4.5,0.2-9.2-0.6-13.6,0.8
	c-2.9,1.2-2.8,4.8-3,7.4c0,13.6-0.1,27.3,0,41c0.1,4.4,0.7,10.1,5.3,12.1c5.4,2.3,11.4,1.5,17.1,1.3c12.8-0.8,26.3-3.5,36.1-12.3
	c4.4-3.8,7-9,10.5-13.6c1.1-1.7,4.2-2.7,5.1-0.3c0.9,3.2,0.4,6.7-0.1,9.9c-2.2,11.2-9.6,22-20.6,26c-5.4,2.1-11.3,1.4-17,1.5
	c-15,0.1-30-0.5-45-0.8c-10.7-0.2-21.4,1.3-32,0.6c-3-0.7-2.1-5.2,0.2-6.2c3.4-1.6,7.6-1.8,10.2-4.9c3.5-4.2,3.8-10.1,3.9-15.3
	c0-33.3,0-66.6,0-99.9c0-4.2-1.7-8.6-5.3-11c-5-3.6-11.5-3.4-16.9-6.2C938.5-231.8,938.6-236,941.4-236.9z"/>
<path class="st0" d="M1075.6-230.1c-2.8-1.3-2.8-6.4,0.4-7.2c2.3-0.3,4.6,0,6.9,0.3c8.7,1.2,17.4-0.5,26.1-0.4
	c2.4,0.1,5.1-0.4,7.2,0.8c3.8,5.8,8.9,10.5,13.4,15.6c24.5,26.9,49,53.7,73.4,80.6c2.8,3,5.3,6.3,9,8.2c1.5-3.5,1.2-7.4,1.3-11.2
	c0-22.3,0-44.7,0-67c0.1-4.4-1.2-8.9-4.6-11.9c-5.4-5-13-5.5-19.4-8.5c-3.5-1.2-2.3-7.2,1.5-6.6c15.3,0.9,30.7,1.2,46,0
	c2.4-0.5,6,0.8,4.8,3.9c-2.3,3.1-6.7,3.2-9.7,5.2c-5.8,3-8.2,9.8-8.2,15.9c-0.1,41,0,82-0.1,123c-0.2,1.4,0.1,3.8-1.8,4
	c-3.8,0.9-6.1-2.5-8.3-4.9c-33.6-36.4-67.3-72.7-100.9-109.1c-1.1-1-2.2-2.5-3.9-2.3c-1.2,1.1-1,2.7-1,4.2c0.1,24.7,0,49.4,0,74.1
	c0.3,8,1.5,16.7,7.1,22.8c4,4.3,10,5.5,15.4,6.6c2.2,0.4,5,1.8,4.6,4.5c0,2-2.7,2.3-4.2,2.5c-12.3,0.6-24.6-1.4-36.8-0.4
	c-5,0.3-10.1,0.8-15.1,0.5c-2.1-0.2-2.5-2.9-1.7-4.4c1-2.3,3.5-3.3,5.6-4.3c4.1-1.9,8.5-4,11.1-7.9c2.7-3.8,3.4-8.5,3.4-13
	c-0.1-27.7,0-55.4,0-83c-0.4-8.5-1.4-18.1-7.9-24.4C1085.7-227.6,1080.3-228,1075.6-230.1z"/>
<path class="st0" d="M1256.4-237c2.4-0.8,5-0.3,7.6-0.2c13.7,1,27.4,0.5,41.1-0.3c2.2-0.3,5.6,1,4.6,3.8
	c-1.8,5.5-10.8,3.8-11.8,10.1c0,4.5,1.8,8.8,3.1,13c8.2,24.3,16.3,48.6,24.4,73c1.8,5,2.9,10.3,5.5,14.9c2.5-1.2,3.3-4.1,4.5-6.4
	c5-10.7,10.1-21.3,15.1-32c2.9-6.5,6.5-12.7,8.7-19.4c-1.4-6.8-4.5-13.2-6.5-19.9c-2.8-7.8-5.2-15.8-8.3-23.5
	c-2.2-5-8.1-5.6-12.5-7.6c-3.4-2.1-0.3-6.6,3-6c13.6,0.9,27.3,1.2,41,0.3c3.2,0,7-1.2,9.7,1c1.5,2.2-0.3,5.1-2.6,5.9
	c-3.4,1.8-9.1,2.8-8.8,7.8c0.9,7.2,3.9,13.8,6,20.7c7.3,22.4,14.9,44.8,22.2,67.3c1.1,2.9,1.3,6.9,4.3,8.5
	c7.6-19.4,13.7-39.3,20.7-58.9c2.7-8.7,6.9-17.2,7.2-26.5c0.3-4.7,0.7-10.3-2.9-13.9c-4.1-4.4-10.7-3.7-15.7-6.4
	c-2.4-2.4,0.6-6.5,3.7-5.8c11.7,0.6,23.4,1.4,35.1,0.1c2.3,0.1,6.3-1.1,7.1,1.9c0.5,2.7-2.3,3.7-4.1,4.9c-4.6,2.7-6.8,7.8-8.5,12.6
	c-15.8,43.5-31.6,87-47.4,130.6c-0.6,1.9-1.8,4.1-4.2,4c-3,0.4-4.3-2.8-5.1-5.1c-9.3-25.4-18.4-50.8-27.7-76.1
	c-0.2-1.6-2.5-2.6-3-0.7c-12.7,26.7-25.2,53.5-37.9,80.2c-1.3,2.4-5.3,2.3-6.6,0c-1.4-2.3-2.1-4.8-3-7.2
	c-14.8-41.9-29.6-83.8-44.4-125.8c-1.2-3.2-2-6.8-4.8-9.1c-2.9-2.6-7.1-2.6-10.4-4.6C1253.2-233.1,1254.2-236.3,1256.4-237z"/>
<path class="st0" d="M1474.4-237c6.8-1.1,13.8,0,20.6,0.1c13.9,1.1,27.9-1.4,41.8-0.3c3.1,0.2,2.8,5,0.2,5.8
	c-3.4,1.5-7.5,1.8-10.3,4.6c-3.2,3.2-3.8,8-3.8,12.3c0,34,0,68.1,0,102.1c0,5.9,1.7,12.5,7,15.8c4.4,3,10,2.7,15,4.2
	c3.1,0.7,1.9,5.4-1.1,5.3c-9.3,0.8-18.6-0.5-27.9-0.5c-10-0.3-20,0.2-30,0.7c-1.6-0.2-4.4,0.6-4.6-1.7c-0.5-1.7,0.3-3.6,1.9-4.4
	c3.1-1.9,6.9-2.8,9.4-5.7c3.4-3.7,3.9-9,3.9-13.9c0-33.7,0-67.4,0-101c0.1-4.6-1.7-9.5-5.7-12c-5-3.6-11.4-3.5-16.7-6.2
	C1472.2-232.6,1472.1-236.1,1474.4-237z"/>
<path class="st0" d="M1702-233.6c-0.3-2.3,2.3-3.2,4.2-3.4c6.9-1,13.9,0,20.8,0.2c11.4,0.6,22.7-0.1,34-0.6c2.1,0,4.4-0.3,6.3,0.7
	c1.8,0.9,1.9,3.7,0.3,4.9c-3.7,2.1-8.4,2.3-11.5,5.5c-3.2,3.1-3.8,7.7-3.8,11.9c0.1,11.7,0,23.4,0,35c-0.1,2.9,1,6.9,4.6,6.7
	c20.3,0.3,40.6,0,60.9,0.1c2.7-0.1,5.9,0.2,8-2c2.3-2.4,2.1-5.9,2.2-8.9c-0.1-10,0-20-0.1-30c0-5.2-2-10.7-6.5-13.6
	c-4.5-3.2-10.3-3-15.3-4.8c-2.6-0.7-2-5.5,0.7-5.4c7.7-0.4,15.3,0.5,23,0.6c11,0.5,22-0.5,33-0.8c2.1,0.1,4.4-0.3,6.4,0.8
	c0.9,1.6,0.5,4.3-1.3,5.1c-3.2,1.5-7.2,1.6-9.8,4.2c-3.1,3.1-3.6,7.8-3.6,11.9c0,33.3,0,66.7,0,100c0,6.6,2.1,13.9,8,17.6
	c4.5,3.2,10.9,2.9,14.5,7.3v2.7c-7.1,2.2-14.7,0.3-21.9,0.5c-13.3-1-26.7,1-40,0.4c-3.1,0.2-3.1-4.1-0.9-5.3
	c3.4-2.3,7.9-3.2,10.5-6.5c3.5-4.4,3.5-10.3,3.5-15.6c-0.2-14,0.2-28-0.2-42c0.1-3.7-4-4.7-6.9-4.5c-19.7,0-39.3,0-59,0
	c-2.8,0.1-6.3-0.1-8.3,2.3c-1.5,2.4-1.4,5.4-1.4,8.1c0.1,11.7,0,23.4,0,35.2c0,6.1,2,12.7,7.3,16.3c4.9,3.7,11.2,4.1,16.8,6.2
	c2,0.6,2.9,3,2.1,4.9c-3.3,1.7-7.1,1-10.6,1.1c-13.7-0.6-27.3-1.2-41-0.3c-5.6,0.1-11.3,0.8-16.9,0.1c-3-0.7-2.6-5.3-0.2-6.5
	c3.7-2.3,8.4-3.2,11.4-6.6c4.2-4.7,4.8-11.3,4.9-17.2c0-31.3,0-62.6,0-94c0-4.6-0.8-9.6-4.1-13c-3.9-4-9.7-4.5-14.8-5.6
	C1705.1-230.5,1702.4-231.1,1702-233.6z"/>
<path class="st0" d="M214.5-206.3c3.8-9.1,7.4-18.3,11.4-27.3c1.1,0.5,2.3,1,3.4,1.5c-3.8,9.1-7.5,18.2-11.3,27.3
	C216.9-205.4,215.7-205.9,214.5-206.3z"/>
<path class="st0" d="M245.7-232.2c1.1-0.5,2.3-0.9,3.4-1.4c4,9,7.6,18.2,11.4,27.3c-1.2,0.5-2.4,0.9-3.6,1.4
	C253.2-214,249.4-223.1,245.7-232.2z"/>
<path class="st0" d="M235.6-230.9c1.3,0,2.5,0,3.8,0c-0.1,9.8,0,19.6,0,29.4c-0.9,0-2.8,0-3.7,0
	C235.6-211.2,235.6-221.1,235.6-230.9z"/>
<g>
	<path class="st0" d="M264.4-194.7c7.9-3.3,14.9-8.4,21.2-14.3c34,34.3,68.4,68.3,102.4,102.6c-6.4-4.3-12.5-9.1-18.9-13.7
		c-33.2,32-78.3,51.3-124.4,52.9c1.2-7.9,2.4-15.8,3.7-23.6c14.5-0.9,28.9-3.8,42.7-8.5c2.9-1,5.7-2.4,8.7-2.8c0.1-1,0.2-2,0.2-3
		c-13.9-18.9-27-38.4-40.7-57.5C261.1-173.3,262.6-184,264.4-194.7z M287.9-179.6c4.3,25.6,9.1,51.1,13.3,76.8
		c17.7-7.9,34.5-18.1,48.7-31.3C329.2-149.3,308.6-164.5,287.9-179.6z"/>
</g>
<g>
	<path class="st0" d="M205.2-193.2c1.5-1,3.2-2.9,5.1-1.6c8.6,3.7,17.9,5.7,27.3,5.7c0.1,56.6-0.2,113.1,0.1,169.7h-0.2
		c-2.9-15.9-4.9-31.9-7.6-47.8c-46.1-1.6-91.2-20.8-124.3-53c6.4-4.7,12.8-9.4,19.2-14.1c14.3,13,30.8,23.6,48.6,31.1l0.4-0.5
		c4.1-24.5,8.6-48.9,12.7-73.4c0.3-1.4,0.4-3.1,1.8-3.9C194.1-185,199.7-189,205.2-193.2z M215.5-162.4
		c-12.8,18.1-25.4,36.2-38.2,54.3c-0.9,1.5-2.4,2.8-2.4,4.7c0.2,0.3,0.6,0.8,0.8,1.1c16.3,6.3,33.4,10.3,50.9,11.5
		C222.8-114.7,219.2-138.5,215.5-162.4z"/>
</g>
<g>
	<g>
		<path class="st0" d="M237.4,0.1L237.4,0.1c3.1,15.9,4.9,31.9,7.7,47.9c46.1,1.4,91,20.9,124.2,52.8c-6.2,5-12.8,9.5-19.2,14.3
			c-14.3-13-30.7-23.6-48.5-31l-0.4,0.4c-4.3,25.5-8.9,50.9-13.3,76.4c-6.6,4.8-13.1,9.7-19.8,14.5c-1.7,1.7-3.8,0-5.5-0.6
			c-7.9-3.3-16.4-4.7-25-4.9c0-26.6,0-53.1,0-79.7C237.5,60.1,237.9,30.1,237.4,0.1z M248.7,71.5c3.6,23.9,7.3,47.7,10.9,71.6
			c13.3-18.6,26.2-37.4,39.4-56c0.8-0.9,1.1-1.9,1.2-3c-0.2-0.3-0.6-0.8-0.8-1.1C283.2,76.7,266.1,72.6,248.7,71.5z"/>
	</g>
	<g>
		<path class="st0" d="M106,100.7c33.2-32,78.2-51.4,124.3-52.8c-1.3,7.9-2.3,15.8-3.8,23.6c-14.8,0.9-29.4,3.9-43.4,8.8
			c-2.7,0.9-5.2,2.2-8,2.5c-0.1,1-0.1,2-0.2,3c13.9,18.9,27,38.4,40.7,57.5c-1.7,10.8-3.2,21.5-5,32.2c-8,3.2-14.9,8.5-21.3,14.2
			c-23.7-24-47.7-47.7-71.5-71.6C107.8,107.6,97,97.6,87,87C93.5,91.3,99.6,96.2,106,100.7z M125.3,114.9
			c20.7,15.1,41.2,30.3,61.9,45.4c-4.3-25.6-9.1-51.2-13.3-76.8C156.3,91.5,139.5,101.6,125.3,114.9z"/>
	</g>
	<g>
		<path class="st0" d="M388.1,87.1c-4.2,6.5-9.1,12.5-13.6,18.9c32.1,33.1,51.3,78.3,52.8,124.4c-7.9-1.2-15.8-2.4-23.6-3.6
			c-1-16.4-4.6-32.6-10.4-48c-0.7-1.3-0.5-3.4-2.2-3.8c-0.4,0.1-1.2,0.3-1.6,0.4c-19.2,13.5-38.4,26.9-57.5,40.4
			c-10.8-1.7-21.6-3.1-32.3-5.1c-3.2-7.9-8.2-14.9-14.2-20.9C319.6,155.4,353.8,121.3,388.1,87.1z M314.9,187.3
			c25.3-4.3,50.6-8.8,76-13.3l0.4-0.5c-7.4-17.7-18-34.1-30.9-48.2C345.2,145.9,330,166.5,314.9,187.3z"/>
	</g>
	<g>
		<path class="st0" d="M100.7,105.9c5,6.3,9.5,12.8,14.3,19.3c-13,14.2-23.6,30.7-31.1,48.5l0.4,0.4c25.5,4.4,50.9,8.9,76.4,13.4
			c5.1,7.2,10.5,14.1,15.5,21.4c-4.3,9-6.4,19-6.5,29c-56.6,0.1-113.1-0.2-169.7,0.1v-0.1c15.9-2.9,31.9-4.9,47.8-7.6
			C49.4,184.1,68.9,139.1,100.7,105.9z M83,175.7c-6.3,16.3-10.4,33.4-11.5,50.8c23.9-3.6,47.7-7.4,71.6-10.9
			c-18.6-13.3-37.4-26.2-56-39.4c-0.9-0.7-1.9-1.2-3-1.2C83.8,175.2,83.3,175.5,83,175.7z"/>
	</g>
	<path class="st0" d="M235.7,182.1c0.9,0,2.8,0,3.7,0c0,9.8,0,19.6,0,29.5c-1.3,0-2.5,0-3.8,0C235.8,201.7,235.7,191.9,235.7,182.1z
		"/>
	<path class="st0" d="M214.6,187.1c1.2-0.5,2.4-1,3.5-1.4c3.8,9.1,7.6,18.3,11.3,27.4c-1.3,0.1-3.6,2.2-4.1,0
		C221.8,204.4,218.1,195.7,214.6,187.1z"/>
	<path class="st0" d="M257.1,185.6c1.2,0.5,2.4,0.9,3.5,1.4c-3.5,8.7-7.1,17.3-10.7,26c-0.6,2.2-2.8,0.1-4.1,0
		C249.5,203.9,253.3,194.8,257.1,185.6z"/>
	<path class="st0" d="M199.6,197c7.2,6.8,14,13.9,21,20.9c-0.9,0.9-1.8,1.8-2.6,2.6c-7-6.9-13.9-13.9-20.9-20.8
		C197.9,198.9,198.7,197.9,199.6,197z"/>
	<path class="st0" d="M274.8,197.7c1.4-1.4,2.3,1.5,3.4,2.1c-7,6.9-13.9,13.9-20.9,20.8c-0.9-0.9-1.7-1.8-2.6-2.7
		C261.3,211.1,268.1,204.4,274.8,197.7z"/>
	<path class="st0" d="M187.1,214.6c8.7,3.6,17.3,7.2,26,10.8c2.1,0.6,0,2.9-0.1,4.1c-9.1-3.8-18.3-7.6-27.4-11.3
		C186.1,217,186.6,215.8,187.1,214.6z"/>
	<path class="st0" d="M260.9,225.9c9-3.9,18.2-7.6,27.3-11.4c0.5,1.2,1,2.4,1.5,3.6c-9.1,3.7-18.2,7.6-27.3,11.3
		C261.8,228.3,261.4,227.1,260.9,225.9z"/>
	<path class="st0" d="M182.1,235.7c9.8,0,19.6,0,29.4,0c0,1.3,0,2.5,0,3.8c-9.8-0.1-19.6,0-29.5,0
		C182.1,238.5,182.1,236.7,182.1,235.7z"/>
	<path class="st0" d="M263.7,239.5c0-1.3,0-2.5,0-3.8c9.8,0.1,19.6,0,29.5,0c0,0.9,0,2.8,0,3.7C283.3,239.5,273.5,239.4,263.7,239.5
		z"/>
	<g>
		<path class="st0" d="M305.4,237.6c56.6-0.1,113.1,0.2,169.7-0.1c-15.8,3-31.9,4.9-47.8,7.6c-1.6,46-20.8,91.3-53,124.2
			c-4.7-6.4-9.4-12.8-14.1-19.2c13.3-14.3,23.5-31.1,31.4-48.8c-25.8-4.3-51.5-8.9-77.3-13.5c-5.1-7-10.2-14-15.4-21
			C302.9,257.6,305.5,247.7,305.4,237.6z M332.1,259.6c19,13.7,38.5,26.7,57.4,40.6c1-0.1,2-0.1,3-0.2c0.2-1.2,0.4-2.4,0.9-3.6
			c5.9-15.3,9.3-31.4,10.4-47.8C379.8,252.3,356,256,332.1,259.6z"/>
	</g>
	<g>
		<path class="st0" d="M47.9,244.9c7.9,1.2,15.8,2.3,23.6,3.7c1,16.3,4.5,32.5,10.4,47.8c0.4,1.2,0.7,2.4,0.9,3.6c1,0.1,2,0.2,3,0.2
			c18-13.2,36.6-25.7,54.8-38.8c1.3-0.9,2.6-2.3,4.4-1.7c10.2,1.6,20.4,3,30.6,4.8c3.3,7.8,8.2,15,14.3,21
			c-34.1,34.3-68.3,68.5-102.6,102.6c4.2-6.5,9.1-12.6,13.6-18.9C68.7,336.1,49.4,291,47.9,244.9z M83.6,301.3
			c2,3.6,3.5,7.5,5.4,11.2c6.9,13.6,15.7,26.3,25.9,37.6c15.2-20.7,30.4-41.3,45.5-62C134.7,292.3,109.2,297.1,83.6,301.3z"/>
	</g>
	<path class="st0" d="M185.6,257.1c9.1-3.8,18.2-7.6,27.4-11.3c0.2,1.3,2.2,3.6,0,4.1c-8.6,3.6-17.3,7.2-25.9,10.7
		C186.6,259.4,186.1,258.3,185.6,257.1z"/>
	<path class="st0" d="M262.3,245.8c9.1,3.7,18.1,7.5,27.3,11.3c-0.5,1.2-0.9,2.4-1.4,3.6c-9.1-3.8-18.3-7.4-27.3-11.4
		C261.4,248.1,261.9,246.9,262.3,245.8z"/>
	<path class="st0" d="M197,275.6c6.8-7.2,13.9-14,20.9-21c0.9,0.9,1.8,1.8,2.7,2.7c-7,7-13.9,14.1-21.1,20.9
		C198.8,277.4,197.9,276.5,197,275.6z"/>
	<path class="st0" d="M254.6,257.3c0.9-0.9,1.8-1.8,2.6-2.7c7,7,14.1,13.9,21,21.1c-1,0.8-1.9,1.6-2.9,2.5
		C268.6,271.1,261.5,264.3,254.6,257.3z"/>
	<path class="st0" d="M214.6,288.2c3.8-9.1,7.4-18.3,11.4-27.3c1.1,0.5,2.3,1,3.4,1.5c-3.8,9.1-7.5,18.2-11.3,27.3
		C217,289.1,215.8,288.6,214.6,288.2z"/>
	<path class="st0" d="M245.8,262.3c1.1-0.5,2.3-0.9,3.4-1.4c4,9,7.6,18.2,11.4,27.3c-1.2,0.5-2.4,0.9-3.6,1.4
		C253.3,280.5,249.5,271.4,245.8,262.3z"/>
	<path class="st0" d="M235.7,263.6c1.3,0,2.5,0,3.8,0c-0.1,9.8,0,19.6,0,29.4c-0.9,0-2.8,0-3.7,0
		C235.7,283.3,235.8,273.5,235.7,263.6z"/>
	<g>
		<path class="st0" d="M264.5,299.8c7.9-3.3,14.9-8.4,21.2-14.3c34,34.3,68.4,68.3,102.4,102.6c-6.5-4.3-12.6-9.1-18.9-13.7
			c-33.2,32-78.3,51.3-124.4,52.9c1.2-7.9,2.4-15.8,3.7-23.6c14.5-0.9,28.9-3.8,42.7-8.5c2.9-1,5.7-2.4,8.7-2.8c0.1-1,0.2-2,0.2-3
			c-13.9-18.9-27-38.4-40.7-57.5C261.2,321.2,262.7,310.5,264.5,299.8z M288,314.9c4.3,25.6,9.1,51.1,13.3,76.8
			c17.7-7.9,34.5-18.1,48.7-31.3C329.3,345.2,308.7,330,288,314.9z"/>
	</g>
	<g>
		<path class="st0" d="M205.3,301.3c1.5-1,3.2-2.9,5.1-1.6c8.6,3.7,17.9,5.7,27.3,5.7c0.1,56.6-0.2,113.1,0.1,169.7h-0.2
			c-2.9-15.9-4.9-31.9-7.6-47.8c-46.1-1.6-91.2-20.8-124.3-53c6.4-4.7,12.8-9.4,19.2-14.1c14.3,13,30.8,23.6,48.5,31.1l0.4-0.5
			c4.1-24.5,8.6-48.9,12.7-73.4c0.3-1.4,0.4-3.1,1.8-3.9C194.2,309.5,199.8,305.5,205.3,301.3z M215.6,332.1
			c-12.8,18.1-25.4,36.2-38.2,54.3c-0.9,1.5-2.4,2.8-2.4,4.7c0.2,0.3,0.6,0.9,0.8,1.1c16.3,6.3,33.4,10.4,50.9,11.5
			C222.9,379.9,219.3,356,215.6,332.1z"/>
	</g>
</g>
<g>
	<g>
		<path d="M2133.8-494.9L2133.8-494.9c3.1,15.9,4.9,31.9,7.7,47.9c46.1,1.4,91,20.9,124.2,52.8c-6.2,5-12.8,9.5-19.2,14.3
			c-14.3-13-30.7-23.6-48.5-31l-0.4,0.4c-4.3,25.5-8.9,50.9-13.3,76.4c-6.6,4.8-13.1,9.7-19.8,14.5c-1.7,1.7-3.8,0-5.5-0.6
			c-7.9-3.3-16.4-4.7-25-4.9c0-26.6,0-53.1,0-79.7C2133.9-434.9,2134.3-464.9,2133.8-494.9z M2145.1-423.5
			c3.6,23.9,7.3,47.7,10.9,71.6c13.3-18.6,26.2-37.4,39.4-56c0.8-0.9,1.2-1.9,1.2-3c-0.2-0.3-0.6-0.8-0.8-1.1
			C2179.6-418.3,2162.5-422.4,2145.1-423.5z"/>
	</g>
	<g>
		<path d="M2002.4-394.3c33.2-32,78.2-51.4,124.3-52.8c-1.3,7.9-2.3,15.8-3.8,23.6c-14.8,0.9-29.4,3.9-43.4,8.8
			c-2.7,0.9-5.2,2.2-8,2.5c-0.1,1-0.1,2-0.2,3c13.9,18.9,27,38.4,40.7,57.5c-1.7,10.8-3.2,21.5-5,32.2c-8,3.2-14.9,8.5-21.3,14.2
			c-23.7-24-47.7-47.7-71.5-71.6c-10.1-10.6-20.9-20.5-31-31.1C1989.9-403.7,1996-398.8,2002.4-394.3z M2021.7-380
			c20.7,15.1,41.2,30.3,61.9,45.4c-4.3-25.6-9.1-51.1-13.3-76.8C2052.7-403.5,2035.9-393.4,2021.7-380z"/>
	</g>
	<path d="M3229.7-426.6c9.5-2,19.6-0.6,28.4,3.2c3.4,1.3,6.7,3.3,10.4,3.4c3.5-0.6,6.4-3,10-3.1c2,0.3,1.8,2.8,2,4.3
		c0.6,10.7,2,21.3,2.3,32c0.2,3.1-5.1,5-6.2,1.9c-2.9-5.8-4.9-12.1-8.6-17.5c-4.8-7.7-12.3-13.7-21.2-15.7
		c-7.5-1.6-16.2-1.6-22.7,3.1c-6.3,4.5-8.5,13.1-6.9,20.5c1.2,4.9,5.4,8.1,9.6,10.4c14.1,7.6,29.8,11.9,43.2,20.7
		c7.3,4.7,13,12.1,14.9,20.7c2.3,10.9,1.7,22.9-3.5,33c-3.7,7.3-9.8,13.2-17.1,16.8c-8.8,4.3-19.1,5.5-28.8,4
		c-8.2-1.3-16-4.4-24-6.3c-2.2-0.6-5.2-1.2-5.6-3.9c-2.5-10.6-4.8-21.3-7.2-31.9c-0.3-1.8-0.8-3.8,0.2-5.5c1.9-1.9,5.9-1.1,6.4,1.7
		c3.6,11.1,9,22.3,18.2,29.8c10.7,8.9,27.5,10.5,39,2.2c10.4-7.6,13-26.1,2-34.3c-7.2-5.4-15.8-8.4-23.9-12
		c-9.3-4.1-19-7.5-27.3-13.5c-5.8-4.1-10.1-10.2-11.6-17.2c-2.4-11.4-0.6-24,6.5-33.4C3213.4-420.2,3221.2-424.9,3229.7-426.6z"/>
	<path d="M2392.9-425.3c1.8-0.7,3.8-0.4,5.7-0.4c12,0.5,24,1,36,0.4c5.2,0,10.5-0.8,15.7-0.3c1.2,1.3,1.4,4.2-0.6,4.8
		c-3.5,1.3-7.6,1.9-9.9,5.1c-4,5.3-4.5,12.3-4.7,18.8c0,15.6-0.1,31.3,0,46.9c0.4,12.6,2,26.2,9.8,36.6c5.9,8.1,15.8,12.3,25.6,13.1
		c10.3,0.9,21.3,0,30.3-5.5c6.9-4.2,11.8-11.2,14.5-18.8c4.1-11.3,4.7-23.5,4.9-35.4c0-13.7,0-27.4,0-41c0-5.1-1.7-10.6-6-13.8
		c-4.5-3.6-10.5-4-15.7-6.2c-2-0.6-2.9-3.7-0.9-4.9c5-0.4,9.9,0.5,14.9,0.6c9.7,0.6,19.4-0.6,29.1-0.5c2.2-0.3,3.2,3.1,1.4,4.2
		c-3,1.4-6.6,1.7-8.9,4.3c-3.1,3.6-3.6,8.7-3.7,13.3c-0.2,17.3,0.1,34.7-0.1,52c-0.7,16.6-4,34.4-15.7,47
		c-11.2,12-28.2,16-44.1,16.4c-15.4,0.5-32.2-1.6-44.2-12.1c-11.1-9.8-14.7-25.1-15-39.3c-0.1-21.7,0-43.3,0-65
		c0.1-3.6-1.1-7.4-4.1-9.6c-4.1-3.1-9.4-3-13.9-5.1C2390.9-420.5,2390.5-424.3,2392.9-425.3z"/>
	<path d="M2554.6-425.7c3.3-0.4,6.6,0.3,9.9,0.5c8.8,0.5,17.6-1.7,26.3-0.1c3.7,5.2,8.2,9.7,12.5,14.5
		c21.8,23.9,43.6,47.8,65.3,71.7c2.8,3,5.4,6.3,9,8.4c0.6-2,1.1-4,1.1-6.1c0-21.7,0-43.3,0-65c0.1-4.3-1.6-8.7-5.2-11.2
		c-4.9-3.8-11.4-4.1-16.7-7c-2.8-1.3-1.5-6.3,1.7-5.7c12.6,0.7,25.3,1.1,37.9,0.2c2.2-0.1,4.5-0.5,6.7,0.1c2,0.5,1.9,3.5,0.3,4.4
		c-3.4,2-7.6,2.7-10.4,5.5c-3.7,3.5-4.6,8.8-4.7,13.6c-0.1,37,0.1,74-0.1,110.9c0.3,3.7-4.9,3-6.4,0.8
		c-26.6-28.8-53.2-57.5-79.8-86.3c-5.6-5.8-10.6-12.1-16.7-17.4c-1.1,1-1.8,2.3-1.6,3.9c0,19.4,0,38.8,0,58.1c0,8.3-0.4,17,3.2,24.7
		c2.3,5.6,7.9,9.2,13.8,10.2c2.7,0.8,7.1,0.7,7.7,4.2c0.3,2.1-2.1,2.9-3.8,2.9c-11,0.6-21.9-1.3-32.9-0.4c-4.7,0.2-9.4,0.8-14,0.5
		c-2.7-0.3-2.2-4.2-0.5-5.5c3.6-2.9,8.5-3.9,11.9-7.2c3.8-3.3,5.2-8.5,5.1-13.4c0-25,0-49.9,0-74.9c-0.3-7.7-1.1-16.3-6.6-22.2
		c-3.4-3.7-8.6-4.2-12.9-6.1C2551.9-420.2,2551.8-424.7,2554.6-425.7z"/>
	<path d="M2716.8-425.4c7.1-1.1,14.5,0.1,21.7,0.2c11.4,0.6,22.8-1.2,34.1-0.5c2.8-0.3,3.4,3.8,1.3,5c-3.1,1.6-7,1.8-9.7,4.3
		c-3.3,3.2-3.6,8.1-3.6,12.4c0,30,0,60,0,90c0,5.6,1.3,12.1,6.4,15.3c4.2,2.9,9.6,2.2,14.2,4.1c2.5,1.9-0.2,5-2.7,4.6
		c-13.7,0.3-27.3-1.3-41-0.4c-4.6,0-9.3,1.1-13.8,0.1c-2.6-3.9,2.5-6.1,5.3-7.2c5.4-2,7.9-8,7.8-13.4c0-31.3,0-62.7,0-94
		c0.1-4-1.8-8-5.2-10.2c-4.4-3.1-10-3.1-14.7-5.3C2714.8-421.2,2714.5-424.6,2716.8-425.4z"/>
	<path d="M2786.6-425.7c10.2-0.8,20.6,1.1,30.9,0.6c7.4,0,14.7-1.2,22-0.5c2.1,0.3,1.9,3.3,1.1,4.7c-2.8,2.3-6.9,2.1-9.5,4.6
		c-2.2,2.3-1.4,5.7-1.1,8.5c2.1,11.7,7.3,22.5,11.6,33.6c7.1,17.3,13.9,34.7,21.1,52c0.3,1.1,1.8,3.2,2.7,1.4
		c7.7-16.8,15.2-33.6,22.8-50.5c4.2-9.6,9.3-19,10.9-29.5c0.7-4.9,0.6-10.8-3.4-14.4c-3.9-3.4-9.3-3.2-13.9-5
		c-2.8-0.9-2.1-5.2,0.7-5.4c5.7-0.8,11.4,0,17.1,0.3c8.6,0.7,17.3-1.2,25.9-0.5c2.8,0.5,2.2,4.7,0,5.7c-4.5,2.8-8.8,6.2-10.9,11.2
		c-17.1,37.6-34.1,75.3-51.1,113c-1.3,2.7-2.2,5.6-4,8c-1.3,1.6-3.9,1.6-5.1,0c-2.5-2.8-3.8-6.3-5.3-9.7
		c-15.9-37.1-31.8-74.2-47.6-111.4c-1.7-4-4.4-8-8.7-9.5c-2.7-1.3-6.4-1.2-8.1-3.9C2784.8-423.7,2785.2-425.2,2786.6-425.7z"/>
	<path d="M2937-419.6c-2.8-1.5-1.6-6.1,1.5-6.1c13-0.2,25.9,0.7,38.9,0.5c19,0.6,38.1-0.8,57.1-0.6c2.1-0.2,4,1.7,3.9,3.8
		c0.4,7,0.5,14,0.9,20.9c0,2,0.3,4.3-1.1,5.9c-1.8,1.9-5.5,0.8-5.6-1.9c-1-4.8-1.3-10.4-5.3-13.8c-6.2-5.4-15-5.8-22.9-5.9
		c-6.5,0.2-13.2-0.6-19.5,1.4c-4.2,1.5-4,6.7-4.1,10.4c0.1,11.3-0.3,22.7,0.2,34c0.1,4.3,5.3,4.1,8.4,4c7.1-0.5,15.1,1.6,21.3-2.8
		c4.8-3.1,6.8-8.7,9.5-13.5c1.3-2.8,5.7-1.2,5.4,1.8c0.8,13.5,1.1,27,1.7,40.5c0.5,2.8-2.4,6.3-5.2,4.2c-3.1-4.6-2.8-11-6.8-15.2
		c-4.4-5-11.7-4.7-17.8-4.6c-4.6,0.2-9.4-0.6-13.9,0.7c-2.8,1-2.7,4.4-2.8,6.9c0,12,0,24,0,36c0.2,3.6,0.2,7.8,3,10.5
		c2.9,2.5,7,2.6,10.6,2.7c10.9-0.2,22.1-1.3,31.9-6.3c6-3,10.9-8,14.3-13.7c1.4-1.9,2.4-4.5,4.9-5.1c2.7-0.4,2.7,3.1,2.7,4.9
		c-0.2,13.9-10.3,28.5-24.8,30c-16.7,0.4-33.3-0.3-50-0.6c-9-0.1-18,0.9-27.1,0.7c-1.4,0-2.7-0.6-4-1c0.3-1.5,0-3.5,1.5-4.5
		c3.1-1.7,7.1-1.7,9.5-4.5c3.1-3.5,3.6-8.5,3.7-13c0-29,0-58,0-87c0.1-4.3,0.3-9.3-3.1-12.6C2949.5-417.2,2942.5-416.7,2937-419.6z"
		/>
	<g>
		<path d="M3088-425.1c12.8-0.2,25.7-1,38.5-0.6c10.7,0.6,21.8,3.4,29.9,10.8c13.2,12,14.7,35.6,0.9,47.7c-3.6,3.8-9.2,5.2-12.6,9.1
			c3.3,7.3,7.8,14.1,11.6,21.1c6.1,10.6,12.2,21.2,18.3,31.8c1.5,3.3,5.7,4,8.9,3.1c2.1-0.3,5-1.8,6.5,0.5c1.5,3.3-1.9,6.2-4.4,7.6
			c-8.8,4.7-20.6,6.1-29.1-0.1c-7.8-5.9-11.6-15.3-16.2-23.6c-5.5-9.9-10.4-20.2-16.2-29.9c-3.8-6.3-12-6.4-18.5-6
			c-2.3,0-5.7,0.6-5.4,3.6c-0.2,11,0,21.9-0.1,32.9c0,5.4-0.3,11.6,3.5,15.9c3.4,3.9,8.9,3.9,13.5,5.5c2.2,0.5,3,3.9,0.8,4.9
			c-3.3,1.4-7,0.6-10.5,0.5c-14.3-1.3-28.6,0.6-42.9,0.3c-3,0.6-5.1-3.7-2.5-5.5c3-1.8,6.6-2.4,9.2-4.9c4.2-4,5.1-10.1,5.2-15.6
			c0-28.7,0-57.3,0-86c0.1-4.9-1.4-10.4-5.6-13.4c-4.1-3.1-9.5-3-13.9-5.2c-2.5-1.4-1.2-5.4,1.7-5.2
			C3068.3-426,3078.2-424.5,3088-425.1z M3104.9-416.4c-3.7,1.6-4.6,6-4.7,9.6c-0.2,12.3,0,24.6-0.1,36.9c0.1,2-0.3,4.6,1.7,5.8
			c2.9,1.8,6.5,1.5,9.7,1.7c7.9-0.1,16.3-0.2,23.6-3.9c4.2-2.1,7.1-6.4,7.7-11c1.1-8.5,0.3-17.5-3.7-25.2
			C3133.1-414.9,3117.6-420,3104.9-416.4z"/>
	</g>
	<path d="M3301.7-425.6c6.9-0.7,13.9,0.2,20.8,0.4c11.7,0.6,23.4-1.3,35-0.4c2.6,0.1,2.6,4.2,0.6,5.1c-3.2,1.5-7.1,1.7-9.7,4.4
		c-2.6,2.6-3.2,6.5-3.3,10.1c0,29.3,0,58.7,0,88c-0.1,5.5-0.3,11.6,3.1,16.3c2.8,4,7.8,5.3,12.4,5.9c1.9,0.4,4.4,0.4,5.8,2
		c1.1,3.1-2.6,4.1-4.9,3.9c-12.7-0.1-25.3-1.2-38-0.6c-5,0.1-10,0.9-14.9,0.4c-1.8-1.2-1.3-4.3,0.6-5.3c2.9-1.8,6.5-2.6,8.8-5.3
		c3.2-3.6,3.5-8.7,3.5-13.3c0-30,0-60.1,0-90.1c0.1-4.1-1.4-8.4-4.8-10.8c-4.5-3.4-10.6-3.3-15.5-5.8
		C3298.9-421.7,3299.2-425.2,3301.7-425.6z"/>
	<path d="M3379.8-425.5c9.2-0.6,18.5,0.1,27.7,0.1c20.6,0.5,41.3,0.5,62,0.1c10-0.1,20-0.7,30-0.3c1.7-0.1,2.1,1.9,2.3,3.2
		c0.9,7.5,1.7,15.1,2.9,22.6c0.2,2,0.4,4.5-1.4,5.8c-1.8,1-4.2,0.2-5-1.6c-2.3-4.3-2.8-9.4-6-13.2c-2.8-3.6-7.4-5.2-11.9-5.3
		c-6.3-0.1-12.6,0-18.9,0c-2.6,0.1-5.5-0.1-7.6,1.5c-1.8,1.7-1.9,4.4-2,6.8c0,29.7,0,59.4,0,89.1c-0.1,5.6,1.9,11.6,6.5,15
		c4.6,3.6,10.6,4.1,16,5.9c2.9,0.5,2.3,4.9-0.1,5.7c-3.6,0.9-7.3,0.4-10.9,0.4c-11.7-0.5-23.4-1-35.1-0.5c-6.3,0.1-12.7,0.9-19,0.4
		c-3.6,0-4.4-5.9-0.9-6.8c4.8-1.6,10.4-1.4,14.5-4.8c4.3-3.4,5.1-9.3,5.1-14.4c0-29,0-58,0-86.9c-0.1-2.8,0.1-5.8-1.1-8.5
		c-1.1-2.4-4.2-2.7-6.5-2.8c-6.3-0.1-12.7,0-19,0c-4.8,0-9.8,1.9-12.8,5.7c-4.1,5-4.6,11.7-7.6,17.2c-1.2,2.9-6.8,3.1-6.6-0.7
		c1-9.7,2.4-19.3,3.4-29C3378.4-422.4,3378.2-424.6,3379.8-425.5z"/>
	<path d="M3511.2-425.1c4.4-1.2,8.9-0.6,13.4-0.4c13.3,0.9,26.7,0.2,40-0.3c2-0.2,2.9,2.2,2.1,3.8c-2.8,2.9-8,2.4-9.9,6.3
		c-1.1,3.2,0.6,6.6,1.8,9.5c6.1,12.6,12.2,25.2,18.3,37.9c1.5,2.9,2.7,6.1,5.4,8.2c3.2-2.7,4.8-6.6,6.8-10.1
		c5.2-9.5,10.4-18.9,15.6-28.4c2-3.7,3.9-8,2.9-12.3c-0.6-3-3.3-5.2-6-6.3c-3.6-1.5-7.8-1.6-11.2-3.6c-2.4-1.6-0.8-5.5,2.1-5
		c8,0.4,16,1.1,24,0.6c5.7,0,11.3-1,17-0.5c2.9,0.5,1.7,4.6-0.5,5.2c-7.8,4-13.3,11-17.3,18.6c-8.6,16.2-17.1,32.3-25.6,48.5
		c-1.6,2.9-2.4,6.1-2.4,9.4c-0.2,10-0.1,20-0.1,30c0,5,0.6,10.9,5,14.1c4.6,3.5,10.7,2.4,16,3.9c2,0.4,3.2,2.7,2.6,4.6
		c-1.6,1.8-4.4,1.3-6.5,1.4c-13-0.9-26-0.8-39.1-0.6c-7-0.1-14.1,1.2-21,0.3c-2.8-0.6-1.6-4.5,0.5-5.2c4.6-1.8,10.2-1.4,14.1-5
		c4.6-4.1,4.8-10.8,4.8-16.6c-0.1-8.3,0.1-16.7-0.1-25c0-3.6-1.5-6.9-3.3-10c-10.3-19.1-20.4-38.3-30.6-57.3
		c-3.1-5.8-9.1-9-15.2-10.6C3512-420.2,3510.9-422.6,3511.2-425.1z"/>
	<g>
		<path d="M2284.5-407.9c-4.2,6.5-9.1,12.5-13.6,18.9c32.1,33.1,51.3,78.3,52.9,124.4c-7.9-1.2-15.8-2.4-23.6-3.6
			c-1-16.4-4.6-32.6-10.4-48c-0.7-1.3-0.5-3.4-2.2-3.8c-0.4,0.1-1.2,0.3-1.6,0.4c-19.2,13.5-38.4,26.9-57.5,40.4
			c-10.8-1.6-21.6-3.1-32.3-5c-3.2-7.9-8.2-14.9-14.2-21C2216-339.6,2250.2-373.7,2284.5-407.9z M2211.3-307.8
			c25.3-4.3,50.6-8.8,76-13.3l0.4-0.5c-7.4-17.7-18-34.1-30.9-48.3C2241.6-349.1,2226.4-328.5,2211.3-307.8z"/>
	</g>
	<g>
		<path d="M1997.1-389.1c5,6.3,9.5,12.9,14.3,19.3c-13,14.2-23.6,30.7-31.1,48.5l0.4,0.4c25.5,4.4,50.9,8.9,76.4,13.4
			c5.1,7.2,10.5,14.1,15.5,21.4c-4.3,9-6.4,19-6.5,28.9c-56.6,0.1-113.1-0.2-169.7,0.2v-0.2c15.9-2.9,31.9-4.9,47.8-7.6
			C1945.8-311,1965.3-355.9,1997.1-389.1z M1979.4-319.3c-6.3,16.3-10.4,33.4-11.5,50.8c23.9-3.6,47.7-7.4,71.6-10.9
			c-18.6-13.3-37.4-26.2-56-39.5c-0.9-0.7-1.9-1.1-3-1.2C1980.2-319.8,1979.7-319.5,1979.4-319.3z"/>
	</g>
	<path d="M3740.9-371.6c3.3-5.4,8.3-10.2,14.6-11.5c3-0.6,6.6-0.9,9.2,1c2.1,1.7,1.6,4.7,1.3,7.1c-0.5,2.3-1.8,5.3-4.5,5.5
		c-4.6,0.1-6.4-6.4-11.2-5.7c-2.4,0.6-2.8,3.4-3.1,5.4c-1,8.6-0.9,17.2-1.4,25.8c4.8,0.3,9.8-0.6,14.5,0.4c0.8,1.8,0.3,3.9,0.3,5.8
		c-5.2,0.6-10.4,0.2-15.6,0.3c-1.7,14.2-3.4,28.3-5.1,42.5c-0.9,7.6-1.7,15.7-6.3,22.2c-2.8,4.1-8,6.9-13,5.7
		c-4.3-1.6-6-6.6-5.4-10.8c4.5-0.1,8.8-2.8,9.8-7.4c2.3-9.1,2.4-18.5,3.8-27.7c0.9-8.1,2.1-16.3,2.7-24.4c-3.7,0-7.3,0.3-11-0.1
		c-1.4-1.5-1.4-4.6-0.1-6.2c3.9-0.4,7.9-0.1,11.8-0.2C3733.5-353.5,3735.8-363.2,3740.9-371.6z"/>
	<g>
		<path d="M3689-345.3c6.8-1.4,14.4-0.4,19.9,4c5.5,4.3,8.1,11.5,7.8,18.4c-0.2,11.5-5.2,23.7-15.5,29.7c-9.8,5.6-24.4,4.6-31.2-5.2
			c-8.3-12.8-5.1-31.8,7-41.1C3680.5-342.3,3684.6-344.3,3689-345.3z M3690.9-341.4c-4.6,1.8-6.7,6.8-8.1,11.1
			c-2.4,8.5-3.1,17.5-2.7,26.4c0.2,3.8,1.8,8.4,5.9,9.4c4.6,1.3,9.1-1.8,11.2-5.7c4-7.5,4.7-16.3,5.1-24.6c0-4.4,0.5-9.2-1.6-13.3
			C3698.9-341.7,3694.3-342.6,3690.9-341.4z"/>
	</g>
	<path d="M2132.1-312.9c0.9,0,2.8,0,3.7,0c0,9.8,0,19.6,0,29.5c-1.3,0-2.5,0-3.8,0C2132.2-293.3,2132.1-303.1,2132.1-312.9z"/>
	<path d="M2111-308c1.2-0.5,2.3-1,3.5-1.4c3.8,9.1,7.6,18.3,11.3,27.4c-1.3,0.1-3.6,2.2-4.1,0C2118.2-290.6,2114.5-299.3,2111-308z"
		/>
	<path d="M2153.5-309.4c1.2,0.5,2.4,0.9,3.5,1.4c-3.5,8.7-7.1,17.3-10.7,26c-0.6,2.2-2.9,0.1-4.2,0
		C2145.9-291.1,2149.7-300.3,2153.5-309.4z"/>
	<path d="M2095.9-298c7.2,6.8,14,13.9,21,20.9c-0.9,0.9-1.8,1.8-2.6,2.6c-7-6.9-13.9-13.9-20.9-20.8
		C2094.3-296.1,2095.1-297,2095.9-298z"/>
	<path d="M2171.2-297.3c1.4-1.3,2.3,1.5,3.4,2.1c-7,6.9-13.9,13.9-20.9,20.8c-0.9-0.9-1.8-1.8-2.6-2.7
		C2157.6-283.9,2164.5-290.5,2171.2-297.3z"/>
	<path d="M2083.5-280.4c8.7,3.6,17.3,7.2,26,10.8c2.1,0.6,0.1,2.9-0.1,4.1c-9.1-3.8-18.3-7.6-27.4-11.3
		C2082.5-278,2083-279.2,2083.5-280.4z"/>
	<path d="M2157.3-269c9-3.9,18.2-7.6,27.3-11.4c0.5,1.2,1,2.4,1.5,3.6c-9.1,3.7-18.2,7.6-27.3,11.3
		C2158.2-266.7,2157.8-267.9,2157.3-269z"/>
	<path d="M2078.5-259.3c9.8,0,19.6,0,29.4,0c0,1.3,0,2.5,0,3.8c-9.8-0.1-19.6,0-29.5,0C2078.5-256.5,2078.5-258.3,2078.5-259.3z"/>
	<path d="M2160.1-255.5c0-1.3,0-2.6,0-3.8c9.8,0.1,19.6,0,29.5,0c0,0.9,0,2.8,0,3.7C2179.7-255.5,2169.9-255.6,2160.1-255.5z"/>
	<g>
		<path d="M2201.8-257.4c56.6,0,113.1,0.2,169.7-0.1c-15.8,3-31.9,4.9-47.8,7.6c-1.6,46-20.8,91.3-53,124.2
			c-4.7-6.4-9.4-12.8-14.1-19.2c13.3-14.3,23.5-31.1,31.4-48.8c-25.8-4.3-51.5-8.9-77.3-13.5c-5.1-7.1-10.2-14.1-15.4-21
			C2199.3-237.4,2201.9-247.3,2201.8-257.4z M2228.5-235.4c19,13.7,38.5,26.7,57.4,40.6c1-0.1,2-0.1,3-0.2c0.2-1.2,0.4-2.4,0.9-3.6
			c5.9-15.3,9.3-31.4,10.4-47.8C2276.2-242.7,2252.4-239,2228.5-235.4z"/>
	</g>
	<g>
		<path d="M1944.3-250.1c7.9,1.2,15.8,2.3,23.6,3.7c1,16.3,4.5,32.5,10.4,47.8c0.4,1.2,0.7,2.4,0.9,3.6c1,0.1,2,0.2,2.9,0.2
			c18-13.2,36.6-25.7,54.8-38.8c1.3-0.9,2.6-2.3,4.4-1.7c10.2,1.6,20.4,3,30.6,4.8c3.3,7.8,8.2,15,14.3,21
			c-34.1,34.3-68.3,68.5-102.6,102.6c4.2-6.5,9.2-12.6,13.6-18.9C1965.1-158.9,1945.8-204,1944.3-250.1z M1979.9-193.8
			c2,3.6,3.5,7.5,5.4,11.2c6.8,13.6,15.7,26.3,25.9,37.6c15.2-20.7,30.4-41.3,45.5-62C2031.1-202.7,2005.6-197.9,1979.9-193.8z"/>
	</g>
	<path d="M2082-237.9c9.1-3.8,18.2-7.6,27.4-11.3c0.2,1.3,2.2,3.6,0,4.1c-8.6,3.6-17.3,7.2-25.9,10.7
		C2083-235.6,2082.5-236.8,2082-237.9z"/>
	<path d="M2158.7-249.2c9.1,3.7,18.1,7.5,27.3,11.3c-0.5,1.2-0.9,2.4-1.4,3.6c-9.1-3.8-18.3-7.4-27.3-11.4
		C2157.8-246.9,2158.2-248.1,2158.7-249.2z"/>
	<path d="M2093.4-219.4c6.8-7.2,14-14,20.9-21c0.9,0.9,1.8,1.8,2.7,2.7c-7,6.9-13.9,14.1-21.1,20.9
		C2095.1-217.6,2094.3-218.5,2093.4-219.4z"/>
	<path d="M2151-237.7c0.9-0.9,1.8-1.8,2.6-2.7c7,7,14.1,13.9,21,21.1c-0.9,0.8-1.9,1.6-2.8,2.5
		C2164.9-223.9,2157.9-230.7,2151-237.7z"/>
	<path d="M2456-239.2c17.8-2.3,35.9,1.2,52.2,8.6c4.1,1.6,7.9,4.2,12.4,4.5c3.7-0.3,4.4-5.4,8-6c3.1,0.1,3.2,3.9,3.3,6.1
		c0,12.7,0.1,25.3,0,38c0.3,3.2-3.8,4-6.1,3.2c-1.8-3-2.6-6.4-3.8-9.6c-4.2-11.8-11.9-22.7-23-28.9c-11.9-6.6-26-8.5-39.4-7.2
		c-14,1.8-26.4,11.1-32.6,23.7c-5.8,11-8,23.6-8.6,35.9c-0.9,16.6,2.1,33.6,9.8,48.4c5.2,9.9,13.3,18.9,23.9,23.2
		c9.4,3.9,19.9,3.3,29.8,1.9c7.5-1.3,15.4-3.9,20.1-10.3c4.6-6.4,4.6-14.7,4.3-22.2c-0.4-6.3-1.9-13.5-7.6-17.3
		c-4.6-3.1-10.3-2.5-15.5-3.5c-3.8-1-2.1-7.2,1.5-7.2c15.3-0.4,30.6,1.6,45.9,0.6c4.7-0.2,9.4-0.7,14.2-0.5c2.7,0.8,2.4,4.9,0.6,6.4
		c-2.8,1.6-6.5,1.8-8.8,4.2c-2.7,2.7-3.6,6.6-4.1,10.2c-1.1,8.3,0.1,16.7,0.2,25c0,1.8,0.1,4.2-1.8,5.1
		c-13.4,7.5-27.5,13.8-42.3,17.7c-17.7,4.6-36.9,4.9-54.1-1.5c-13.9-5.1-25.5-15.4-32.6-28.3c-8.1-14.8-11.8-32.3-9.6-49.1
		c2.3-19.3,10.3-38.3,24.2-52.1C2426.8-230.7,2441.1-237.4,2456-239.2z"/>
	<path d="M3476.2-222.3c17.6-16.1,43.5-20.8,66.4-15.4c8.6,1.9,16.6,5.6,24.6,9.1c2.3,0.8,4.7,2.2,7.2,1.5c2.4-1.6,2.8-5,5.2-6.7
		c1.1,0,2.2,0.2,3.3,0.5c1.3,14.2,2.7,28.4,4,42.5c0.1,1.6,0.3,3.3-0.5,4.8c-1.3,1.8-4,1.1-5.3-0.4c-2.1-2.5-3.2-5.6-4.8-8.4
		c-7.1-12.6-17.1-24.1-30.1-30.8c-12.5-6.6-28.2-7.6-41.1-1.5c-12.7,5.9-21.5,18-26,31c-6.3,17.9-4.4,37.9,2.1,55.4
		c5.1,13.5,13.8,26.2,26.6,33.4c17,9.7,39.2,8.1,55.3-2.8c7.5-4.7,13.3-11.4,19.9-17.3c1.6-1.9,4.8-1.8,5.9,0.6
		c-0.1,4.1-2.4,7.6-4.6,10.9c-7.8,11-19.1,19.2-31.5,24.3c-16.5,6.6-35,7.5-52.3,3.7c-15.4-3.4-29.4-12.7-38.1-25.9
		c-10.8-16.3-15.4-36.6-12.5-55.9C3452.6-189.5,3461.3-208.8,3476.2-222.3z"/>
	<g>
		<path d="M2550.8-237.5c3.5-0.9,7.2-0.3,10.8-0.2c21.3,1.7,42.7-0.6,64-0.1c11.7,0.5,23.9,3.1,33.2,10.6
			c15.5,12.3,18.5,38.5,4.3,52.9c-4.4,4.9-10.7,7.2-15.7,11.3c10,19.1,21.3,37.5,31.9,56.3c1.4,2.3,2.5,5.1,5.3,5.8
			c3.3,1.3,6.7-0.2,9.9-0.7c2-0.5,4.1,1.4,3.7,3.5c-0.7,3.7-4.3,5.8-7.4,7.3c-8.5,3.8-18.8,5.2-27.3,0.7
			c-7.3-3.9-11.8-11.2-15.7-18.2c-6.5-12.2-13-24.4-19.5-36.6c-2.3-4.4-4.8-9.3-9.5-11.4c-4.9-2-10.3-1.6-15.4-1.4
			c-2.2,0-5.3,1-5.1,3.8c-0.1,14,0,28-0.1,42c0,5,1.2,10.7,5.6,13.8c3.9,2.9,8.9,2.9,13.3,4.6c2.2,0.6,3,3.9,1,5.2
			c-2.9,1.6-6.4,1-9.6,0.9c-15.7-1.5-31.4,0.1-47.1,0.2c-1.6,0-3.3,0.1-4.8-0.4c-2.5-1-2.6-5.2,0-6.2c3.5-1.7,7.6-2.7,10.2-5.7
			c4.5-5,5-12,5.2-18.4c0-31,0-62,0-93c0-5.4-1.3-11.3-5.7-14.8c-4.5-3.9-10.7-3.8-15.9-6.2C2548.1-233,2548.3-236.8,2550.8-237.5z
			 M2606-228.3c-5.2,0.4-7.8,5.8-7.7,10.5c-0.2,14.3,0,28.6-0.1,43c0,1.7-0.1,3.7,1.3,4.9c2.8,2.2,6.6,2.1,9.9,2.2
			c9.1,0,18.7,0,27.1-4.1c4.7-2.2,8.1-6.8,8.9-12c1.9-13.1-0.6-28.1-10.9-37.2C2626.9-227.9,2615.9-229.6,2606-228.3z"/>
	</g>
	<path d="M2703.7-237.6c1.6-0.4,3.2-0.3,4.9-0.3c24.6,0.6,49.3,1.3,74,0.5c9.4-0.2,18.8-0.6,28.1-0.5c2.3-0.3,4.5,1.5,4.5,3.9
		c0.3,9,1,18.1,1,27.1c0.3,3.7-5.1,5.7-6.9,2.3c-1.8-4.9-1.2-10.9-4.9-15.1c-5.8-6.8-15.5-7.7-23.8-8.1c-8,0.1-16.1-0.6-23.9,1.2
		c-3.9,0.9-5.2,5.1-5.1,8.7c-0.2,12.6,0,25.3-0.1,38c0.1,2.3,0,5.6,2.7,6.6c3.7,1.2,7.6,0.6,11.4,0.7c6.2-0.2,13.1,0.9,18.6-2.8
		c5.5-3.4,7.8-9.7,10.8-15.1c0.8-2,3.6-2.4,5.1-0.9c1.1,1.6,1.1,3.6,1.2,5.5c0.5,12,0.9,24.1,1.4,36.1c0.1,3.2,0.8,6.6-0.5,9.6
		c-1,2.1-4.5,2.5-5.6,0.4c-2.3-4.4-2.5-9.6-5.3-13.7c-2.6-4.5-7.7-7-12.7-7.3c-6-0.3-12-0.1-18-0.1c-2.7,0.2-6.2-0.2-8.1,2.2
		c-1.2,2.1-1,4.6-1.1,6.9c0,13.3,0,26.7,0,40c0.1,4.2,0.5,9.3,4.5,11.7c5.1,2.8,11.1,2,16.7,1.9c13.3-0.7,27.6-3.4,37.8-12.7
		c4.4-3.8,6.8-9.2,10.4-13.6c1.3-1.8,4.7-1.9,5,0.7c1.7,16-9.4,33.9-26,36.5c-25.4,1.1-50.9-1.6-76.3,0.1c-4.3,0-8.7,0.6-13-0.2
		c-2.6-0.7-1.8-4.3-0.3-5.6c3.4-2.1,8-2,10.7-5.2c3.7-4.2,4-10.2,4.1-15.5c0-33,0-66,0-99c0.1-4.3-1.3-9-5-11.6
		c-5.1-3.9-11.9-3.5-17.4-6.5C2700.1-232.6,2700.7-237,2703.7-237.6z"/>
	<path d="M2837.9-237.4c1.4-0.6,3-0.5,4.6-0.5c22,0.5,44,1.2,66,0.7c12.4-0.2,24.7-0.8,37.1-0.7c2.3-0.2,4.3,1.8,4.3,4.2
		c0.3,8.6,0.8,17.2,1,25.8c0.2,2.5-1.5,5.5-4.4,5c-3.4-0.4-3.3-4.4-3.9-6.9c-0.5-5.3-2.9-10.8-7.8-13.5c-9.2-5.3-20.2-4.4-30.4-4.5
		c-5,0.2-10.3-0.2-14.9,2c-3.5,2-3.4,6.5-3.6,10c-0.1,11.7,0,23.3,0,35c0.2,2.6-0.2,6.4,2.8,7.6c3.8,1.1,7.7,0.5,11.6,0.7
		c6.2-0.1,13.1,0.9,18.5-2.9c5.5-3.4,7.7-9.8,10.8-15.2c1.4-2.9,6-1.4,5.9,1.7c1,14.7,1.1,29.4,2,44.1c0.2,2.6-0.6,6.8-4,6.4
		c-3.1-0.2-3.4-4.1-4.2-6.4c-1.4-5.2-3.4-10.8-8.2-13.6c-5.6-3.4-12.3-2.4-18.5-2.5c-4.5,0.2-9.2-0.6-13.6,0.8
		c-2.9,1.2-2.9,4.8-3,7.4c0,13.6-0.1,27.3,0,41c0.1,4.4,0.7,10.1,5.3,12.1c5.4,2.3,11.4,1.5,17.1,1.3c12.8-0.8,26.3-3.5,36.1-12.3
		c4.4-3.8,7-9,10.5-13.6c1-1.7,4.2-2.7,5.1-0.3c0.9,3.2,0.4,6.7-0.1,9.9c-2.2,11.2-9.6,22-20.6,26c-5.4,2.1-11.3,1.4-17,1.5
		c-15,0.1-30-0.5-45-0.8c-10.7-0.2-21.4,1.3-32,0.6c-3-0.7-2.1-5.2,0.2-6.2c3.4-1.6,7.7-1.8,10.2-4.9c3.5-4.2,3.8-10.1,3.9-15.3
		c0-33.3,0-66.6,0-99.9c0-4.2-1.7-8.6-5.3-11c-5-3.6-11.5-3.4-16.9-6.2C2835-232.3,2835.1-236.5,2837.9-237.4z"/>
	<path d="M2972.1-230.6c-2.8-1.3-2.8-6.4,0.4-7.2c2.3-0.3,4.6,0,6.9,0.3c8.7,1.2,17.4-0.5,26.1-0.4c2.4,0.1,5.1-0.4,7.2,0.8
		c3.8,5.8,8.9,10.5,13.4,15.6c24.5,26.9,48.9,53.7,73.4,80.6c2.8,3,5.3,6.3,9,8.2c1.5-3.5,1.2-7.4,1.3-11.2c0-22.3,0-44.7,0-67
		c0.1-4.4-1.2-8.9-4.6-11.9c-5.4-5-13-5.5-19.4-8.5c-3.5-1.2-2.3-7.2,1.5-6.6c15.3,0.9,30.7,1.2,46,0c2.4-0.5,6,0.8,4.8,3.9
		c-2.3,3.1-6.7,3.2-9.7,5.2c-5.8,3-8.2,9.8-8.2,15.9c-0.1,41,0,82,0,123c-0.2,1.4,0.1,3.8-1.8,4c-3.8,0.9-6.1-2.5-8.3-4.9
		c-33.6-36.4-67.3-72.7-100.9-109.1c-1.1-1-2.2-2.5-3.9-2.3c-1.2,1.1-1,2.7-1,4.2c0.1,24.7,0,49.4,0,74.1c0.3,8,1.5,16.7,7.1,22.8
		c4,4.3,10,5.5,15.4,6.6c2.2,0.4,5,1.8,4.6,4.5c0,2-2.7,2.3-4.2,2.5c-12.3,0.6-24.6-1.4-36.8-0.4c-5,0.3-10.1,0.8-15.1,0.5
		c-2.1-0.2-2.5-2.9-1.7-4.4c1-2.3,3.5-3.3,5.6-4.3c4.1-1.9,8.5-4,11.1-7.9c2.7-3.8,3.4-8.5,3.4-13c0-27.7,0-55.4,0-83
		c-0.4-8.5-1.4-18.1-7.9-24.4C2982.2-228.1,2976.8-228.5,2972.1-230.6z"/>
	<path d="M3152.9-237.5c2.4-0.8,5-0.3,7.6-0.2c13.7,1,27.4,0.5,41.1-0.3c2.2-0.3,5.6,1,4.6,3.8c-1.8,5.5-10.8,3.8-11.8,10.1
		c0,4.5,1.8,8.8,3.1,13c8.2,24.3,16.3,48.6,24.4,73c1.8,5,2.9,10.3,5.5,14.9c2.6-1.2,3.3-4.1,4.5-6.4c5-10.7,10.1-21.3,15.1-32
		c2.9-6.5,6.5-12.7,8.7-19.4c-1.4-6.8-4.5-13.2-6.5-19.9c-2.8-7.8-5.2-15.8-8.3-23.5c-2.2-5-8.1-5.6-12.5-7.6c-3.4-2.1-0.3-6.6,3-6
		c13.6,0.9,27.3,1.2,41,0.3c3.2,0,7-1.2,9.7,1c1.5,2.2-0.3,5.1-2.6,5.9c-3.4,1.8-9.1,2.8-8.8,7.8c0.9,7.2,3.9,13.8,6,20.7
		c7.4,22.4,14.9,44.8,22.2,67.3c1.1,2.9,1.3,6.9,4.4,8.5c7.6-19.4,13.7-39.3,20.7-58.9c2.7-8.7,6.9-17.2,7.2-26.5
		c0.3-4.7,0.7-10.3-2.9-13.9c-4.1-4.4-10.7-3.7-15.7-6.4c-2.4-2.4,0.6-6.5,3.7-5.8c11.7,0.6,23.4,1.4,35.1,0.1
		c2.3,0.1,6.3-1.1,7.1,1.9c0.5,2.7-2.3,3.7-4.1,4.9c-4.6,2.7-6.8,7.8-8.5,12.6c-15.8,43.5-31.6,87-47.4,130.6
		c-0.6,1.9-1.8,4.1-4.2,4c-3,0.4-4.3-2.8-5.1-5.1c-9.3-25.4-18.4-50.8-27.7-76.1c-0.1-1.6-2.5-2.6-3-0.7
		c-12.7,26.7-25.2,53.5-37.9,80.2c-1.3,2.4-5.3,2.3-6.6,0c-1.4-2.3-2.1-4.8-3-7.2c-14.8-41.9-29.6-83.8-44.4-125.8
		c-1.2-3.2-2-6.8-4.8-9.1c-2.9-2.6-7.1-2.6-10.4-4.6C3149.7-233.6,3150.6-236.8,3152.9-237.5z"/>
	<path d="M3370.9-237.5c6.8-1.1,13.8,0,20.6,0.1c13.9,1.1,27.9-1.4,41.8-0.3c3.1,0.2,2.8,5,0.2,5.8c-3.4,1.5-7.5,1.8-10.3,4.6
		c-3.2,3.2-3.8,8-3.8,12.3c0,34,0,68.1,0,102.1c0,5.9,1.7,12.5,7,15.8c4.4,3,10,2.7,15,4.2c3.1,0.7,1.9,5.4-1.1,5.3
		c-9.3,0.8-18.6-0.5-27.9-0.5c-10-0.3-20,0.2-30,0.7c-1.6-0.2-4.4,0.6-4.6-1.7c-0.5-1.7,0.3-3.6,1.9-4.4c3.1-1.9,6.9-2.8,9.4-5.7
		c3.4-3.7,3.9-9,3.9-13.9c0-33.7,0-67.4,0-101c0.1-4.6-1.7-9.5-5.7-12c-5-3.6-11.4-3.5-16.7-6.2
		C3368.7-233.1,3368.6-236.6,3370.9-237.5z"/>
	<path d="M3598.5-234.1c-0.3-2.3,2.3-3.2,4.1-3.4c6.9-1,13.9,0,20.8,0.2c11.4,0.6,22.7-0.1,34-0.6c2.1,0,4.4-0.3,6.4,0.7
		c1.8,0.9,1.9,3.7,0.3,4.9c-3.7,2.1-8.4,2.3-11.5,5.5c-3.1,3.1-3.8,7.7-3.8,11.9c0,11.7-0.1,23.4,0,35c-0.1,2.9,1,6.9,4.6,6.7
		c20.3,0.3,40.6,0,60.9,0.1c2.7-0.1,5.9,0.2,8-2c2.3-2.4,2.2-5.9,2.2-8.9c-0.1-10,0-20-0.1-30c-0.1-5.2-2-10.7-6.5-13.6
		c-4.5-3.2-10.3-3-15.3-4.8c-2.6-0.7-2-5.5,0.6-5.4c7.7-0.4,15.3,0.5,23,0.6c11,0.5,22-0.5,33-0.8c2.1,0.1,4.4-0.3,6.4,0.8
		c0.9,1.6,0.5,4.3-1.3,5.1c-3.2,1.5-7.2,1.6-9.8,4.2c-3.1,3.1-3.6,7.8-3.6,11.9c0,33.3,0,66.7,0,100c0,6.6,2.1,13.9,8,17.6
		c4.4,3.2,10.9,2.9,14.5,7.3v2.7c-7.1,2.2-14.7,0.3-21.9,0.5c-13.3-1-26.7,1-40,0.4c-3.1,0.2-3.1-4.1-0.9-5.3
		c3.4-2.3,7.9-3.2,10.5-6.5c3.5-4.4,3.5-10.3,3.5-15.6c-0.2-14,0.2-28-0.2-42c0.1-3.7-4-4.7-6.9-4.5c-19.7,0-39.3,0-59,0
		c-2.8,0.1-6.3-0.1-8.3,2.3c-1.5,2.4-1.4,5.4-1.4,8.1c0.1,11.7,0,23.4,0,35.2c0,6.1,2.1,12.7,7.3,16.3c4.9,3.7,11.2,4.1,16.8,6.2
		c2.1,0.6,2.9,3,2.1,4.9c-3.3,1.7-7.1,1-10.6,1.1c-13.6-0.6-27.3-1.2-41-0.3c-5.6,0.1-11.3,0.8-16.9,0.1c-3-0.7-2.6-5.3-0.2-6.5
		c3.7-2.3,8.4-3.2,11.4-6.6c4.2-4.7,4.8-11.3,4.9-17.2c0-31.3,0-62.6,0-94c0-4.6-0.8-9.6-4.1-13c-3.9-4-9.7-4.5-14.8-5.6
		C3601.6-231,3598.9-231.6,3598.5-234.1z"/>
	<path d="M2111-206.8c3.8-9.1,7.4-18.3,11.4-27.3c1.2,0.5,2.3,1,3.5,1.5c-3.8,9.1-7.5,18.2-11.3,27.3
		C2113.4-205.9,2112.2-206.4,2111-206.8z"/>
	<path d="M2142.2-232.7c1.1-0.5,2.3-0.9,3.4-1.4c4,9,7.6,18.2,11.4,27.3c-1.2,0.5-2.4,0.9-3.6,1.4
		C2149.7-214.5,2145.9-223.6,2142.2-232.7z"/>
	<path d="M2132.1-231.4c1.3,0,2.5,0,3.8,0c-0.1,9.8,0,19.6,0,29.4c-0.9,0-2.8,0-3.7,0C2132.1-211.7,2132.1-221.6,2132.1-231.4z"/>
	<g>
		<path d="M2160.9-195.2c7.9-3.3,14.9-8.4,21.2-14.3c34,34.3,68.4,68.3,102.4,102.6c-6.4-4.3-12.6-9.1-18.9-13.7
			c-33.2,32-78.3,51.3-124.4,52.9c1.2-7.9,2.3-15.8,3.7-23.6c14.5-0.9,28.9-3.8,42.7-8.5c2.9-1,5.7-2.4,8.7-2.8c0.1-1,0.2-2,0.2-3
			c-13.9-18.9-27-38.4-40.7-57.5C2157.6-173.8,2159.1-184.5,2160.9-195.2z M2184.4-180.1c4.3,25.6,9.1,51.1,13.3,76.8
			c17.7-7.9,34.5-18.1,48.7-31.3C2225.7-149.8,2205.1-165,2184.4-180.1z"/>
	</g>
	<g>
		<path d="M2101.7-193.7c1.5-1,3.2-2.9,5.1-1.6c8.6,3.7,17.9,5.7,27.3,5.7c0.1,56.6-0.2,113.1,0.1,169.7h-0.2
			c-2.9-15.9-4.9-31.9-7.6-47.8c-46.1-1.6-91.2-20.8-124.3-53c6.4-4.7,12.8-9.4,19.2-14.1c14.3,13,30.8,23.6,48.6,31.1l0.4-0.5
			c4.1-24.5,8.6-48.9,12.7-73.4c0.3-1.4,0.4-3.1,1.8-3.9C2090.6-185.5,2096.2-189.5,2101.7-193.7z M2112-162.9
			c-12.8,18.1-25.4,36.2-38.2,54.3c-0.9,1.5-2.4,2.8-2.4,4.7c0.2,0.3,0.6,0.8,0.8,1.1c16.3,6.3,33.4,10.3,50.9,11.5
			C2119.3-115.2,2115.7-139,2112-162.9z"/>
	</g>
</g>
</svg>
