<?xml version="1.0" encoding="utf-8"?>
<!-- Generator: Adobe Illustrator 24.2.0, SVG Export Plug-In . SVG Version: 6.00 Build 0)  -->
<svg version="1.1" id="Layer_1" xmlns="http://www.w3.org/2000/svg" xmlns:xlink="http://www.w3.org/1999/xlink" x="0px" y="0px"
	 viewBox="0 0 580.3 180" style="enable-background:new 0 0 580.3 180;" xml:space="preserve">
<style type="text/css">
	.st0{fill:#FF6D00;}
	.st1{fill:#FF8A1B;}
	.st2{fill:#FE8A1B;}
	.st3{fill:#FFE5AF;}
	.st4{fill:#FFC780;}
	.st5{fill:#F5F5F6;}
	.st6{fill:#FEDEC5;}
	.st7{fill:#FCC299;}
	.st8{fill:#FFFFFF;}
</style>
<rect x="600.3" y="-18" class="st0" width="612" height="216"/>
<g>
	<g>
		<path class="st1" d="M88.4,2h2.5c7.5,0.6,12,10.1,7.6,16.2c-3.7,6.3-13.9,6.4-17.6,0.1C76.4,12.2,80.8,2.6,88.4,2z"/>
		<path class="st1" d="M84.6,91.6c6.4-2.8,14.5,0.5,17.1,6.9c2.9,6.3-0.2,14.5-6.6,17.3c-6.5,3.2-15.2-0.3-17.7-7.1
			C74.6,102.3,78,94.2,84.6,91.6z"/>
	</g>
	<g>
		<path class="st0" d="M485.2,47.1c17.7-10.3,39.7-12.1,59.2-6.3c14.3,4.2,26.1,14.6,33.5,27.3c-8.5,6.1-17,12.1-25.5,18.1
			c-2.1-3.6-4.5-7.1-7.6-9.9c-9.9-9.2-25.4-10.7-37.7-5.8c-11.6,4.7-19.6,16.1-21.6,28.3c-2.6,14.6,1.2,31.2,12.8,41
			c9.9,8.4,24.5,10.1,36.6,5.9c8.7-3.1,14.7-10.6,19.5-18.2c8.6,5.9,17.2,11.8,25.8,17.8v0.1c-7,11.9-17.6,21.9-30.4,27.3
			c-7.6,3.3-15.9,4.9-24.1,5.4h-8.5c-12.8-0.9-25.4-4.8-35.9-12c-13.3-8.9-23.2-22.7-27.4-38.1c-4.8-17-3.4-35.8,4.3-51.8
			C464,64.1,473.5,53.8,485.2,47.1z"/>
		<g>
			<path class="st0" d="M119.5,46.3c2.7-4.3,7.6-7.1,12.7-7c13.7,0,27.4,0,41.1,0c11.8,0.1,23.8,5.1,31.3,14.3
				c5.6,6.7,8.4,15.8,7.2,24.4c-1.1,8.6-6.1,16.3-12.8,21.7c9.6,5.5,17.4,14.5,20.3,25.3c3,10.8,0.6,22.9-6.2,31.9
				c-9.1,12.5-24.6,19.3-39.8,19.3c-18.6,0-37.3,0-55.9,0c0-34.8,0-69.5,0-104.3c0.2-5.2-5-9.6-10.1-8.5c-4.5,0.7-6.3,5.7-10.5,7.2
				C89.5,74.3,80,71,76.4,63.7c-3.8-7-1-16.7,6-20.6c5.5-3.3,13.1-2.6,17.9,1.7c1.9,1.8,3.4,4.1,5.9,5.2
				C110.7,52.3,116.7,50.6,119.5,46.3z M150.2,68.9c0,6.3,0,12.5,0,18.8c6.6,0,13.3,0.1,19.9-0.1c4.5-0.2,8.4-4.1,8.6-8.6
				c0.6-5-3.5-9.9-8.6-10.1C163.5,68.7,156.9,68.9,150.2,68.9z M150.2,116.4c0,10.1,0,20.2,0,30.3c7.7,0,15.3,0,23,0
				c7.7,0,14.6-6.9,14.6-14.7c0.4-7.8-6.2-15.2-14-15.6C166,116.3,158.1,116.4,150.2,116.4z"/>
		</g>
		<path class="st0" d="M222.1,39.2c35.9,0,71.8,0,107.7,0c0,9.9,0,19.8,0,29.7c-12.5,0-24.9,0-37.4,0c0,35.8,0,71.6,0,107.5
			c-11,0-21.9,0-32.9,0c0-35.8,0-71.6,0-107.5c-12.5,0-24.9,0-37.4,0C222.1,59,222.1,49.1,222.1,39.2z"/>
		<path class="st0" d="M345.1,39.2c30.9,0,61.8,0,92.6,0c0,9.9,0,19.8,0,29.7c-19.9,0-39.8,0-59.8,0c0,7.5,0,15,0,22.5
			c17.5,0,35.1,0,52.6,0c0,9.7,0,19.4,0,29c-17.5,0-35.1,0-52.6,0c0,8.7,0,17.5,0,26.2c20.8,0.1,41.6,0,62.5,0c0,9.9,0,19.8,0,29.6
			c-31.8,0-63.6,0-95.3,0C345.1,130.6,345.1,84.9,345.1,39.2z"/>
	</g>
	<g>
		<path class="st2" d="M85.6,134.6c7.2-3.3,16,3.7,14.4,11.5c-0.9,7.6-10.9,11.6-16.8,6.8C76.8,148.4,78.2,137.3,85.6,134.6z"/>
	</g>
	<circle class="st3" cx="6.9" cy="36.2" r="5.4"/>
	<circle class="st3" cx="6.9" cy="79.7" r="6.7"/>
	<circle class="st4" cx="33.3" cy="57.8" r="6.7"/>
	<circle class="st4" cx="58.4" cy="36.2" r="8.4"/>
	<circle class="st4" cx="58.4" cy="79.7" r="10.6"/>
	<circle class="st4" cx="58.4" cy="124" r="8.4"/>
	<circle class="st4" cx="33.3" cy="102.1" r="8.4"/>
	<circle class="st4" cx="33.3" cy="146.9" r="6.8"/>
	<circle class="st3" cx="6.9" cy="124" r="5.4"/>
</g>
<g>
	<path class="st5" d="M704.5,2h2.5c7.5,0.6,12,10.1,7.6,16.2c-3.7,6.3-13.9,6.4-17.6,0.1C692.5,12.2,697,2.6,704.5,2z"/>
	<path class="st5" d="M700.7,91.6c6.4-2.8,14.5,0.5,17.1,6.9c2.9,6.3-0.2,14.5-6.6,17.3c-6.5,3.2-15.2-0.3-17.7-7.1
		C690.8,102.3,694.2,94.2,700.7,91.6z"/>
</g>
<g>
	<path class="st5" d="M1101.3,47.1c17.7-10.3,39.7-12.1,59.2-6.3c14.3,4.2,26.1,14.6,33.4,27.3c-8.5,6.1-17,12.1-25.5,18.1
		c-2.1-3.6-4.5-7.1-7.6-9.9c-9.9-9.2-25.4-10.7-37.7-5.8c-11.7,4.7-19.6,16.1-21.6,28.3c-2.6,14.6,1.2,31.2,12.8,41
		c9.9,8.4,24.5,10.1,36.6,5.9c8.7-3.1,14.7-10.6,19.5-18.2c8.6,5.9,17.2,11.8,25.8,17.8v0.1c-7,11.9-17.6,21.9-30.4,27.3
		c-7.6,3.3-15.9,4.9-24.1,5.4h-8.5c-12.8-0.9-25.4-4.8-36-12c-13.3-8.9-23.1-22.7-27.4-38.1c-4.8-17-3.4-35.8,4.3-51.8
		C1080.1,64.1,1089.7,53.8,1101.3,47.1z"/>
	<g>
		<path class="st5" d="M735.6,46.3c2.7-4.3,7.6-7.1,12.7-7c13.7,0,27.4,0,41.1,0c11.8,0.1,23.8,5.1,31.3,14.3
			c5.6,6.7,8.4,15.8,7.2,24.4c-1.1,8.6-6.1,16.3-12.8,21.7c9.6,5.5,17.4,14.5,20.3,25.3c3,10.8,0.5,22.9-6.2,31.9
			c-9.1,12.5-24.6,19.3-39.8,19.3c-18.6,0-37.3,0-55.9,0c0-34.8,0-69.5,0-104.3c0.2-5.2-5-9.6-10.1-8.5c-4.5,0.7-6.3,5.7-10.5,7.2
			c-7.2,3.6-16.8,0.3-20.3-6.9c-3.8-7-1-16.7,6-20.6c5.5-3.3,13.1-2.6,17.9,1.7c1.9,1.8,3.4,4.1,5.9,5.2
			C726.9,52.3,732.9,50.6,735.6,46.3z M766.4,68.9c0,6.3,0,12.5,0,18.8c6.6,0,13.3,0.1,19.9-0.1c4.5-0.2,8.4-4.1,8.6-8.6
			c0.5-5-3.5-9.9-8.6-10.1C779.7,68.7,773,68.9,766.4,68.9z M766.4,116.4c0,10.1,0,20.2,0,30.3c7.7,0,15.3,0,23,0
			c7.7,0,14.5-6.9,14.6-14.7c0.4-7.8-6.2-15.2-14-15.6C782.1,116.3,774.2,116.4,766.4,116.4z"/>
	</g>
	<path class="st5" d="M838.2,39.2c35.9,0,71.8,0,107.7,0c0,9.9,0,19.8,0,29.7c-12.5,0-24.9,0-37.4,0c0,35.8,0,71.6,0,107.5
		c-11,0-21.9,0-32.9,0c0-35.8,0-71.6,0-107.5c-12.5,0-24.9,0-37.4,0C838.2,59,838.2,49.1,838.2,39.2z"/>
	<path class="st5" d="M961.3,39.2c30.9,0,61.8,0,92.6,0c0,9.9,0,19.8,0,29.7c-19.9,0-39.8,0-59.8,0c0,7.5,0,15,0,22.5
		c17.5,0,35.1,0,52.6,0c0,9.7,0,19.4,0,29c-17.5,0-35.1,0-52.6,0c0,8.7,0,17.5,0,26.2c20.8,0.1,41.6,0,62.5,0c0,9.9,0,19.8,0,29.6
		c-31.8,0-63.5,0-95.3,0C961.3,130.6,961.3,84.9,961.3,39.2z"/>
</g>
<g>
	<path class="st5" d="M701.8,134.6c7.2-3.3,16,3.7,14.4,11.5c-0.9,7.6-10.9,11.6-16.8,6.8C692.9,148.4,694.4,137.3,701.8,134.6z"/>
</g>
<circle class="st6" cx="623.1" cy="36.2" r="5.4"/>
<circle class="st6" cx="623.1" cy="79.7" r="6.7"/>
<circle class="st7" cx="649.4" cy="57.8" r="6.7"/>
<circle class="st7" cx="674.6" cy="36.2" r="8.4"/>
<circle class="st7" cx="674.6" cy="79.7" r="10.6"/>
<circle class="st8" cx="674.6" cy="124" r="8.4"/>
<circle class="st7" cx="649.4" cy="102.1" r="8.4"/>
<circle class="st7" cx="649.4" cy="146.9" r="6.8"/>
<circle class="st6" cx="623.1" cy="124" r="5.4"/>
</svg>
